<svg width="126" height="43" viewBox="0 0 126 43" fill="none" xmlns="http://www.w3.org/2000/svg">
<g clip-path="url(#clip0_56_18)">
<mask id="mask0_56_18" style="mask-type:luminance" maskUnits="userSpaceOnUse" x="0" y="0" width="126" height="43">
<path d="M126 0H0V43H126V0Z" fill="white"/>
</mask>
<g mask="url(#mask0_56_18)">
<path d="M104.069 43H21.9138C9.80757 43 0 33.3794 0 21.5C0 9.62062 9.80757 0 21.9138 0H104.069C116.175 0 126 9.62062 126 21.5C126 33.3794 116.175 43 104.069 43Z" fill="white"/>
<path d="M107.39 16.3634L104.631 14.8074L101.839 13.2346C99.9827 12.1973 97.6841 13.5023 97.6841 15.5938V15.9451C97.6841 16.1459 97.7863 16.3132 97.9565 16.4136L99.2506 17.1498C99.6082 17.3506 100.051 17.0996 100.051 16.6813V15.8447C100.051 15.4265 100.511 15.1755 100.868 15.3763L103.422 16.8152L105.959 18.2541C106.317 18.4549 106.317 18.9903 105.959 19.191L103.422 20.63L100.868 22.0689C100.511 22.2696 100.051 22.0187 100.051 21.6004V21.1821C100.051 19.0907 97.7352 17.7856 95.8963 18.823L93.1038 20.3957L90.3455 21.9517C88.4895 22.9891 88.4895 25.6327 90.3455 26.67L93.1038 28.2261L95.8963 29.7988C97.7522 30.8362 100.051 29.5311 100.051 27.4397V27.0883C100.051 26.8875 99.9487 26.7202 99.7784 26.6198L98.4844 25.8837C98.1268 25.6829 97.6841 25.9338 97.6841 26.3521V27.1887C97.6841 27.607 97.2244 27.858 96.8668 27.6572L94.3128 26.2183L91.7757 24.7794C91.4182 24.5786 91.4182 24.0432 91.7757 23.8424L94.3128 22.4035L96.8668 20.9646C97.2244 20.7638 97.6841 21.0148 97.6841 21.4331V21.8514C97.6841 23.9428 99.9998 25.2479 101.839 24.2105L104.631 22.6377L107.39 21.0817C109.245 20.0444 109.245 17.4008 107.39 16.3634Z" fill="black"/>
<path d="M89.3067 16.8654L82.8535 29.9327H80.1802L82.5981 25.0471L78.801 16.8654H81.5424L83.9772 22.3533L86.6335 16.8654H89.3067Z" fill="black"/>
<path d="M24.7743 21.5167C24.7743 19.9607 23.6165 18.8564 22.2032 18.8564C20.79 18.8564 19.6321 19.9607 19.6321 21.5167C19.6321 23.0728 20.79 24.177 22.2032 24.177C23.6165 24.177 24.7743 23.0895 24.7743 21.5167ZM24.7913 26.1514V24.9467C24.0932 25.7833 23.0546 26.3019 21.7946 26.3019C19.2065 26.3019 17.2313 24.2607 17.2313 21.5167C17.2313 18.7728 19.2746 16.7148 21.8456 16.7148C24.4167 16.7148 24.0762 17.2335 24.7743 18.0533V16.8821H27.107V26.1681H24.7743L24.7913 26.1514Z" fill="black"/>
<path d="M38.4471 24.0934C37.6298 24.0934 37.4084 23.7922 37.4084 23.0226V18.9066H38.9068V16.8821H37.4084V14.6233H35.0246V16.8821H31.9598V15.9619C31.9598 15.1922 32.2662 14.891 33.1006 14.891H33.6284V13.084H32.4876C30.5125 13.084 29.593 13.7198 29.593 15.644V16.8821H28.2649V18.9066H29.593V26.1681H31.9768V18.9066H35.0416V23.4576C35.0416 25.3482 35.7738 26.1681 37.7149 26.1681H38.9408V24.1101H38.4641L38.4471 24.0934Z" fill="black"/>
<path d="M46.9945 20.6802C46.8243 19.4755 45.8197 18.756 44.6448 18.756C43.47 18.756 42.4994 19.4588 42.261 20.6802H46.9945ZM42.244 22.1358C42.4143 23.5078 43.4189 24.2942 44.6789 24.2942C45.9389 24.2942 46.4667 23.8257 46.9094 23.0895H49.3613C48.7994 25.0638 46.9945 26.3187 44.6278 26.3187C42.261 26.3187 39.7581 24.3444 39.7581 21.5502C39.7581 18.756 41.8694 16.7315 44.6789 16.7315C47.4883 16.7315 49.5486 18.7728 49.5486 21.5502C49.5486 24.3276 49.5316 21.9518 49.4975 22.1525H42.244V22.1358Z" fill="black"/>
<path d="M64.7197 21.5167C64.7197 20.0109 63.5618 18.8564 62.1486 18.8564C60.7353 18.8564 59.5775 19.9774 59.5775 21.5167C59.5775 23.056 60.7353 24.177 62.1486 24.177C63.5618 24.177 64.7197 23.0226 64.7197 21.5167ZM57.2278 29.9494V16.8821H59.5605V18.0868C60.2586 17.2335 61.2972 16.7148 62.5572 16.7148C65.1113 16.7148 67.1205 18.7728 67.1205 21.5C67.1205 24.2272 65.0772 26.3019 62.5062 26.3019C59.9351 26.3019 60.3267 25.8335 59.6456 25.0638V29.9494H57.2278Z" fill="black"/>
<path d="M75.4978 21.5167C75.4978 19.9607 74.34 18.8564 72.9267 18.8564C71.5135 18.8564 70.3556 19.9607 70.3556 21.5167C70.3556 23.0728 71.5135 24.177 72.9267 24.177C74.34 24.177 75.4978 23.0895 75.4978 21.5167ZM75.5148 26.1514V24.9467C74.8167 25.7833 73.7781 26.3019 72.5181 26.3019C69.93 26.3019 67.9548 24.2607 67.9548 21.5167C67.9548 18.7728 69.9981 16.7148 72.5692 16.7148C75.1402 16.7148 74.7997 17.2335 75.4978 18.0533V16.8821H77.8305V26.1681H75.4978L75.5148 26.1514Z" fill="black"/>
<path d="M53.0222 17.7856C53.0222 17.7856 53.6181 16.7148 55.0654 16.7148C56.5127 16.7148 56.087 16.9323 56.087 16.9323V19.2914C56.087 19.2914 55.2016 18.756 54.4013 18.8731C53.6011 18.9903 53.0903 19.7097 53.0903 20.6802V26.1681H50.6895V16.8821H53.0222V17.7856Z" fill="black"/>
</g>
</g>
<defs>
<clipPath id="clip0_56_18">
<rect width="126" height="43" fill="white"/>
</clipPath>
</defs>
</svg>
