<svg width="472" height="16" viewBox="0 0 472 16" fill="none" xmlns="http://www.w3.org/2000/svg">
<path d="M53.8994 0.0078125L92.6973 0H97.0742L97.0732 0.000976562H100.558L100.559 0H112.902L112.9 0.00292969H115.649L115.651 0H123.618L123.617 0.000976562L130.524 0L130.522 0.00390625L138.384 0.00195312L138.386 0H146.353L146.352 0.000976562L151.697 0L151.696 0.00195312L159.558 0H167.525L167.524 0.000976562H170.273L170.274 0H191.178L191.177 0.000976562H193.008L193.009 0H205.353L205.351 0.00292969L208.1 0.00195312L208.102 0H221.413L221.412 0.000976562L229.273 0H237.241L237.24 0.000976562L237.834 0H275.068L275.066 0.00195312L275.661 0.000976562L275.662 0H288.974L288.972 0.00195312L296.834 0.000976562L296.835 0H329.691L329.69 0.00195312H330.284L330.285 0H342.628L342.626 0.00390625L350.408 0.00195312L350.409 0H358.376L358.375 0.000976562L363.721 0L363.72 0.00292969L371.581 0.00195312L371.582 0H381.424L381.422 0.00292969L389.284 0.000976562L389.285 0H401.548L401.545 0.0117188L405.029 0.0107422L405.032 0H417.376L417.374 0.0078125L456.171 0L454.771 7.53516H462.621L464.032 0H471.999L470.588 7.59375H462.656L461.279 15.0928H453.313L454.689 7.59375H446.781L445.23 15.0928H0V0.0078125L38.0742 0L38.0713 0.0117188L45.9326 0.00976562L45.9355 0H53.9023L53.8994 0.0078125Z" fill="#EB2227"/>
</svg>
