<svg width="152" height="130" viewBox="0 0 152 130" fill="none" xmlns="http://www.w3.org/2000/svg">
<path d="M118 50.58V112.02" stroke="white" stroke-width="2" stroke-linecap="square" stroke-linejoin="round"/>
<path d="M4.80078 112.02V50.58" stroke="white" stroke-width="2" stroke-linecap="square" stroke-linejoin="round"/>
<path d="M4.08 37.28H119.43C121.13 37.28 122.51 38.66 122.51 40.36V46.86C122.51 48.56 121.13 49.94 119.43 49.94H4.08C2.38 49.94 1 48.56 1 46.86V40.36C1 38.66 2.38 37.28 4.08 37.28Z" stroke="white" stroke-width="2" stroke-linecap="square" stroke-linejoin="round"/>
<path d="M122.512 116.82V125.21C122.512 126.98 121.382 128.42 119.992 128.42H3.53172C2.14172 128.42 1.01172 126.98 1.01172 125.21V116.82C1.01172 115.05 2.14172 113.61 3.53172 113.61H119.992C121.382 113.61 122.512 115.05 122.512 116.82Z" stroke="white" stroke-width="2" stroke-linecap="square" stroke-linejoin="round"/>
<path d="M26.6986 28.1201V20.1701C26.6986 19.5601 26.1986 19.0601 25.5886 19.0601H16.1686C15.5586 19.0601 15.0586 19.5601 15.0586 20.1701V28.1201" stroke="white" stroke-width="2" stroke-linecap="square" stroke-linejoin="round"/>
<path d="M39.7188 36.1V22.3C39.7188 20.48 40.8387 19 42.2287 19H81.1987C82.5887 19 83.7087 20.48 83.7087 22.3V36.1" stroke="white" stroke-width="2" stroke-linecap="square" stroke-linejoin="round"/>
<path d="M55.6483 64.69L69.9383 64.66L65.7483 76.47H76.2883L60.0083 101.66V85.76H52.7383L55.6483 64.69Z" stroke="white" stroke-width="1.64" stroke-linecap="square" stroke-linejoin="round"/>
<path d="M21.6914 58.97V70.62" stroke="white" stroke-width="2" stroke-linecap="square" stroke-linejoin="round"/>
<path d="M27.5111 64.79H15.8711" stroke="white" stroke-width="2" stroke-linecap="square" stroke-linejoin="round"/>
<path d="M108.33 64.79H96.6797" stroke="white" stroke-width="2" stroke-linecap="square" stroke-linejoin="round"/>
<path d="M9.60938 35.88V30.9C9.60938 29.63 10.6394 28.6 11.9094 28.6H29.7094C30.9794 28.6 32.0094 29.63 32.0094 30.9V35.88" stroke="white" stroke-width="2" stroke-linecap="square" stroke-linejoin="round"/>
<path d="M108.8 28.1201V20.1701C108.8 19.5601 108.3 19.0601 107.69 19.0601H98.2701C97.6601 19.0601 97.1602 19.5601 97.1602 20.1701V28.1201" stroke="white" stroke-width="2" stroke-linecap="square" stroke-linejoin="round"/>
<path d="M91.7109 35.88V30.9C91.7109 29.63 92.7409 28.6 94.0109 28.6H111.811C113.081 28.6 114.111 29.63 114.111 30.9V35.88" stroke="white" stroke-width="2" stroke-linecap="square" stroke-linejoin="round"/>
<path d="M137.5 8V21.0112" stroke="white" stroke-width="2" stroke-linecap="square" stroke-linejoin="round"/>
<path d="M144 14.5001H131" stroke="white" stroke-width="2" stroke-linecap="square" stroke-linejoin="round"/>
<circle cx="137.5" cy="14.5" r="13.5" stroke="white" stroke-width="2"/>
</svg>
