<svg width="189" height="89" viewBox="0 0 189 89" fill="none" xmlns="http://www.w3.org/2000/svg">
<path d="M51 87.0199L171.35 64.3599" stroke="white" stroke-width="2" stroke-linecap="round" stroke-linejoin="round"/>
<path d="M44.23 87.46C68.1053 87.46 87.46 68.1053 87.46 44.23C87.46 20.3547 68.1053 1 44.23 1C20.3547 1 1 20.3547 1 44.23C1 68.1053 20.3547 87.46 44.23 87.46Z" stroke="white" stroke-width="2" stroke-linecap="round" stroke-linejoin="round"/>
<path d="M43.8997 69.2C57.6902 69.2 68.8697 58.0206 68.8697 44.23C68.8697 30.4395 57.6902 19.26 43.8997 19.26C30.1091 19.26 18.9297 30.4395 18.9297 44.23C18.9297 58.0206 30.1091 69.2 43.8997 69.2Z" stroke="white" stroke-width="2" stroke-linecap="round" stroke-linejoin="round"/>
<path d="M167.659 64.5799C178.898 64.5799 188.009 55.4689 188.009 44.2299C188.009 32.9909 178.898 23.8799 167.659 23.8799C156.42 23.8799 147.309 32.9909 147.309 44.2299C147.309 55.4689 156.42 64.5799 167.659 64.5799Z" stroke="white" stroke-width="2" stroke-linecap="round" stroke-linejoin="round"/>
<path d="M50.3906 1.43994L170.741 24.0999" stroke="white" stroke-width="2" stroke-linecap="round" stroke-linejoin="round"/>
</svg>
