<svg width="16" height="16" viewBox="0 0 16 16" fill="none" xmlns="http://www.w3.org/2000/svg">
<path d="M2.61812 0.44922C2.01906 -0.149519 1.04812 -0.14969 0.449173 0.44922C-0.149869 1.04826 -0.149869 2.0201 0.449173 2.61914L5.37007 7.54004L0.449173 12.4609C-0.149869 13.06 -0.149869 14.0318 0.449173 14.6309C1.04812 15.2298 2.01907 15.2296 2.61812 14.6309L7.53999 9.70899L12.4609 14.6309C13.0599 15.2299 14.0318 15.2299 14.6308 14.6309C15.2298 14.0318 15.2298 13.06 14.6308 12.4609L9.70992 7.54004L14.6308 2.61914C15.2298 2.02011 15.2298 1.04827 14.6308 0.44922C14.0318 -0.149821 13.0599 -0.149821 12.4609 0.44922L7.53999 5.37012L2.61812 0.44922Z" fill="white"/>
</svg>
