<svg width="112" height="110" viewBox="0 0 112 110" fill="none" xmlns="http://www.w3.org/2000/svg">
<path d="M53.7321 0.809814H1.61914V101.391H76.0107V23.0965L53.7321 0.809814Z" fill="#EB2227"/>
<path d="M76.0112 102.201H0V0H53.2548L76.0112 22.7564V102.201ZM1.61967 100.582H74.3915V23.4286L52.5826 1.61967H1.61967V100.582Z" fill="white"/>
<path d="M52.9317 24.1411L52.8184 1.40898L54.438 1.40088L54.5433 22.5133L75.6557 22.408L75.6638 24.0277L52.9317 24.1411Z" fill="white"/>
<path d="M65.9844 73.9055L77.0548 74.7558C80.6586 74.7558 83.5902 82.2711 83.5902 91.5437C83.5902 100.816 80.6667 108.332 77.0548 108.332L65.9844 109.182" fill="#EB2227"/>
<path d="M66.0514 109.992L65.93 108.38L77.0004 107.53C79.7701 107.53 82.7827 100.97 82.7827 91.5519C82.7827 82.1336 79.7701 75.5739 77.0571 75.5739L65.9219 74.7155L66.0434 73.1039L77.1138 73.9542C81.1711 73.9542 84.3942 81.68 84.3942 91.5519C84.3942 101.424 81.1711 109.15 77.049 109.15L66.0434 110L66.0514 109.992Z" fill="white"/>
<path d="M65.9846 109.182C69.7774 109.182 72.852 101.285 72.852 91.5437C72.852 81.8024 69.7774 73.9055 65.9846 73.9055C62.1918 73.9055 59.1172 81.8024 59.1172 91.5437C59.1172 101.285 62.1918 109.182 65.9846 109.182Z" fill="#EB2227"/>
<path d="M65.9858 109.992C61.6856 109.992 58.3086 101.885 58.3086 91.5438C58.3086 81.2022 61.6775 73.0957 65.9858 73.0957C70.2942 73.0957 73.655 81.2022 73.655 91.5438C73.655 101.885 70.2861 109.992 65.9858 109.992ZM65.9858 74.7154C63.119 74.7154 59.9283 81.6233 59.9283 91.5438C59.9283 101.464 63.119 108.372 65.9858 108.372C68.8527 108.372 72.0353 101.464 72.0353 91.5438C72.0353 81.6233 68.8446 74.7154 65.9858 74.7154Z" fill="white"/>
<path d="M83.3818 100.833L82.3047 99.6178L82.3695 99.5611C85.9247 96.3947 88.9291 94.7912 91.302 94.7912C93.6748 94.7912 97.149 95.6091 100.024 96.2732C101.595 96.6295 102.947 96.9454 103.806 97.0668C105.66 97.326 106.948 96.589 107.709 95.925C108.851 94.937 109.531 93.4712 109.531 92.0135C109.531 90.5558 108.851 89.0414 107.709 88.0534C106.948 87.3893 105.668 86.6604 103.806 86.9115C102.947 87.033 101.587 87.3407 100.024 87.7051C97.1409 88.3611 93.5533 89.1871 91.302 89.1871C88.9291 89.1871 85.9247 87.5837 82.3695 84.4172L82.3047 84.3605L83.3818 83.1458L83.4466 83.2024C87.7063 87.0006 90.2006 87.5675 91.302 87.5675C93.3751 87.5675 96.8655 86.7657 99.6676 86.1259C101.271 85.7615 102.664 85.4376 103.595 85.308C105.506 85.0408 107.353 85.5834 108.786 86.8305C110.276 88.1262 111.159 90.0456 111.159 91.9649C111.159 93.8842 110.268 95.8602 108.786 97.1478C107.353 98.395 105.515 98.9376 103.595 98.6703C102.664 98.5407 101.279 98.2249 99.6676 97.8524C96.8655 97.2126 93.3751 96.4109 91.302 96.4109C90.1925 96.4109 87.7063 96.9778 83.4466 100.776L83.3818 100.833Z" fill="white"/>
<path d="M36.1034 56.0407L31.293 51.2303L32.4429 50.0884L36.1115 53.757L44.8982 45.035L46.0401 46.185L36.1034 56.0407Z" fill="white"/>
<path d="M38.6701 65.9773C29.9967 65.9773 22.9512 58.9236 22.9512 50.2583C22.9512 41.5931 30.0048 34.5394 38.6701 34.5394C47.3353 34.5394 54.389 41.5931 54.389 50.2583C54.389 58.9236 47.3353 65.9773 38.6701 65.9773ZM38.6701 36.151C30.8957 36.151 24.5708 42.4758 24.5708 50.2502C24.5708 58.0247 30.8957 64.3495 38.6701 64.3495C46.4445 64.3495 52.7693 58.0247 52.7693 50.2502C52.7693 42.4758 46.4445 36.151 38.6701 36.151Z" fill="white"/>
</svg>
