<svg width="28" height="29" viewBox="0 0 28 29" fill="none" xmlns="http://www.w3.org/2000/svg">
<path d="M27.9994 14.9342C27.9994 7.17392 21.7315 0.882812 13.9997 0.882812C6.26795 0.882812 0 7.17392 0 14.9342C0 21.5238 4.52023 27.0533 10.6179 28.572V19.2284H7.73121V14.9342H10.6179V13.0839C10.6179 8.3014 12.7745 6.08465 17.4526 6.08465C18.3396 6.08465 19.8701 6.25945 20.4962 6.43369V10.3259C20.1658 10.2911 19.5918 10.2737 18.8789 10.2737C16.5835 10.2737 15.6965 11.1465 15.6965 13.4156V14.9342H20.2694L19.4837 19.2284H15.6965V28.8828C22.6286 28.0425 28 22.1185 28 14.9342H27.9994Z" fill="black"/>
</svg>
