<svg width="50" height="50" viewBox="0 0 50 50" fill="none" xmlns="http://www.w3.org/2000/svg">
<path d="M49.999 25.0918C49.999 11.2341 38.8062 0 24.9995 0C11.1928 0 0 11.2341 0 25.0918C0 36.8589 8.07184 46.733 18.9606 49.445V32.7599H13.8057V25.0918H18.9606V21.7877C18.9606 13.2475 22.8115 9.289 31.1654 9.289C32.7493 9.289 35.4823 9.60114 36.6003 9.91228V16.8627C36.0103 16.8005 34.9853 16.7694 33.7123 16.7694C29.6134 16.7694 28.0294 18.3281 28.0294 22.3799V25.0918H36.1953L34.7923 32.7599H28.0294V50C40.4082 48.4995 50 37.9208 50 25.0918H49.999Z" fill="black"/>
</svg>
