<svg width="240" height="89" viewBox="0 0 240 89" fill="none" xmlns="http://www.w3.org/2000/svg">
<g filter="url(#filter0_d_2054_1214)">
<rect x="1" y="1" width="232" height="80.8865" rx="7.52432" fill="white"/>
</g>
<path d="M62.0547 40.3276C62.0547 38.8616 61.9237 37.4521 61.6803 36.0989H42.2852V44.1052H53.3681C52.8813 46.68 51.4211 48.8601 49.2307 50.3261V55.5321H55.9142C59.8082 51.9236 62.0547 46.6236 62.0547 40.3276Z" fill="#4285F4"/>
<path d="M42.2852 60.5313C47.8454 60.5313 52.5069 58.6895 55.9142 55.5321L49.2307 50.3261C47.396 51.5665 45.0559 52.3183 42.2852 52.3183C36.9309 52.3183 32.3817 48.691 30.7529 43.8045H23.901V49.1421C27.2895 55.8892 34.2351 60.5313 42.2852 60.5313Z" fill="#34A853"/>
<path d="M30.7529 43.7857C30.3411 42.5453 30.0977 41.2297 30.0977 39.8577C30.0977 38.4857 30.3411 37.1701 30.7529 35.9297V30.5922H23.901C22.4969 33.3737 21.6919 36.5123 21.6919 39.8577C21.6919 43.2031 22.4969 46.3417 23.901 49.1233L29.2365 44.9509L30.7529 43.7857Z" fill="#FBBC05"/>
<path d="M42.2852 27.4159C45.318 27.4159 48.0138 28.4684 50.1668 30.4982L56.0639 24.578C52.4882 21.2327 47.8454 19.1841 42.2852 19.1841C34.2351 19.1841 27.2895 23.8263 23.901 30.5922L30.7529 35.9297C32.3817 31.0432 36.9309 27.4159 42.2852 27.4159Z" fill="#EA4335"/>
<path fill-rule="evenodd" clip-rule="evenodd" d="M89.7688 17.3027L92.3684 25.2951H100.784L93.9753 30.235L96.5773 38.2274L89.7688 33.2874L82.9603 38.2274L85.56 30.235L78.7515 25.2951H87.1668L89.7688 17.3027Z" fill="#FFD800"/>
<path fill-rule="evenodd" clip-rule="evenodd" d="M116.823 17.3027L119.423 25.2951H127.838L121.03 30.235L123.632 38.2274L116.823 33.2874L110.015 38.2274L112.614 30.235L105.806 25.2951H114.221L116.823 17.3027Z" fill="#FFD800"/>
<path fill-rule="evenodd" clip-rule="evenodd" d="M143.877 17.3027L146.477 25.2951H154.892L148.084 30.235L150.686 38.2274L143.877 33.2874L137.069 38.2274L139.668 30.235L132.86 25.2951H141.275L143.877 17.3027Z" fill="#FFD800"/>
<path fill-rule="evenodd" clip-rule="evenodd" d="M170.931 17.3027L173.531 25.2951H181.946L175.137 30.235L177.739 38.2274L170.931 33.2874L164.122 38.2274L166.722 30.235L159.914 25.2951H168.329L170.931 17.3027Z" fill="#FFD800"/>
<path fill-rule="evenodd" clip-rule="evenodd" d="M197.985 17.3027L200.585 25.2951H209L202.192 30.235L204.794 38.2274L197.985 33.2874L191.177 38.2274L193.776 30.235L186.968 25.2951H195.383L197.983 17.3027H197.985Z" fill="#FFD800"/>
<path d="M200.585 25.2949H209L202.191 30.2354L204.794 38.2275L197.985 33.2871L197.887 33.3584V17.5996L197.983 17.3027H197.985L200.585 25.2949Z" fill="#EFF1F7"/>
<path d="M99.5414 58.2103H98.5763V59.7729H97.4545V58.2103H94.1822V57.3236L97.4545 52.5915H98.5763V57.255H99.5414V58.2103ZM97.4545 57.255V55.4572C97.4545 54.8171 97.4709 54.293 97.5035 53.8848H97.4643C97.3729 54.1003 97.2292 54.3616 97.0332 54.6686L95.255 57.255H97.4545ZM100.374 59.1606C100.374 58.9222 100.436 58.7393 100.56 58.612C100.684 58.4846 100.864 58.4209 101.099 58.4209C101.338 58.4209 101.519 58.4879 101.643 58.6218C101.767 58.7524 101.829 58.932 101.829 59.1606C101.829 59.3925 101.765 59.577 101.638 59.7142C101.514 59.8481 101.334 59.915 101.099 59.915C100.864 59.915 100.684 59.8481 100.56 59.7142C100.436 59.5803 100.374 59.3958 100.374 59.1606ZM105.356 55.3005C106.078 55.3005 106.649 55.4915 107.071 55.8736C107.492 56.2557 107.703 56.7766 107.703 57.4363C107.703 58.2005 107.462 58.7981 106.982 59.2292C106.506 59.657 105.826 59.8709 104.945 59.8709C104.144 59.8709 103.516 59.7419 103.059 59.4839V58.4405C103.323 58.5907 103.627 58.7067 103.97 58.7883C104.313 58.87 104.631 58.9108 104.925 58.9108C105.444 58.9108 105.839 58.7949 106.11 58.563C106.382 58.3311 106.517 57.9915 106.517 57.5441C106.517 56.6884 105.972 56.2606 104.881 56.2606C104.727 56.2606 104.538 56.2769 104.313 56.3096C104.087 56.339 103.89 56.3733 103.72 56.4125L103.206 56.1088L103.48 52.6111H107.203V53.6349H104.494L104.332 55.4083C104.447 55.3887 104.585 55.3658 104.749 55.3397C104.915 55.3135 105.118 55.3005 105.356 55.3005ZM115.036 59.7729L114.806 59.0186H114.766C114.505 59.3484 114.242 59.5737 113.978 59.6946C113.713 59.8121 113.374 59.8709 112.959 59.8709C112.426 59.8709 112.01 59.7272 111.71 59.4398C111.412 59.1525 111.264 58.7459 111.264 58.2201C111.264 57.6616 111.471 57.2403 111.886 56.9562C112.301 56.6721 112.933 56.517 113.782 56.4909L114.717 56.4615V56.1724C114.717 55.8263 114.636 55.5683 114.472 55.3985C114.312 55.2254 114.063 55.1388 113.723 55.1388C113.445 55.1388 113.179 55.1796 112.924 55.2613C112.67 55.3429 112.425 55.4393 112.19 55.5503L111.817 54.7273C112.111 54.5739 112.433 54.4579 112.782 54.3795C113.132 54.2979 113.462 54.2571 113.772 54.2571C114.461 54.2571 114.98 54.4073 115.33 54.7077C115.682 55.0082 115.859 55.4801 115.859 56.1235V59.7729H115.036ZM113.321 58.9892C113.739 58.9892 114.074 58.8732 114.325 58.6414C114.58 58.4062 114.708 58.078 114.708 57.6567V57.1865L114.012 57.2159C113.47 57.2354 113.075 57.3269 112.826 57.4902C112.582 57.6502 112.459 57.8968 112.459 58.2299C112.459 58.4715 112.531 58.6593 112.675 58.7932C112.818 58.9239 113.034 58.9892 113.321 58.9892ZM118.7 59.7729L116.643 54.355H117.857L118.96 57.5049C119.149 58.0339 119.263 58.4617 119.303 58.7883H119.342C119.371 58.5532 119.485 58.1254 119.685 57.5049L120.787 54.355H122.011L119.944 59.7729H118.7ZM125.2 59.8709C124.358 59.8709 123.698 59.626 123.221 59.1361C122.748 58.643 122.511 57.9653 122.511 57.1032C122.511 56.2182 122.732 55.5226 123.172 55.0164C123.613 54.5102 124.219 54.2571 124.99 54.2571C125.705 54.2571 126.27 54.4742 126.685 54.9086C127.1 55.3429 127.307 55.9406 127.307 56.7015V57.3236H123.697C123.713 57.8494 123.855 58.2544 124.123 58.5385C124.391 58.8193 124.768 58.9598 125.254 58.9598C125.574 58.9598 125.872 58.9304 126.146 58.8716C126.424 58.8095 126.721 58.7083 127.037 58.5679V59.5035C126.757 59.6374 126.472 59.7321 126.185 59.7876C125.898 59.8432 125.57 59.8709 125.2 59.8709ZM124.99 55.129C124.624 55.129 124.33 55.245 124.108 55.4768C123.889 55.7087 123.759 56.0467 123.716 56.4909H126.175C126.169 56.0434 126.061 55.7054 125.852 55.4768C125.643 55.245 125.356 55.129 124.99 55.129ZM131.363 54.2571C131.595 54.2571 131.786 54.2734 131.936 54.3061L131.823 55.3789C131.66 55.3397 131.49 55.3201 131.314 55.3201C130.854 55.3201 130.48 55.4703 130.192 55.7708C129.908 56.0712 129.766 56.4615 129.766 56.9415V59.7729H128.615V54.355H129.516L129.668 55.3103H129.727C129.906 54.987 130.14 54.7306 130.427 54.5412C130.718 54.3518 131.03 54.2571 131.363 54.2571ZM136.335 59.7729L136.105 59.0186H136.066C135.804 59.3484 135.542 59.5737 135.277 59.6946C135.012 59.8121 134.673 59.8709 134.258 59.8709C133.726 59.8709 133.309 59.7272 133.009 59.4398C132.712 59.1525 132.563 58.7459 132.563 58.2201C132.563 57.6616 132.771 57.2403 133.185 56.9562C133.6 56.6721 134.232 56.517 135.081 56.4909L136.017 56.4615V56.1724C136.017 55.8263 135.935 55.5683 135.772 55.3985C135.612 55.2254 135.362 55.1388 135.022 55.1388C134.745 55.1388 134.479 55.1796 134.224 55.2613C133.969 55.3429 133.724 55.4393 133.489 55.5503L133.117 54.7273C133.411 54.5739 133.732 54.4579 134.082 54.3795C134.431 54.2979 134.761 54.2571 135.071 54.2571C135.76 54.2571 136.28 54.4073 136.629 54.7077C136.982 55.0082 137.158 55.4801 137.158 56.1235V59.7729H136.335ZM134.621 58.9892C135.039 58.9892 135.373 58.8732 135.625 58.6414C135.88 58.4062 136.007 58.078 136.007 57.6567V57.1865L135.311 57.2159C134.769 57.2354 134.374 57.3269 134.126 57.4902C133.881 57.6502 133.758 57.8968 133.758 58.2299C133.758 58.4715 133.83 58.6593 133.974 58.7932C134.118 58.9239 134.333 58.9892 134.621 58.9892ZM143.34 54.355V54.987L142.414 55.1584C142.499 55.2727 142.569 55.4132 142.625 55.5797C142.68 55.7463 142.708 55.9226 142.708 56.1088C142.708 56.6672 142.516 57.1065 142.13 57.4265C141.745 57.7465 141.214 57.9066 140.538 57.9066C140.365 57.9066 140.208 57.8935 140.068 57.8674C139.82 58.0209 139.696 58.2005 139.696 58.4062C139.696 58.5303 139.753 58.6234 139.867 58.6854C139.985 58.7475 140.199 58.7785 140.509 58.7785H141.454C142.052 58.7785 142.506 58.9059 142.816 59.1606C143.126 59.4153 143.281 59.7827 143.281 60.2628C143.281 60.8768 143.028 61.3503 142.522 61.6834C142.016 62.0165 141.284 62.1831 140.328 62.1831C139.589 62.1831 139.026 62.0525 138.637 61.7912C138.249 61.5299 138.055 61.1576 138.055 60.6743C138.055 60.3412 138.159 60.0603 138.368 59.8317C138.58 59.6064 138.876 59.4496 139.255 59.3615C139.101 59.2961 138.974 59.1916 138.873 59.0479C138.775 58.901 138.726 58.7475 138.726 58.5875C138.726 58.385 138.783 58.2135 138.897 58.0731C139.011 57.9327 139.181 57.7939 139.407 57.6567C139.126 57.5359 138.897 57.34 138.721 57.0689C138.548 56.7946 138.461 56.4745 138.461 56.1088C138.461 55.5209 138.646 55.0653 139.015 54.742C139.387 54.4187 139.916 54.2571 140.602 54.2571C140.755 54.2571 140.915 54.2685 141.082 54.2914C141.252 54.311 141.379 54.3322 141.464 54.355H143.34ZM139.083 60.6155C139.083 60.8637 139.194 61.0548 139.416 61.1887C139.642 61.3226 139.957 61.3895 140.362 61.3895C140.989 61.3895 141.456 61.2997 141.763 61.1201C142.07 60.9405 142.223 60.7021 142.223 60.4049C142.223 60.1697 142.138 60.0016 141.969 59.9003C141.802 59.8023 141.49 59.7534 141.033 59.7534H140.161C139.831 59.7534 139.568 59.8301 139.372 59.9836C139.18 60.1403 139.083 60.351 139.083 60.6155ZM139.578 56.1088C139.578 56.4484 139.665 56.7097 139.838 56.8925C140.014 57.0754 140.265 57.1669 140.592 57.1669C141.258 57.1669 141.591 56.8109 141.591 56.099C141.591 55.7463 141.508 55.4752 141.342 55.2858C141.178 55.0931 140.928 54.9968 140.592 54.9968C140.259 54.9968 140.006 55.0915 139.833 55.2809C139.663 55.4703 139.578 55.7463 139.578 56.1088ZM146.715 59.8709C145.873 59.8709 145.213 59.626 144.736 59.1361C144.263 58.643 144.026 57.9653 144.026 57.1032C144.026 56.2182 144.246 55.5226 144.687 55.0164C145.128 54.5102 145.734 54.2571 146.505 54.2571C147.22 54.2571 147.785 54.4742 148.2 54.9086C148.614 55.3429 148.822 55.9406 148.822 56.7015V57.3236H145.211C145.228 57.8494 145.37 58.2544 145.638 58.5385C145.905 58.8193 146.283 58.9598 146.769 58.9598C147.089 58.9598 147.386 58.9304 147.661 58.8716C147.938 58.8095 148.236 58.7083 148.552 58.5679V59.5035C148.271 59.6374 147.987 59.7321 147.7 59.7876C147.413 59.8432 147.084 59.8709 146.715 59.8709ZM146.505 55.129C146.139 55.129 145.845 55.245 145.623 55.4768C145.404 55.7087 145.274 56.0467 145.231 56.4909H147.69C147.684 56.0434 147.576 55.7054 147.367 55.4768C147.158 55.245 146.87 55.129 146.505 55.129ZM155.484 54.2571C155.716 54.2571 155.907 54.2734 156.057 54.3061L155.944 55.3789C155.781 55.3397 155.611 55.3201 155.435 55.3201C154.974 55.3201 154.601 55.4703 154.313 55.7708C154.029 56.0712 153.887 56.4615 153.887 56.9415V59.7729H152.736V54.355H153.637L153.789 55.3103H153.848C154.027 54.987 154.261 54.7306 154.548 54.5412C154.839 54.3518 155.151 54.2571 155.484 54.2571ZM160.456 59.7729L160.226 59.0186H160.187C159.925 59.3484 159.662 59.5737 159.398 59.6946C159.133 59.8121 158.794 59.8709 158.379 59.8709C157.847 59.8709 157.43 59.7272 157.13 59.4398C156.833 59.1525 156.684 58.7459 156.684 58.2201C156.684 57.6616 156.891 57.2403 157.306 56.9562C157.721 56.6721 158.353 56.517 159.202 56.4909L160.138 56.4615V56.1724C160.138 55.8263 160.056 55.5683 159.893 55.3985C159.733 55.2254 159.483 55.1388 159.143 55.1388C158.866 55.1388 158.599 55.1796 158.345 55.2613C158.09 55.3429 157.845 55.4393 157.61 55.5503L157.238 54.7273C157.532 54.5739 157.853 54.4579 158.203 54.3795C158.552 54.2979 158.882 54.2571 159.192 54.2571C159.881 54.2571 160.401 54.4073 160.75 54.7077C161.103 55.0082 161.279 55.4801 161.279 56.1235V59.7729H160.456ZM158.742 58.9892C159.16 58.9892 159.494 58.8732 159.746 58.6414C160 58.4062 160.128 58.078 160.128 57.6567V57.1865L159.432 57.2159C158.89 57.2354 158.495 57.3269 158.247 57.4902C158.002 57.6502 157.879 57.8968 157.879 58.2299C157.879 58.4715 157.951 58.6593 158.095 58.7932C158.239 58.9239 158.454 58.9892 158.742 58.9892ZM164.904 58.9402C165.185 58.9402 165.466 58.8961 165.747 58.8079V59.675C165.619 59.7305 165.454 59.7762 165.252 59.8121C165.053 59.8513 164.845 59.8709 164.63 59.8709C163.539 59.8709 162.994 59.2961 162.994 58.1466V55.227H162.254V54.7175L163.047 54.2963L163.439 53.15H164.15V54.355H165.693V55.227H164.15V58.127C164.15 58.4046 164.218 58.6103 164.355 58.7442C164.496 58.8749 164.679 58.9402 164.904 58.9402ZM167.985 59.7729H166.834V54.355H167.985V59.7729ZM166.766 52.9197C166.766 52.714 166.821 52.5556 166.932 52.4446C167.046 52.3335 167.208 52.278 167.417 52.278C167.62 52.278 167.776 52.3335 167.887 52.4446C168.002 52.5556 168.059 52.714 168.059 52.9197C168.059 53.1157 168.002 53.2708 167.887 53.3851C167.776 53.4961 167.62 53.5517 167.417 53.5517C167.208 53.5517 167.046 53.4961 166.932 53.3851C166.821 53.2708 166.766 53.1157 166.766 52.9197ZM174.403 59.7729H173.246V56.4419C173.246 56.0239 173.162 55.712 172.992 55.5062C172.825 55.3005 172.559 55.1976 172.193 55.1976C171.707 55.1976 171.351 55.3413 171.125 55.6287C170.9 55.9161 170.787 56.3978 170.787 57.0738V59.7729H169.636V54.355H170.537L170.699 55.0653H170.758C170.921 54.8074 171.153 54.6081 171.454 54.4677C171.754 54.3273 172.087 54.2571 172.453 54.2571C173.753 54.2571 174.403 54.9184 174.403 56.241V59.7729ZM180.58 54.355V54.987L179.654 55.1584C179.739 55.2727 179.809 55.4132 179.864 55.5797C179.92 55.7463 179.948 55.9226 179.948 56.1088C179.948 56.6672 179.755 57.1065 179.37 57.4265C178.984 57.7465 178.454 57.9066 177.778 57.9066C177.605 57.9066 177.448 57.8935 177.307 57.8674C177.059 58.0209 176.935 58.2005 176.935 58.4062C176.935 58.5303 176.992 58.6234 177.107 58.6854C177.224 58.7475 177.438 58.7785 177.748 58.7785H178.694C179.291 58.7785 179.745 58.9059 180.056 59.1606C180.366 59.4153 180.521 59.7827 180.521 60.2628C180.521 60.8768 180.268 61.3503 179.762 61.6834C179.255 62.0165 178.524 62.1831 177.567 62.1831C176.829 62.1831 176.266 62.0525 175.877 61.7912C175.488 61.5299 175.294 61.1576 175.294 60.6743C175.294 60.3412 175.399 60.0603 175.608 59.8317C175.82 59.6064 176.115 59.4496 176.494 59.3615C176.341 59.2961 176.213 59.1916 176.112 59.0479C176.014 58.901 175.965 58.7475 175.965 58.5875C175.965 58.385 176.022 58.2135 176.137 58.0731C176.251 57.9327 176.421 57.7939 176.646 57.6567C176.365 57.5359 176.137 57.34 175.96 57.0689C175.787 56.7946 175.701 56.4745 175.701 56.1088C175.701 55.5209 175.885 55.0653 176.254 54.742C176.626 54.4187 177.156 54.2571 177.841 54.2571C177.995 54.2571 178.155 54.2685 178.321 54.2914C178.491 54.311 178.619 54.3322 178.704 54.355H180.58ZM176.323 60.6155C176.323 60.8637 176.434 61.0548 176.656 61.1887C176.881 61.3226 177.196 61.3895 177.601 61.3895C178.228 61.3895 178.695 61.2997 179.002 61.1201C179.309 60.9405 179.463 60.7021 179.463 60.4049C179.463 60.1697 179.378 60.0016 179.208 59.9003C179.042 59.8023 178.73 59.7534 178.272 59.7534H177.4C177.071 59.7534 176.808 59.8301 176.612 59.9836C176.419 60.1403 176.323 60.351 176.323 60.6155ZM176.818 56.1088C176.818 56.4484 176.904 56.7097 177.077 56.8925C177.254 57.0754 177.505 57.1669 177.832 57.1669C178.498 57.1669 178.831 56.8109 178.831 56.099C178.831 55.7463 178.748 55.4752 178.581 55.2858C178.418 55.0931 178.168 54.9968 177.832 54.9968C177.498 54.9968 177.245 55.0915 177.072 55.2809C176.902 55.4703 176.818 55.7463 176.818 56.1088Z" fill="#1D1C1C"/>
<defs>
<filter id="filter0_d_2054_1214" x="0.372973" y="0.372973" width="239.524" height="88.411" filterUnits="userSpaceOnUse" color-interpolation-filters="sRGB">
<feFlood flood-opacity="0" result="BackgroundImageFix"/>
<feColorMatrix in="SourceAlpha" type="matrix" values="0 0 0 0 0 0 0 0 0 0 0 0 0 0 0 0 0 0 127 0" result="hardAlpha"/>
<feOffset dx="3.13514" dy="3.13514"/>
<feGaussianBlur stdDeviation="1.88108"/>
<feComposite in2="hardAlpha" operator="out"/>
<feColorMatrix type="matrix" values="0 0 0 0 0 0 0 0 0 0 0 0 0 0 0 0 0 0 0.06 0"/>
<feBlend mode="normal" in2="BackgroundImageFix" result="effect1_dropShadow_2054_1214"/>
<feBlend mode="normal" in="SourceGraphic" in2="effect1_dropShadow_2054_1214" result="shape"/>
</filter>
</defs>
</svg>
