<svg width="29" height="29" viewBox="0 0 29 29" fill="none" xmlns="http://www.w3.org/2000/svg">
<path d="M20.5052 0.10141C22.048 0.1742 23.1016 0.420411 24.0227 0.782332C24.9759 1.15382 25.7838 1.65234 26.5877 2.45912C27.3916 3.2659 27.8867 4.07442 28.2555 5.02911C28.6125 5.95218 28.8544 7.00662 28.9225 8.5503C28.9907 10.094 29.0058 10.5902 28.9982 14.5278C28.9907 18.4654 28.9733 18.959 28.8985 20.5059C28.8248 22.0484 28.5795 23.1017 28.2175 24.023C27.8455 24.9762 27.3475 25.7839 26.5405 26.5881C25.7334 27.3922 24.9254 27.8861 23.9684 28.2556C23.0462 28.612 21.9915 28.855 20.4481 28.9226C18.9047 28.9902 18.4079 29.0058 14.4714 28.9983C10.5349 28.9907 10.0393 28.9733 8.49271 28.9C6.94612 28.8266 5.89834 28.5795 4.97671 28.2193C4.02347 27.8464 3.21523 27.3493 2.41164 26.542C1.60804 25.7346 1.11329 24.9255 0.744701 23.9702C0.387417 23.048 0.144686 21.9933 0.0776939 20.4511C0.0101242 18.9033 -0.00582695 18.4092 0.00171471 14.4721C0.00925446 10.5351 0.0269432 10.0415 0.100313 8.4952C0.173685 6.94891 0.419317 5.89882 0.780952 4.97691C1.1536 4.02367 1.65096 3.2166 2.45775 2.41185C3.26454 1.6071 4.07422 1.11264 5.0292 0.744922C5.95199 0.387931 7.00616 0.14462 8.54955 0.0779198C10.0929 0.0112196 10.5897 -0.00589048 14.5277 0.00164954C18.4656 0.00918957 18.9586 0.0260096 20.5052 0.10141ZM20.3358 26.314C21.7496 26.2525 22.5173 26.0176 23.0288 25.821C23.7063 25.56 24.1888 25.2445 24.6987 24.7396C25.2085 24.2347 25.5217 23.7504 25.7862 23.0744C25.9848 22.5629 26.2241 21.7961 26.2902 20.3823C26.3621 18.8543 26.3772 18.3955 26.3856 14.5243C26.394 10.6531 26.3792 10.1949 26.3122 8.6663C26.2519 7.25371 26.0156 6.4852 25.8192 5.97393C25.5582 5.29562 25.2439 4.81393 24.7378 4.30439C24.2317 3.79486 23.7489 3.48108 23.0723 3.2166C22.5613 3.01708 21.7946 2.77986 20.3814 2.71258C18.8522 2.64008 18.394 2.62558 14.5233 2.61717C10.6527 2.60876 10.1933 2.62326 8.66352 2.69054C7.25092 2.75202 6.48212 2.98605 5.97142 3.18354C5.29369 3.44454 4.81141 3.75803 4.30188 4.26496C3.79234 4.77188 3.47827 5.25299 3.21379 5.93101C3.01398 6.44054 2.77675 7.20702 2.71005 8.62106C2.63726 10.1502 2.62073 10.6087 2.61377 14.4791C2.60681 18.3494 2.62044 18.8091 2.68743 20.3371C2.7492 21.7509 2.98352 22.5188 3.18044 23.0309C3.44144 23.7081 3.75609 24.1909 4.26244 24.7002C4.76878 25.2094 5.25106 25.5232 5.92792 25.7877C6.43833 25.9869 7.20597 26.2247 8.61799 26.292C10.1472 26.3639 10.6054 26.379 14.4775 26.3874C18.3496 26.3958 18.8064 26.3801 20.3356 26.314M8.51504 6.75026C8.5133 7.71133 7.73319 8.48911 6.77212 8.48737C5.81105 8.48563 5.03326 7.70553 5.03501 6.74446C5.03675 5.7834 5.81685 5.00562 6.77792 5.00736C6.77792 5.00736 6.77821 5.00736 6.7785 5.00736C7.73928 5.00939 8.51678 5.78949 8.51504 6.75026ZM21.9451 14.5145C21.937 18.6267 18.5973 21.9527 14.4859 21.9449C10.3745 21.937 7.04618 18.5977 7.054 14.4855C7.06183 10.3732 10.4024 7.04635 14.5143 7.05447C18.6263 7.06259 21.9529 10.4028 21.9451 14.5145ZM19.3333 14.5092C19.3385 11.8398 17.1789 9.67144 14.5094 9.66622C11.8399 9.661 9.67157 11.8206 9.66635 14.4901C9.66113 17.1596 11.8208 19.3279 14.4903 19.3331C17.1594 19.3386 19.3278 17.1796 19.3333 14.5104V14.5092Z" fill="black"/>
</svg>
