<svg width="36" height="35" viewBox="0 0 36 35" fill="none" xmlns="http://www.w3.org/2000/svg">
<path d="M24.9364 0.259618C26.7691 0.346081 28.0205 0.638539 29.1146 1.06844C30.2469 1.50971 31.2066 2.10186 32.1615 3.06019C33.1164 4.01851 33.7044 4.97891 34.1426 6.11291C34.5666 7.20937 34.8539 8.46188 34.9349 10.2955C35.0158 12.1291 35.0337 12.7185 35.0248 17.3958C35.0158 22.0731 34.9951 22.6593 34.9063 24.4968C34.8188 26.329 34.5273 27.5802 34.0974 28.6745C33.6555 29.8068 33.064 30.7662 32.1053 31.7214C31.1467 32.6766 30.1869 33.2633 29.0502 33.7021C27.9547 34.1255 26.7019 34.4142 24.8686 34.4944C23.0353 34.5747 22.4452 34.5933 17.7693 34.5843C13.0934 34.5754 12.5047 34.5547 10.6676 34.4676C8.83048 34.3804 7.58589 34.0869 6.49114 33.6591C5.35885 33.2161 4.3988 32.6257 3.44426 31.6666C2.48971 30.7076 1.90204 29.7465 1.46421 28.6119C1.03981 27.5164 0.751488 26.2636 0.671917 24.4317C0.591652 22.5932 0.572708 22.0062 0.581661 17.3297C0.590618 12.6531 0.611629 12.0668 0.698784 10.2301C0.785934 8.39333 1.07771 7.14599 1.50727 6.05091C1.94992 4.91862 2.5407 3.95995 3.49903 3.00404C4.45736 2.04812 5.41914 1.4608 6.55349 1.02401C7.64962 0.599958 8.90179 0.310945 10.7351 0.231716C12.5684 0.152487 13.1585 0.132163 17.8361 0.14112C22.5137 0.150076 23.0994 0.170055 24.9364 0.259618ZM24.7353 31.3959C26.4146 31.3229 27.3264 31.0438 27.9341 30.8103C28.7388 30.5003 29.312 30.1255 29.9176 29.5257C30.5232 28.926 30.8952 28.3507 31.2093 27.5478C31.4453 26.9401 31.7295 26.0293 31.808 24.35C31.8935 22.535 31.9114 21.99 31.9214 17.3917C31.9314 12.7933 31.9138 12.249 31.8342 10.4333C31.7626 8.75537 31.4818 7.84251 31.2486 7.23521C30.9386 6.42948 30.5652 5.85731 29.9641 5.25207C29.363 4.64683 28.7894 4.27411 27.9857 3.95995C27.3788 3.72295 26.468 3.44118 24.7894 3.36126C22.9729 3.27514 22.4287 3.25792 17.8309 3.24793C13.2332 3.23794 12.6876 3.25516 10.8705 3.33508C9.19252 3.40811 8.27932 3.6861 7.6727 3.92068C6.86766 4.23071 6.29479 4.60308 5.68955 5.20522C5.0843 5.80736 4.71124 6.37885 4.39708 7.18422C4.15973 7.78946 3.87795 8.69991 3.79872 10.3796C3.71226 12.196 3.69262 12.7406 3.68436 17.3379C3.67609 21.9353 3.69228 22.4813 3.77185 24.2963C3.84523 25.9756 4.12356 26.8878 4.35746 27.4961C4.66749 28.3004 5.04125 28.874 5.6427 29.4789C6.24416 30.0838 6.81702 30.4565 7.62103 30.7707C8.2273 31.0073 9.13913 31.2898 10.8164 31.3697C12.6328 31.4551 13.1771 31.473 17.7765 31.483C22.376 31.493 22.9185 31.4744 24.7349 31.3959M10.6941 8.15736C10.692 9.29895 9.76539 10.2228 8.62379 10.2208C7.4822 10.2187 6.55832 9.29206 6.56038 8.15047C6.56245 7.00889 7.48909 6.08501 8.63068 6.08708C8.63068 6.08708 8.63103 6.08708 8.63137 6.08708C9.77262 6.08949 10.6962 7.01612 10.6941 8.15736ZM26.6468 17.3799C26.6371 22.2646 22.6701 26.2153 17.7865 26.206C12.9029 26.1967 8.94932 22.2301 8.95862 17.3455C8.96793 12.4609 12.9359 8.50907 17.8203 8.51871C22.7046 8.52836 26.6561 12.496 26.6468 17.3799ZM23.5444 17.3737C23.5506 14.2029 20.9853 11.6272 17.8144 11.621C14.6435 11.6148 12.0679 14.1801 12.0617 17.351C12.0555 20.5219 14.6208 23.0975 17.7917 23.1037C20.9622 23.1103 23.5379 20.5457 23.5444 17.3751V17.3737Z" fill="black"/>
</svg>
