<svg width="266" height="137" viewBox="0 0 266 137" fill="none" xmlns="http://www.w3.org/2000/svg">
<path d="M52.2719 35.0662H70.3392L67.1225 52.4633H49.0552L52.2719 35.0662Z" fill="#1A1A1A"/>
<path d="M9.5429 69.7517H27.6102L24.3935 87.1489H6.32617L9.5429 69.7517Z" fill="#1A1A1A"/>
<path d="M3.21673 104.437H21.284L18.0673 121.835H0L3.21673 104.437Z" fill="#1A1A1A"/>
<path d="M16.1375 35.0662H34.2049L30.9881 52.4633H12.8672L16.0839 35.0662H16.1375ZM27.7714 69.8605H45.8387L49.0554 52.4633H30.9881L27.7714 69.8605ZM27.7714 69.8605H45.8387L49.0554 52.4633H30.9881L27.7714 69.8605ZM19.3543 17.669H37.4216L40.6383 0.271851H22.571L19.3543 17.669ZM19.3543 17.669H37.4216L40.6383 0.271851H22.571L19.3543 17.669ZM34.2049 35.0662H52.2722L55.4889 17.669H37.4216L34.2049 35.0662ZM34.2049 35.0662H52.2722L55.4889 17.669H37.4216L34.2049 35.0662ZM55.3817 17.669H73.449L76.6657 0.271851H58.5984L55.3817 17.669ZM21.2307 104.546H39.298L42.5147 87.1489H24.4474L21.2307 104.546ZM21.2307 104.546H39.298L42.5147 87.1489H24.4474L21.2307 104.546ZM42.4075 87.1489H60.4748L63.6916 69.7518H45.6242L42.4075 87.1489ZM42.4075 87.1489H60.4748L63.6916 69.7518H45.6242L42.4075 87.1489ZM36.1885 121.835H54.2558L57.4725 104.437H39.4052L36.1885 121.835ZM36.1885 121.835H54.2558L57.4725 104.437H39.4052L36.1885 121.835Z" fill="#1A1A1A"/>
<path d="M192.2 0.271851H172.256C171.238 5.0017 170.38 8.91607 169.254 14.2983H189.412C189.841 12.613 192.2 0.271851 192.2 0.271851Z" fill="#ED1F24"/>
<path d="M178.475 67.8489C181.692 51.7022 184.48 38.2194 188.554 18.5388H168.396C164.053 39.8503 162.659 46.483 158.317 67.8489H178.475Z" fill="#ED1F24"/>
<path d="M189.197 31.8043H195.524C194.612 36.8603 193.54 42.0251 192.628 46.9724C191.717 52.5721 189.626 59.6397 191.878 64.3696C192.789 65.7287 194.666 66.5986 196.06 67.0879C202.064 68.6645 210.589 67.849 217.29 67.1966C217.933 64.2608 219.274 56.3234 219.863 53.0614C217.773 52.9527 215.306 52.844 213.43 52.0285C212.197 51.3761 212.519 49.4189 212.519 48.549C213.644 42.8406 214.609 37.4583 215.735 31.8043H223.402C224.045 28.651 225.278 21.366 225.814 18.5389H218.309C218.845 16.0924 221.525 3.04457 222.062 0.326262V0.217529H211.554C209.034 4.24062 204.906 6.30654 200.724 7.50259C199.866 11.3082 199.062 14.8964 198.311 18.4846H191.771C191.449 20.4961 189.894 28.2705 189.197 31.8586V31.8043Z" fill="#ED1F24"/>
<path d="M144.485 102.643C145.611 96.9348 146.576 91.5526 147.702 85.8985H155.368C156.012 82.7453 157.245 75.4602 157.781 72.6332H150.275C150.811 70.1867 153.492 57.1388 154.028 54.4205V54.3118H143.52C141 58.3349 136.872 60.4008 132.69 61.5968C131.832 65.4025 131.028 68.9906 130.278 72.5788H123.737C123.415 74.5903 121.861 82.3647 121.164 85.9529H127.49C126.578 91.0089 125.506 96.1737 124.595 101.121C123.683 106.721 121.592 113.788 123.844 118.518C124.756 119.877 126.632 120.747 128.026 121.236C134.031 122.813 142.555 121.998 149.256 121.345C149.9 118.409 151.24 110.472 151.83 107.21C149.739 107.101 147.273 106.993 145.396 106.177C144.163 105.525 144.485 103.567 144.485 102.698V102.643Z" fill="#ED1F24"/>
<path d="M264.04 78.2873C259.966 70.7847 252.514 68.9907 242.917 69.8605C239.164 70.2955 236.376 72.1983 233.642 73.8836C233.642 72.7419 233.964 72.307 233.964 71.3284H215.575C211.339 92.4225 205.281 120.856 201.85 136.894H221.901C222.92 132.055 224.582 124.444 226.351 116.452C227.906 118.573 230.318 119.932 232.784 120.856C242.166 123.194 250.744 119.388 256.052 113.897C256.803 113.027 257.285 112.429 257.928 111.559C262.593 104.709 264.576 97.7504 265.005 94.3797C265.917 89.5411 265.863 81.9298 263.987 78.2329L264.04 78.2873ZM242.917 100.523C241.362 102.861 239.7 104.818 236.162 105.253C234.393 105.362 232.195 104.818 231.069 102.426C229.514 96.0106 231.927 90.4109 235.519 86.714C236.752 85.4636 238.735 85.1374 241.148 85.4636C242.166 85.6811 242.917 86.3335 243.721 86.9315L243.828 86.8228C246.509 90.9546 244.686 97.1523 242.917 100.523Z" fill="#ED1F24"/>
<path d="M186.678 69.6431C161.265 69.6431 154.617 90.4653 153.652 96.1194C152.687 101.719 151.24 122.215 174.936 122.215C198.633 122.215 208.176 106.014 210.053 93.8904C211.875 81.7667 205.71 69.6431 186.678 69.6431ZM189.519 94.9777C188.447 100.904 185.82 107.101 179.386 107.101C172.953 107.101 174.186 98.8377 174.936 94.7602C175.687 90.6828 179.065 84.2676 184.479 84.485C189.251 84.7025 190.591 88.9974 189.465 94.9777H189.519Z" fill="#ED1F24"/>
<path d="M121.217 75.7864L126.525 49.6363C126.525 49.6363 143.734 49.6363 151.508 44.8521C159.282 40.0678 165.608 31.7498 166.68 22.0183C167.699 12.2867 165.662 0 146.201 0H114.087L103.632 51.4847C103.632 51.4847 98.0568 51.3216 91.1944 52.6264C86.3693 53.3875 81.8659 54.8011 78.1666 56.8126C72.1085 59.9115 67.2834 66.3267 66.3183 74.3729C65.7822 78.2872 66.372 82.5822 69.4815 86.7684C75.6469 95.0864 88.5138 94.8689 93.0172 96.7174C97.5207 98.5658 102.024 103.785 93.607 106.286C85.1898 108.787 80.9009 104.437 80.6864 100.251H59.8313C59.8313 100.251 58.5982 112.701 68.6237 118.953C78.6492 125.205 98.9146 123.52 108.136 116.235C117.357 108.95 120.628 97.9678 118.966 92.3681C117.304 86.7684 113.872 82.6365 100.952 78.6678C88.0313 74.6991 88.6746 73.503 89.4788 71.3827C90.283 69.3168 93.3925 69.5343 95.2153 69.5343C97.0381 69.5343 100.308 70.1323 99.9332 75.7864H121.217ZM132.476 18.4845C132.476 18.4845 136.979 18.702 139.821 18.702C142.662 18.702 145.557 20.9853 145.128 24.5191C144.699 28.0529 140.41 30.5538 138.373 30.7712C136.336 30.9887 129.956 30.9887 129.956 30.9887L132.422 18.5389L132.476 18.4845Z" fill="#ED1F24"/>
</svg>
