<svg width="34" height="27" viewBox="0 0 34 27" fill="none" xmlns="http://www.w3.org/2000/svg">
<g clip-path="url(#clip0_2235_360)">
<path d="M32.535 5.18718C32.13 3.69507 31.05 2.55823 29.6325 2.13191C27.0675 1.42139 16.875 1.42139 16.875 1.42139C16.875 1.42139 6.68254 1.42139 4.11754 2.13191C2.70004 2.55823 1.62004 3.69507 1.21504 5.18718C0.540039 7.88718 0.540039 13.5003 0.540039 13.5003C0.540039 13.5003 0.540039 19.1135 1.21504 21.8135C1.62004 23.3056 2.70004 24.4424 4.11754 24.8688C6.68254 25.5793 16.875 25.5793 16.875 25.5793C16.875 25.5793 27.0675 25.5793 29.6325 24.8688C31.05 24.4424 32.13 23.3056 32.535 21.8135C33.21 19.1135 33.21 13.5003 33.21 13.5003C33.21 13.5003 33.21 7.88718 32.535 5.18718ZM13.5675 18.6161V8.38455L22.0725 13.5003L13.5675 18.6161Z" fill="black"/>
</g>
<defs>
<clipPath id="clip0_2235_360">
<rect width="33.75" height="27" fill="white"/>
</clipPath>
</defs>
</svg>
