<svg width="61" height="49" viewBox="0 0 61 49" fill="none" xmlns="http://www.w3.org/2000/svg">
<path d="M58.1136 9.23744C57.3917 6.57785 55.4667 4.5515 52.9401 3.79162C48.3681 2.52515 30.2006 2.52515 30.2006 2.52515C30.2006 2.52515 12.0331 2.52515 7.46115 3.79162C4.93454 4.5515 3.00951 6.57785 2.28762 9.23744C1.08447 14.05 1.08447 24.0551 1.08447 24.0551C1.08447 24.0551 1.08447 34.0602 2.28762 38.8728C3.00951 41.5324 4.93454 43.5588 7.46115 44.3187C12.0331 45.5851 30.2006 45.5851 30.2006 45.5851C30.2006 45.5851 48.3681 45.5851 52.9401 44.3187C55.4667 43.5588 57.3917 41.5324 58.1136 38.8728C59.3168 34.0602 59.3168 24.0551 59.3168 24.0551C59.3168 24.0551 59.3168 14.05 58.1136 9.23744ZM24.3052 33.1737V14.9366L39.4648 24.0551L24.3052 33.1737Z" fill="black"/>
</svg>
