<svg width="40" height="32" viewBox="0 0 40 32" fill="none" xmlns="http://www.w3.org/2000/svg">
<path d="M38.5601 6.14773C38.0801 4.37931 36.8001 3.03194 35.1201 2.52668C32.0801 1.68457 20.0001 1.68457 20.0001 1.68457C20.0001 1.68457 7.92014 1.68457 4.88014 2.52668C3.20014 3.03194 1.92014 4.37931 1.44014 6.14773C0.640137 9.34773 0.640137 16.0004 0.640137 16.0004C0.640137 16.0004 0.640137 22.653 1.44014 25.853C1.92014 27.6214 3.20014 28.9688 4.88014 29.474C7.92014 30.3161 20.0001 30.3161 20.0001 30.3161C20.0001 30.3161 32.0801 30.3161 35.1201 29.474C36.8001 28.9688 38.0801 27.6214 38.5601 25.853C39.3601 22.653 39.3601 16.0004 39.3601 16.0004C39.3601 16.0004 39.3601 9.34773 38.5601 6.14773ZM16.0801 22.0635V9.9372L26.1601 16.0004L16.0801 22.0635Z" fill="#1D1C1C"/>
</svg>
