<svg width="310" height="102" viewBox="0 0 310 102" fill="none" xmlns="http://www.w3.org/2000/svg">
<g clip-path="url(#clip0_59_651)">
<path d="M90.03 4.96999L116.72 1.61999C119.27 1.29999 122.17 1.09999 125.3 1.02999C148.1 0.519991 170.48 7.16999 189.56 19.66L212.35 34.58L239.08 37.15C251.6 38.36 261.14 48.88 261.14 61.45V80.52C261.14 82.51 259.53 84.13 257.53 84.13H238.85" stroke="black" stroke-width="2" stroke-linecap="square" stroke-linejoin="round"/>
<path d="M73.3601 85.37L52.8401 74.07C50.0401 72.48 48.3101 69.52 48.3101 66.3V38.99C48.3101 37.09 48.9101 35.24 50.0401 33.71L59.7301 20.49C61.0301 18.71 60.9901 16.28 59.6301 14.55L55.5001 9.30997L90.0401 4.96997" stroke="black" stroke-width="2" stroke-linecap="square" stroke-linejoin="round"/>
<path d="M193.3 84.1299H118.84" stroke="black" stroke-width="2" stroke-linecap="square" stroke-linejoin="round"/>
<path d="M215.95 100.58C229.072 100.58 239.71 89.9423 239.71 76.8201C239.71 63.6978 229.072 53.0601 215.95 53.0601C202.828 53.0601 192.19 63.6978 192.19 76.8201C192.19 89.9423 202.828 100.58 215.95 100.58Z" stroke="black" stroke-width="2" stroke-linecap="square" stroke-linejoin="round"/>
<path d="M96.23 100.58C109.352 100.58 119.99 89.9423 119.99 76.8201C119.99 63.6978 109.352 53.0601 96.23 53.0601C83.1077 53.0601 72.47 63.6978 72.47 76.8201C72.47 89.9423 83.1077 100.58 96.23 100.58Z" stroke="black" stroke-width="2" stroke-linecap="square" stroke-linejoin="round"/>
<path d="M298.12 84.8299C304.8 76.7699 308.74 66.8499 308.74 56.1099C308.74 45.3699 304.8 35.4499 298.12 27.3899" stroke="black" stroke-width="2" stroke-linecap="square" stroke-linejoin="round"/>
<path d="M288.65 75.3199C292.57 69.7399 294.83 63.1599 294.83 56.1099C294.83 49.0599 292.57 42.4899 288.65 36.8999" stroke="black" stroke-width="2" stroke-linecap="square" stroke-linejoin="round"/>
<path d="M278.48 66.17C280.06 63.1 280.94 59.7 280.94 56.11C280.94 52.52 280.06 49.11 278.48 46.04" stroke="black" stroke-width="2" stroke-linecap="square" stroke-linejoin="round"/>
<path d="M11.62 27.3899C4.94 35.4499 1 45.3699 1 56.1099C1 66.8499 4.94 76.7699 11.62 84.8299" stroke="black" stroke-width="2" stroke-linecap="square" stroke-linejoin="round"/>
<path d="M21.08 36.8999C17.16 42.4799 14.9 49.0599 14.9 56.1099C14.9 63.1599 17.16 69.7299 21.08 75.3199" stroke="black" stroke-width="2" stroke-linecap="square" stroke-linejoin="round"/>
<path d="M31.26 46.05C29.68 49.12 28.8 52.5201 28.8 56.1101C28.8 59.7001 29.68 63.11 31.26 66.18" stroke="black" stroke-width="2" stroke-linecap="square" stroke-linejoin="round"/>
</g>
<defs>
<clipPath id="clip0_59_651">
<rect width="309.74" height="101.58" fill="white"/>
</clipPath>
</defs>
</svg>
