<svg width="114" height="39" viewBox="0 0 114 39" fill="none" xmlns="http://www.w3.org/2000/svg">
<g clip-path="url(#clip0_2344_1915)">
<mask id="mask0_2344_1915" style="mask-type:luminance" maskUnits="userSpaceOnUse" x="0" y="0" width="114" height="39">
<path d="M113.559 0H0V39H113.559V0Z" fill="white"/>
</mask>
<g mask="url(#mask0_2344_1915)">
<path d="M93.7934 39H19.75C8.83917 39 0 30.2743 0 19.5C0 8.72568 8.83917 0 19.75 0H93.7934C104.704 0 113.559 8.72568 113.559 19.5C113.559 30.2743 104.704 39 93.7934 39Z" fill="black"/>
<path d="M96.7856 14.8413L94.2996 13.43L91.7828 12.0035C90.1102 11.0627 88.0385 12.2463 88.0385 14.1432V14.4619C88.0385 14.644 88.1306 14.7957 88.284 14.8868L89.4503 15.5545C89.7726 15.7366 90.1715 15.509 90.1715 15.1296V14.3708C90.1715 13.9915 90.5859 13.7638 90.9081 13.9459L93.21 15.251L95.4965 16.556C95.8188 16.7381 95.8188 17.2238 95.4965 17.4059L93.21 18.7109L90.9081 20.016C90.5859 20.1981 90.1715 19.9704 90.1715 19.5911V19.2117C90.1715 17.3148 88.0845 16.1311 86.4272 17.072L83.9105 18.4985L81.4244 19.9097C79.7517 20.8506 79.7517 23.2483 81.4244 24.1891L83.9105 25.6004L86.4272 27.0269C88.0999 27.9677 90.1715 26.7841 90.1715 24.8872V24.5685C90.1715 24.3864 90.0795 24.2346 89.926 24.1436L88.7597 23.4759C88.4375 23.2938 88.0385 23.5214 88.0385 23.9008V24.6595C88.0385 25.0389 87.6241 25.2666 87.3019 25.0845L85 23.7794L82.7135 22.4743C82.3912 22.2922 82.3912 21.8066 82.7135 21.6245L85 20.3195L87.3019 19.0144C87.6241 18.8323 88.0385 19.0599 88.0385 19.4393V19.8187C88.0385 21.7156 90.1255 22.8992 91.7828 21.9584L94.2996 20.5319L96.7856 19.1206C98.4583 18.1798 98.4583 15.7821 96.7856 14.8413Z" fill="white"/>
<path d="M80.4889 15.2965L74.6728 27.1483H72.2635L74.4426 22.7171L71.0205 15.2965H73.4912L75.6856 20.2739L78.0796 15.2965H80.4889Z" fill="white"/>
<path d="M22.3285 19.5152C22.3285 18.1039 21.2849 17.1023 20.0112 17.1023C18.7375 17.1023 17.694 18.1039 17.694 19.5152C17.694 20.9264 18.7375 21.928 20.0112 21.928C21.2849 21.928 22.3285 20.9416 22.3285 19.5152ZM22.3438 23.7187V22.6261C21.7146 23.3848 20.7785 23.8552 19.6429 23.8552C17.3104 23.8552 15.5303 22.0039 15.5303 19.5152C15.5303 17.0264 17.3718 15.1599 19.689 15.1599C22.0062 15.1599 21.6993 15.6303 22.3285 16.3739V15.3117H24.4308V23.7338H22.3285L22.3438 23.7187Z" fill="white"/>
<path d="M34.6504 21.8522C33.9138 21.8522 33.7143 21.579 33.7143 20.881V17.1479H35.0647V15.3117H33.7143V13.2631H31.5659V15.3117H28.8037V14.4771C28.8037 13.779 29.0799 13.5059 29.8318 13.5059H30.3076V11.8669H29.2794C27.4993 11.8669 26.6706 12.4436 26.6706 14.1887V15.3117H25.4736V17.1479H26.6706V23.7339H28.819V17.1479H31.5813V21.2755C31.5813 22.9903 32.2411 23.7339 33.9905 23.7339H35.0954V21.8673H34.6658L34.6504 21.8522Z" fill="white"/>
<path d="M42.354 18.7564C42.2005 17.6638 41.2951 17.0112 40.2363 17.0112C39.1774 17.0112 38.3027 17.6486 38.0879 18.7564H42.354ZM38.0725 20.0766C38.226 21.321 39.1314 22.0342 40.267 22.0342C41.4026 22.0342 41.8783 21.6093 42.2773 20.9416H44.4871C43.9806 22.7322 42.354 23.8704 40.2209 23.8704C38.0879 23.8704 35.832 22.0797 35.832 19.5455C35.832 17.0112 37.7349 15.175 40.267 15.175C42.799 15.175 44.6559 17.0264 44.6559 19.5455C44.6559 22.0645 44.6405 19.9097 44.6098 20.0918H38.0725V20.0766Z" fill="white"/>
<path d="M58.3293 19.5152C58.3293 18.1494 57.2858 17.1023 56.0121 17.1023C54.7384 17.1023 53.6949 18.1191 53.6949 19.5152C53.6949 20.9113 54.7384 21.928 56.0121 21.928C57.2858 21.928 58.3293 20.8809 58.3293 19.5152ZM51.5771 27.1634V15.3117H53.6795V16.4043C54.3087 15.6303 55.2448 15.1599 56.3804 15.1599C58.6822 15.1599 60.4931 17.0264 60.4931 19.5C60.4931 21.9735 58.6516 23.8552 56.3343 23.8552C54.0171 23.8552 54.3701 23.4303 53.7562 22.7323V27.1634H51.5771Z" fill="white"/>
<path d="M68.0433 19.5152C68.0433 18.1039 66.9998 17.1023 65.7261 17.1023C64.4524 17.1023 63.4089 18.1039 63.4089 19.5152C63.4089 20.9264 64.4524 21.928 65.7261 21.928C66.9998 21.928 68.0433 20.9416 68.0433 19.5152ZM68.0586 23.7187V22.6261C67.4295 23.3848 66.4934 23.8552 65.3578 23.8552C63.0252 23.8552 61.2451 22.0039 61.2451 19.5152C61.2451 17.0264 63.0866 15.1599 65.4038 15.1599C67.721 15.1599 67.4141 15.6303 68.0433 16.3739V15.3117H70.1457V23.7338H68.0433L68.0586 23.7187Z" fill="white"/>
<path d="M47.7869 16.1311C47.7869 16.1311 48.324 15.1599 49.6284 15.1599C50.9328 15.1599 50.5492 15.3572 50.5492 15.3572V17.4969C50.5492 17.4969 49.7512 17.0113 49.03 17.1175C48.3087 17.2237 47.8483 17.8763 47.8483 18.7564V23.7338H45.6846V15.3117H47.7869V16.1311Z" fill="white"/>
</g>
</g>
<defs>
<clipPath id="clip0_2344_1915">
<rect width="113.559" height="39" fill="white"/>
</clipPath>
</defs>
</svg>
