<svg width="124" height="112" viewBox="0 0 124 112" fill="none" xmlns="http://www.w3.org/2000/svg">
<g clip-path="url(#clip0_87_226)">
<path d="M118.71 32.5801V94.0201" stroke="black" stroke-width="2" stroke-linecap="square" stroke-linejoin="round"/>
<path d="M4.80005 94.0201V32.5801" stroke="black" stroke-width="2" stroke-linecap="square" stroke-linejoin="round"/>
<path d="M4.08 19.28H119.43C121.13 19.28 122.51 20.66 122.51 22.36V28.86C122.51 30.56 121.13 31.94 119.43 31.94H4.08C2.38 31.94 1 30.56 1 28.86V22.36C1 20.66 2.38 19.28 4.08 19.28Z" stroke="black" stroke-width="2" stroke-linecap="square" stroke-linejoin="round"/>
<path d="M122.51 98.8201V107.21C122.51 108.98 121.38 110.42 119.99 110.42H3.53001C2.14001 110.42 1.01001 108.98 1.01001 107.21V98.8201C1.01001 97.0501 2.14001 95.6101 3.53001 95.6101H119.99C121.38 95.6101 122.51 97.0501 122.51 98.8201Z" stroke="black" stroke-width="2" stroke-linecap="square" stroke-linejoin="round"/>
<path d="M26.7001 10.1201V2.17006C26.7001 1.56006 26.2001 1.06006 25.5901 1.06006H16.1701C15.5601 1.06006 15.0601 1.56006 15.0601 2.17006V10.1201" stroke="black" stroke-width="2" stroke-linecap="square" stroke-linejoin="round"/>
<path d="M39.72 18.1V4.3C39.72 2.48 40.84 1 42.23 1H81.2C82.59 1 83.71 2.48 83.71 4.3V18.1" stroke="black" stroke-width="2" stroke-linecap="square" stroke-linejoin="round"/>
<path d="M55.65 46.6899L69.94 46.6599L65.75 58.4699H76.29L60.01 83.6599V67.7599H52.74L55.65 46.6899Z" stroke="black" stroke-width="1.64" stroke-linecap="square" stroke-linejoin="round"/>
<path d="M21.6899 40.97V52.62" stroke="black" stroke-width="2" stroke-linecap="square" stroke-linejoin="round"/>
<path d="M27.5101 46.79H15.8701" stroke="black" stroke-width="2" stroke-linecap="square" stroke-linejoin="round"/>
<path d="M108.33 46.79H96.6799" stroke="black" stroke-width="2" stroke-linecap="square" stroke-linejoin="round"/>
<path d="M9.61011 17.8801V12.9001C9.61011 11.6301 10.6401 10.6001 11.9101 10.6001H29.7101C30.9801 10.6001 32.0101 11.6301 32.0101 12.9001V17.8801" stroke="black" stroke-width="2" stroke-linecap="square" stroke-linejoin="round"/>
<path d="M108.8 10.1201V2.17006C108.8 1.56006 108.3 1.06006 107.69 1.06006H98.2699C97.6599 1.06006 97.1599 1.56006 97.1599 2.17006V10.1201" stroke="black" stroke-width="2" stroke-linecap="square" stroke-linejoin="round"/>
<path d="M91.71 17.8801V12.9001C91.71 11.6301 92.74 10.6001 94.01 10.6001H111.81C113.08 10.6001 114.11 11.6301 114.11 12.9001V17.8801" stroke="black" stroke-width="2" stroke-linecap="square" stroke-linejoin="round"/>
</g>
<defs>
<clipPath id="clip0_87_226">
<rect width="123.51" height="111.42" fill="white"/>
</clipPath>
</defs>
</svg>
