<svg width="120" height="120" viewBox="0 0 120 120" fill="none" xmlns="http://www.w3.org/2000/svg">
<g clip-path="url(#clip0_87_207)">
<path d="M110.58 59.3899C110.68 60.7699 110.74 62.1499 110.74 63.5399" stroke="black" stroke-width="2" stroke-linecap="square" stroke-linejoin="round"/>
<path d="M110.74 63.5399C110.74 77.5799 105.38 91.6199 94.6701 102.34C73.2401 123.77 38.5001 123.77 17.0701 102.34C-4.35994 80.9099 -4.35994 46.1699 17.0701 24.7399C27.7801 14.0299 41.8301 8.66992 55.8701 8.66992" stroke="black" stroke-width="2" stroke-linecap="square" stroke-linejoin="round"/>
<path d="M55.8701 91.06C71.069 91.06 83.3901 78.7389 83.3901 63.54C83.3901 48.3411 71.069 36.02 55.8701 36.02C40.6712 36.02 28.3501 48.3411 28.3501 63.54C28.3501 78.7389 40.6712 91.06 55.8701 91.06Z" stroke="black" stroke-width="2" stroke-linecap="square" stroke-linejoin="round"/>
<path d="M55.87 72.6599C60.9068 72.6599 64.99 68.5768 64.99 63.5399C64.99 58.5031 60.9068 54.4199 55.87 54.4199C50.8332 54.4199 46.75 58.5031 46.75 63.5399C46.75 68.5768 50.8332 72.6599 55.87 72.6599Z" stroke="black" stroke-width="2" stroke-linecap="square" stroke-linejoin="round"/>
<path d="M95.95 51.92C96.49 53.02 97.71 53.61 98.91 53.36L116.26 49.79C118.08 49.42 118.98 47.36 118.03 45.77L110.97 33.91L112.68 32.2C114.55 30.33 114.84 27.4 113.37 25.2C108.31 17.61 101.79 11.1 94.2 6.03001C92 4.56001 89.07 4.85001 87.2 6.72001L85.49 8.43001L73.63 1.37001C72.04 0.420009 69.98 1.33001 69.61 3.14001L66.04 20.49C65.79 21.69 66.39 22.9 67.48 23.45C79.82 29.57 89.82 39.57 95.94 51.91L95.95 51.92Z" stroke="black" stroke-width="2" stroke-linecap="square" stroke-linejoin="round"/>
<path d="M93.1799 31.7799C96.2451 31.7799 98.7299 29.2951 98.7299 26.2299C98.7299 23.1648 96.2451 20.6799 93.1799 20.6799C90.1147 20.6799 87.6299 23.1648 87.6299 26.2299C87.6299 29.2951 90.1147 31.7799 93.1799 31.7799Z" stroke="black" stroke-width="2" stroke-linecap="square" stroke-linejoin="round"/>
</g>
<defs>
<clipPath id="clip0_87_207">
<rect width="119.41" height="119.41" fill="white"/>
</clipPath>
</defs>
</svg>
