<svg width="188" height="105" viewBox="0 0 188 105" fill="none" xmlns="http://www.w3.org/2000/svg">
<g clip-path="url(#clip0_87_266)">
<path d="M144.63 33.3199H132.94C130.59 33.3199 128.39 32.1599 127.07 30.2099L124.22 26.0099C122.9 24.0699 120.7 22.8999 118.35 22.8999H63.6501C61.3401 22.8999 59.1101 23.7999 57.4501 25.3999L51.8201 30.8199C50.1501 32.4199 47.9301 33.3199 45.6201 33.3199H38.4201C35.1801 33.3199 32.5601 35.9399 32.5601 39.1799V81.2399C32.5601 84.4799 35.1801 87.0999 38.4201 87.0999H57.8501C59.3401 87.0999 60.7801 87.5699 61.9901 88.4299L81.2901 102.29C82.5001 103.16 83.9401 103.62 85.4301 103.62H144.64C146.46 103.62 147.93 102.14 147.93 100.33V36.6199C147.93 34.7999 146.46 33.3299 144.64 33.3299L144.63 33.3199Z" stroke="black" stroke-width="2" stroke-linecap="square" stroke-linejoin="round"/>
<path d="M147.92 46.1599H164.36" stroke="black" stroke-width="2" stroke-linecap="square" stroke-linejoin="round"/>
<path d="M164.36 86.9099H147.92" stroke="black" stroke-width="2" stroke-linecap="square" stroke-linejoin="round"/>
<path d="M165.62 33.77H174.82C181.18 33.77 186.34 38.93 186.34 45.29V87.76C186.34 94.12 181.18 99.28 174.82 99.28H165.62V33.77Z" stroke="black" stroke-width="2" stroke-linecap="square" stroke-linejoin="round"/>
<path d="M17.27 48.6399H32.27" stroke="black" stroke-width="2" stroke-linecap="square" stroke-linejoin="round"/>
<path d="M31.35 69.71H17.27" stroke="black" stroke-width="2" stroke-linecap="square" stroke-linejoin="round"/>
<path d="M17.27 69.7099V85.1599H1V33.1899H17.27V69.7099Z" stroke="black" stroke-width="2" stroke-linecap="square" stroke-linejoin="round"/>
<path d="M97.8402 21.35V14.05H115.7C118.77 14.05 121.25 11.57 121.25 8.5V6.55C121.25 3.48 118.77 1 115.7 1H64.7702C61.7002 1 59.2202 3.48 59.2202 6.55V8.5C59.2202 11.57 61.7002 14.05 64.7702 14.05H82.6302V21.35" stroke="black" stroke-width="2" stroke-linecap="square" stroke-linejoin="round"/>
<path d="M80.6699 35.1999L101.63 35.1499L95.4899 52.4799H110.95L87.0599 89.4599V66.1199H76.3999L80.6699 35.1999Z" stroke="black" stroke-width="2" stroke-linecap="square" stroke-linejoin="round"/>
</g>
<defs>
<clipPath id="clip0_87_266">
<rect width="187.35" height="104.62" fill="white"/>
</clipPath>
</defs>
</svg>
