<svg width="294" height="58" viewBox="0 0 294 58" fill="none" xmlns="http://www.w3.org/2000/svg">
<path d="M33.7174 16.473C41.9614 16.4849 45.2637 23.5691 45.2637 26.187L20.5358 26.1314C21.8488 20.9115 26.5875 16.4571 33.7333 16.469H33.7214L33.7174 16.473ZM53.3406 45.4167H34.5808L34.541 45.4444C23.7148 44.9446 20.3289 36.6744 20.3289 36.6744L57.6177 36.7538C59.6628 26.9327 55.6562 16.4055 46.708 10.5906C41.7545 7.36583 36.0967 6.12431 30.6299 6.62409L27.7732 12.9269H20.8183L17.8939 19.3646H10.9391C4.49748 30.808 7.94706 45.4206 19.1393 52.6913C30.4548 60.0571 48.387 57.2647 53.3406 45.4206" fill="#E14731"/>
<path d="M12.8043 0L9.87988 6.43766H16.8387L16.9581 6.15207L19.7472 0H12.8043Z" fill="#221F20"/>
<path d="M26.7059 0L23.9168 6.15207H23.8213L23.686 6.43766H30.6409L33.5653 0H26.7059Z" fill="#221F20"/>
<path d="M6.91432 12.9269L4.00586 19.3764H10.9368L13.8572 12.9269H6.91432Z" fill="#221F20"/>
<path d="M16.7833 6.48926L13.8589 12.9269H16.1188H20.8177L22.7514 8.64704L23.7262 6.48926H16.7833Z" fill="#221F20"/>
<path d="M2.92438 6.44958L0 12.8991H6.91506L9.81159 6.48925H9.85138L9.87923 6.44958H2.92438Z" fill="#221F20"/>
<path d="M50.2109 3.99393V5.12836C50.2109 5.60037 50.4536 6.02083 50.8475 6.27468C59.2268 11.7128 64.7612 21.1174 64.7612 31.831C64.7612 42.5445 58.9403 52.4212 50.2109 57.78H264.793C280.437 57.78 293.121 45.1387 293.121 29.5383V2.60168H51.6075C50.8356 2.60168 50.2149 3.22443 50.2149 3.98997" fill="#D19C2D"/>
<path d="M74.9667 40.204H71.1113V14.7429H74.9667V40.204Z" fill="white"/>
<path d="M80.2549 17.3132C80.2549 16.627 80.4419 16.0955 80.8199 15.7266C81.1979 15.3577 81.735 15.1713 82.4352 15.1713C83.1355 15.1713 83.6408 15.3577 84.0188 15.7266C84.3968 16.0994 84.5838 16.627 84.5838 17.3132C84.5838 17.9994 84.3968 18.4833 84.0188 18.8601C83.6408 19.2369 83.1116 19.4234 82.4352 19.4234C81.7589 19.4234 81.1979 19.2369 80.8199 18.8601C80.4419 18.4833 80.2549 17.9677 80.2549 17.3132ZM84.3411 40.204H80.4857V22.1047H84.3411V40.204Z" fill="white"/>
<path d="M96.6184 37.4235C97.5613 37.4235 98.5003 37.2768 99.4433 36.9832V39.8788C99.0175 40.0652 98.4645 40.2199 97.7921 40.3468C97.1197 40.4738 96.4234 40.5333 95.6993 40.5333C92.0428 40.5333 90.2166 38.6135 90.2166 34.7739V25.0202H87.7378V23.3186L90.3956 21.9105L91.7086 18.0828H94.0879V22.1088H99.2563V25.0202H94.0879V34.7065C94.0879 35.6346 94.3186 36.3169 94.7842 36.7611C95.2497 37.2014 95.8584 37.4235 96.6144 37.4235H96.6184Z" fill="white"/>
<path d="M110.995 40.5332C108.17 40.5332 105.966 39.7121 104.37 38.07C102.779 36.4278 101.983 34.1669 101.983 31.2872C101.983 28.4075 102.723 26.0078 104.199 24.3181C105.675 22.6283 107.704 21.7834 110.287 21.7834C112.682 21.7834 114.576 22.5093 115.964 23.9611C117.353 25.4128 118.049 27.408 118.049 29.9505V32.029H105.954C106.009 33.7861 106.483 35.1348 107.382 36.0788C108.281 37.0228 109.543 37.4948 111.174 37.4948C112.248 37.4948 113.247 37.3957 114.17 37.1934C115.093 36.9911 116.088 36.6579 117.15 36.1859V39.3115C116.207 39.7597 115.256 40.0731 114.293 40.2595C113.33 40.4459 112.232 40.5372 110.995 40.5372V40.5332ZM110.291 24.6949C109.065 24.6949 108.082 25.0836 107.346 25.8571C106.606 26.6305 106.169 27.761 106.025 29.2445H114.265C114.241 27.7491 113.883 26.6186 113.183 25.8491C112.483 25.0796 111.52 24.6949 110.295 24.6949H110.291Z" fill="white"/>
</svg>
