<svg width="294" height="58" viewBox="0 0 294 58" fill="none" xmlns="http://www.w3.org/2000/svg">
<path d="M33.7174 16.473C41.9614 16.4849 45.2637 23.5691 45.2637 26.187L20.5358 26.1314C21.8488 20.9115 26.5875 16.4571 33.7333 16.469H33.7214L33.7174 16.473ZM53.3406 45.4167H34.5808L34.541 45.4444C23.7148 44.9446 20.3289 36.6744 20.3289 36.6744L57.6177 36.7538C59.6628 26.9327 55.6562 16.4055 46.708 10.5906C41.7545 7.36583 36.0967 6.12431 30.6299 6.62409L27.7732 12.9269H20.8183L17.8939 19.3646H10.9391C4.49748 30.808 7.94706 45.4206 19.1393 52.6913C30.4548 60.0571 48.387 57.2647 53.3406 45.4206" fill="#E14731"/>
<path d="M12.8043 0L9.87988 6.43766H16.8387L16.9581 6.15207L19.7472 0H12.8043Z" fill="#221F20"/>
<path d="M26.7059 0L23.9168 6.15207H23.8213L23.686 6.43766H30.6409L33.5653 0H26.7059Z" fill="#221F20"/>
<path d="M6.91432 12.9269L4.00586 19.3764H10.9368L13.8572 12.9269H6.91432Z" fill="#221F20"/>
<path d="M16.7833 6.48926L13.8589 12.9269H16.1188H20.8177L22.7514 8.64704L23.7262 6.48926H16.7833Z" fill="#221F20"/>
<path d="M2.92438 6.44958L0 12.8991H6.91506L9.81159 6.48925H9.85138L9.87923 6.44958H2.92438Z" fill="#221F20"/>
<path d="M50.2109 3.99393V5.12836C50.2109 5.60037 50.4536 6.02083 50.8475 6.27468C59.2268 11.7128 64.7612 21.1174 64.7612 31.831C64.7612 42.5445 58.9403 52.4212 50.2109 57.78H264.793C280.437 57.78 293.121 45.1387 293.121 29.5383V2.60168H51.6075C50.8356 2.60168 50.2149 3.22443 50.2149 3.98997" fill="#4B276C"/>
<path d="M84.0567 39.8299L83.5165 37.4938H83.3179C82.7817 38.322 82.019 38.9705 81.0339 39.4432C80.0448 39.9158 78.9167 40.1541 77.6496 40.1541C75.453 40.1541 73.8164 39.615 72.732 38.5447C71.6476 37.4743 71.1113 35.8414 71.1113 33.6616V22.0088H74.9961V32.9976C74.9961 34.3609 75.2782 35.3844 75.8502 36.068C76.4182 36.7516 77.308 37.0915 78.5195 37.0915C80.1362 37.0915 81.3239 36.6149 82.0826 35.6656C82.8413 34.7164 83.2226 33.1226 83.2226 30.8881V22.0088H87.0915V39.8299H84.0607H84.0567Z" fill="white"/>
<path d="M101.774 21.6846C102.548 21.6846 103.188 21.7393 103.692 21.8447L103.315 25.3722C102.767 25.2433 102.199 25.1769 101.611 25.1769C100.07 25.1769 98.8224 25.673 97.8651 26.6614C96.9078 27.6497 96.4311 28.9349 96.4311 30.5131V39.826H92.582V22.0049H95.5969L96.1054 25.1457H96.304C96.9038 24.0831 97.6903 23.2393 98.6555 22.6143C99.6208 21.9932 100.662 21.6807 101.778 21.6807L101.774 21.6846Z" fill="white"/>
<path d="M123.124 30.8881C123.124 33.7984 122.365 36.0719 120.848 37.7048C119.33 39.3377 117.217 40.1541 114.508 40.1541C112.816 40.1541 111.318 39.7791 110.019 39.0252C108.72 38.2751 107.719 37.1931 107.02 35.7868C106.321 34.3804 105.972 32.7476 105.972 30.8881C105.972 27.9973 106.726 25.7433 108.232 24.1183C109.737 22.4971 111.862 21.6846 114.607 21.6846C117.352 21.6846 119.306 22.5127 120.836 24.173C122.365 25.8332 123.132 28.0716 123.132 30.8842L123.124 30.8881ZM109.932 30.8881C109.932 35.0016 111.477 37.0602 114.568 37.0602C117.658 37.0602 119.155 35.0016 119.155 30.8881C119.155 26.7746 117.614 24.7824 114.536 24.7824C112.919 24.7824 111.747 25.3097 111.02 26.3606C110.293 27.4153 109.932 28.9232 109.932 30.8881Z" fill="white"/>
<path d="M143.572 40.1541C140.832 40.1541 138.746 39.3689 137.32 37.7947C135.894 36.2204 135.183 33.9625 135.183 31.017C135.183 28.0716 135.93 25.716 137.419 24.1026C138.909 22.4893 141.066 21.6846 143.882 21.6846C145.793 21.6846 147.513 22.0322 149.046 22.7315L147.882 25.7785C146.254 25.1574 144.911 24.8449 143.85 24.8449C140.716 24.8449 139.147 26.8918 139.147 30.9858C139.147 32.9858 139.537 34.4859 140.319 35.4899C141.102 36.4938 142.246 36.9977 143.751 36.9977C145.467 36.9977 147.088 36.5798 148.617 35.7399V39.0447C147.93 39.4432 147.195 39.7283 146.413 39.9002C145.63 40.0721 144.685 40.158 143.568 40.158L143.572 40.1541Z" fill="white"/>
<path d="M164.22 39.8299L163.45 37.3493H163.319C162.445 38.4353 161.567 39.1736 160.681 39.5643C159.795 39.9549 158.659 40.1541 157.273 40.1541C155.493 40.1541 154.103 39.6815 153.102 38.7361C152.101 37.7907 151.604 36.4548 151.604 34.7242C151.604 32.8882 152.3 31.5014 153.686 30.5678C155.072 29.6341 157.185 29.1224 160.026 29.0365L163.156 28.9388V27.9895C163.156 26.8489 162.886 26.0012 162.345 25.4347C161.805 24.8722 160.967 24.587 159.831 24.587C158.901 24.587 158.012 24.7199 157.162 24.9894C156.312 25.2589 155.489 25.5754 154.703 25.9387L153.46 23.2315C154.441 22.7276 155.517 22.3409 156.689 22.0791C157.861 21.8174 158.961 21.6846 159.998 21.6846C162.302 21.6846 164.041 22.1768 165.217 23.1651C166.393 24.1534 166.977 25.7043 166.977 27.8216V39.826H164.224L164.22 39.8299ZM158.484 37.2517C159.883 37.2517 161.007 36.8688 161.853 36.0993C162.699 35.3297 163.124 34.2554 163.124 32.8687V31.3217L160.796 31.4194C158.981 31.4858 157.662 31.7827 156.84 32.3139C156.014 32.8452 155.601 33.6578 155.601 34.7555C155.601 35.5524 155.839 36.1657 156.323 36.5993C156.804 37.0329 157.527 37.2517 158.488 37.2517H158.484Z" fill="white"/>
<path d="M181.543 21.6846C182.318 21.6846 182.957 21.7393 183.462 21.8447L183.084 25.3722C182.536 25.2433 181.968 25.1769 181.38 25.1769C179.839 25.1769 178.592 25.673 177.635 26.6614C176.677 27.6497 176.201 28.9349 176.201 30.5131V39.826H172.352V22.0049H175.366L175.875 25.1457H176.074C176.673 24.0831 177.46 23.2393 178.425 22.6143C179.39 21.9932 180.431 21.6807 181.547 21.6807L181.543 21.6846Z" fill="white"/>
<path d="M198.992 34.7555C198.992 36.4977 198.349 37.8298 197.058 38.7595C195.767 39.6893 193.924 40.1541 191.52 40.1541C189.117 40.1541 187.167 39.7947 185.705 39.076V35.8024C187.834 36.7712 189.816 37.2517 191.652 37.2517C194.023 37.2517 195.207 36.5485 195.207 35.1422C195.207 34.693 195.076 34.314 194.813 34.0132C194.551 33.7124 194.118 33.3999 193.518 33.0796C192.919 32.7554 192.081 32.3921 191.012 31.9858C188.927 31.1889 187.512 30.3959 186.778 29.599C186.043 28.8021 185.673 27.7747 185.673 26.5051C185.673 24.9816 186.297 23.794 187.548 22.9503C188.799 22.1065 190.5 21.6846 192.653 21.6846C194.805 21.6846 196.799 22.1104 198.698 22.9581L197.451 25.8098C195.497 25.0128 193.852 24.6183 192.517 24.6183C190.484 24.6183 189.471 25.1886 189.471 26.3254C189.471 26.884 189.737 27.3567 190.265 27.7434C190.794 28.1302 191.949 28.6614 193.729 29.3373C195.226 29.9076 196.311 30.4271 196.99 30.8998C197.669 31.3725 198.17 31.9194 198.5 32.5366C198.825 33.1538 198.992 33.8921 198.992 34.7516V34.7555Z" fill="white"/>
</svg>
