<svg width="294" height="58" viewBox="0 0 294 58" fill="none" xmlns="http://www.w3.org/2000/svg">
<path d="M33.7174 16.473C41.9614 16.4849 45.2637 23.5691 45.2637 26.187L20.5358 26.1314C21.8488 20.9115 26.5875 16.4571 33.7333 16.469H33.7214L33.7174 16.473ZM53.3406 45.4167H34.5808L34.541 45.4444C23.7148 44.9446 20.3289 36.6744 20.3289 36.6744L57.6177 36.7538C59.6628 26.9327 55.6562 16.4055 46.708 10.5906C41.7545 7.36583 36.0967 6.12431 30.6299 6.62409L27.7732 12.9269H20.8183L17.8939 19.3646H10.9391C4.49748 30.808 7.94706 45.4206 19.1393 52.6913C30.4548 60.0571 48.387 57.2647 53.3406 45.4206" fill="#E14731"/>
<path d="M12.8043 0L9.87988 6.43766H16.8387L16.9581 6.15207L19.7472 0H12.8043Z" fill="#221F20"/>
<path d="M26.7059 0L23.9168 6.15207H23.8213L23.686 6.43766H30.6409L33.5653 0H26.7059Z" fill="#221F20"/>
<path d="M6.91432 12.9269L4.00586 19.3764H10.9368L13.8572 12.9269H6.91432Z" fill="#221F20"/>
<path d="M16.7833 6.48938L13.8589 12.927H16.1188H20.8177L22.7514 8.64717L23.7262 6.48938H16.7833Z" fill="#221F20"/>
<path d="M2.92438 6.44958L0 12.8991H6.91506L9.81159 6.48925H9.85138L9.87923 6.44958H2.92438Z" fill="#221F20"/>
<path d="M50.2109 3.99393V5.12836C50.2109 5.60037 50.4536 6.02083 50.8475 6.27468C59.2268 11.7128 64.7612 21.1174 64.7612 31.831C64.7612 42.5445 58.9403 52.4212 50.2109 57.78H264.793C280.437 57.78 293.121 45.1387 293.121 29.5383V2.60168H51.6075C50.8356 2.60168 50.2149 3.22443 50.2149 3.98997" fill="#0D4E98"/>
<path d="M80.1232 40.4374C77.2983 40.4374 75.0941 39.6163 73.4986 37.9742C71.9071 36.332 71.1113 34.0711 71.1113 31.1914C71.1113 28.3117 71.8514 25.912 73.3275 24.2222C74.8036 22.5325 76.8328 21.6876 79.415 21.6876C81.8102 21.6876 83.7041 22.4135 85.0927 23.8652C86.4812 25.317 87.1775 27.3121 87.1775 29.8547V31.9331H75.0821C75.1378 33.6903 75.6113 35.0389 76.5105 35.983C77.4097 36.927 78.671 37.399 80.3022 37.399C81.3765 37.399 82.3752 37.2998 83.2982 37.0976C84.2213 36.8953 85.216 36.5621 86.2783 36.0901V39.2157C85.3354 39.6639 84.3844 39.9772 83.4216 40.1637C82.4587 40.3501 81.3606 40.4413 80.1232 40.4413V40.4374ZM79.419 24.599C78.1935 24.599 77.2108 24.9878 76.4747 25.7612C75.7346 26.5347 75.297 27.6652 75.1537 29.1486H83.3937C83.3699 27.6533 83.0118 26.5228 82.3115 25.7533C81.6112 24.9838 80.6484 24.599 79.4229 24.599H79.419Z" fill="white"/>
<path d="M95.7003 40.1121L88.8052 22.0168H92.8754L96.5677 32.54C97.2003 34.3091 97.5863 35.737 97.7176 36.8278H97.8489C97.9483 36.0425 98.3303 34.6145 98.9987 32.54L102.691 22.0168H106.793L99.8661 40.1121H95.6964H95.7003Z" fill="white"/>
</svg>
