<svg width="93" height="146" viewBox="0 0 93 146" fill="none" xmlns="http://www.w3.org/2000/svg">
<g clip-path="url(#clip0_87_286)">
<path d="M60.2064 10.5319L7.96533 62.7729L38.7952 93.6028L91.0362 41.3618L60.2064 10.5319Z" stroke="black" stroke-width="2" stroke-miterlimit="10"/>
<path d="M30.4199 124.06C30.3699 124.11 30.3199 124.16 30.2699 124.21L30.1799 124.3L10.4399 144.04L1.41992 135.02L21.2799 115.16C22.3099 114.13 22.6499 113.59 22.7499 113.3C22.6799 113.15 22.4799 112.86 22.0699 112.45L10.5299 100.91C8.89992 99.28 6.91992 97.01 6.09992 93.88C5.45992 91.46 5.10992 86.67 9.91992 81.86L18.5299 73.25L27.5499 82.27L18.9399 90.88C18.8799 90.94 18.8199 91 18.7699 91.05C18.9399 91.25 19.1899 91.52 19.5399 91.88L31.0799 103.42C34.7499 107.09 35.5199 110.8 35.5099 113.27C35.5099 118.77 31.8399 122.61 30.4099 124.04L30.4199 124.06Z" stroke="black" stroke-width="2" stroke-miterlimit="10"/>
<path d="M77.4212 1.41789L64.262 14.5771L73.2846 23.5998L86.4439 10.4406L77.4212 1.41789Z" stroke="black" stroke-width="2" stroke-miterlimit="10"/>
</g>
<defs>
<clipPath id="clip0_87_286">
<rect width="92.45" height="145.46" fill="white"/>
</clipPath>
</defs>
</svg>
