<svg width="294" height="58" viewBox="0 0 294 58" fill="none" xmlns="http://www.w3.org/2000/svg">
<path d="M33.7174 16.4729C41.9614 16.4848 45.2637 23.569 45.2637 26.1869L20.5358 26.1314C21.8488 20.9114 26.5875 16.457 33.7333 16.4689H33.7214L33.7174 16.4729ZM53.3406 45.4166H34.5808L34.541 45.4444C23.7148 44.9446 20.3289 36.6744 20.3289 36.6744L57.6177 36.7537C59.6628 26.9326 55.6562 16.4055 46.708 10.5906C41.7545 7.36577 36.0967 6.12425 30.6299 6.62403L27.7732 12.9268H20.8183L17.8939 19.3645H10.9391C4.49748 30.8079 7.94706 45.4206 19.1393 52.6912C30.4548 60.057 48.387 57.2646 53.3406 45.4206" fill="#E14731"/>
<path d="M12.8043 0L9.87988 6.43766H16.8387L16.9581 6.15207L19.7472 0H12.8043Z" fill="#221F20"/>
<path d="M26.7059 0L23.9168 6.15207H23.8213L23.686 6.43766H30.6409L33.5653 0H26.7059Z" fill="#221F20"/>
<path d="M6.91432 12.9269L4.00586 19.3764H10.9368L13.8572 12.9269H6.91432Z" fill="#221F20"/>
<path d="M16.7833 6.48926L13.8589 12.9269H16.1188H20.8177L22.7514 8.64704L23.7262 6.48926H16.7833Z" fill="#221F20"/>
<path d="M2.92438 6.44958L0 12.8991H6.91506L9.81159 6.48925H9.85138L9.87923 6.44958H2.92438Z" fill="#221F20"/>
<path d="M50.2109 3.99393V5.12836C50.2109 5.60037 50.4536 6.02083 50.8475 6.27468C59.2268 11.7128 64.7612 21.1174 64.7612 31.831C64.7612 42.5445 58.9403 52.4212 50.2109 57.78H264.793C280.437 57.78 293.121 45.1387 293.121 29.5383V2.60168H51.6075C50.8356 2.60168 50.2149 3.22443 50.2149 3.98997" fill="#AE2556"/>
<path d="M77.4704 30.8671L71.4009 22.0138H75.7884L79.914 28.3444L84.0714 22.0138H88.4232L82.3339 30.8671L88.7326 40.113H84.3809L79.914 33.3382L75.4631 40.113H71.1113L77.4783 30.8671H77.4704Z" fill="white"/>
<path d="M101.086 40.4383C98.7929 40.4383 97.0157 39.6132 95.7503 37.9671H95.5202C95.6709 39.4942 95.7503 40.4224 95.7503 40.7477V48.1611H91.9062V22.0138H95.0164C95.1036 22.3509 95.2821 23.1601 95.5559 24.4334H95.7542C96.9562 22.6008 98.7533 21.6846 101.153 21.6846C103.41 21.6846 105.172 22.5017 106.429 24.1398C107.691 25.7741 108.322 28.0746 108.322 31.0297C108.322 33.9848 107.679 36.2933 106.398 37.9513C105.116 39.6093 103.347 40.4383 101.086 40.4383ZM100.154 24.8261C98.6263 24.8261 97.5116 25.2743 96.8055 26.1667C96.1033 27.0632 95.7503 28.4911 95.7503 30.4545V31.0257C95.7503 33.2311 96.0993 34.8257 96.7975 35.8133C97.4957 36.801 98.6342 37.2928 100.217 37.2928C101.55 37.2928 102.573 36.7454 103.295 35.6586C104.017 34.5718 104.374 33.013 104.374 30.994C104.374 28.975 104.017 27.4281 103.303 26.3889C102.589 25.3457 101.538 24.8261 100.154 24.8261Z" fill="white"/>
<path d="M121.969 21.6846C122.742 21.6846 123.381 21.7402 123.885 21.8473L123.508 25.429C122.96 25.2981 122.393 25.2307 121.806 25.2307C120.267 25.2307 119.021 25.7344 118.065 26.738C117.109 27.7415 116.633 29.0465 116.633 30.649V40.1052H112.789V22.0099H115.8L116.308 25.199H116.506C117.105 24.1201 117.891 23.2633 118.855 22.6287C119.819 21.998 120.858 21.6807 121.973 21.6807L121.969 21.6846Z" fill="white"/>
<path d="M135.142 40.4383C132.329 40.4383 130.128 39.6173 128.537 37.9751C126.95 36.333 126.157 34.0721 126.157 31.1924C126.157 28.3127 126.895 25.9129 128.366 24.2232C129.838 22.5335 131.861 21.6886 134.436 21.6886C136.824 21.6886 138.712 22.4145 140.097 23.8662C141.481 25.318 142.175 27.3131 142.175 29.8557V31.9341H130.116C130.171 33.6913 130.643 35.0399 131.54 35.9839C132.432 36.928 133.694 37.4 135.32 37.4C136.392 37.4 137.383 37.3008 138.308 37.0985C139.228 36.8962 140.22 36.5631 141.279 36.091V39.2167C140.339 39.6649 139.391 39.9782 138.431 40.1647C137.471 40.3511 136.376 40.4423 135.142 40.4423V40.4383ZM134.436 24.6C133.214 24.6 132.234 24.9887 131.496 25.7622C130.758 26.5357 130.322 27.6661 130.179 29.1496H138.395C138.371 27.6542 138.014 26.5238 137.316 25.7543C136.618 24.9848 135.658 24.6 134.436 24.6Z" fill="white"/>
<path d="M158.706 34.9565C158.706 36.7256 158.063 38.0782 156.774 39.0222C155.485 39.9663 153.644 40.4383 151.244 40.4383C148.844 40.4383 146.896 40.0734 145.437 39.3435V36.0196C147.563 37.0033 149.542 37.4912 151.375 37.4912C153.743 37.4912 154.926 36.7772 154.926 35.3492C154.926 34.8931 154.795 34.5083 154.533 34.2029C154.271 33.8975 153.839 33.5802 153.24 33.2549C152.641 32.9257 151.804 32.5568 150.736 32.1443C148.654 31.3351 147.241 30.5299 146.508 29.7207C145.774 28.9116 145.405 27.8684 145.405 26.5793C145.405 25.0323 146.028 23.8265 147.277 22.9697C148.527 22.113 150.225 21.6846 152.375 21.6846C154.525 21.6846 156.516 22.1169 158.413 22.9777L157.167 25.8732C155.215 25.064 153.573 24.6634 152.24 24.6634C150.209 24.6634 149.197 25.2425 149.197 26.3968C149.197 26.964 149.463 27.444 149.991 27.8366C150.518 28.2293 151.673 28.7688 153.45 29.455C154.945 30.0341 156.028 30.5616 156.707 31.0416C157.385 31.5215 157.885 32.0769 158.214 32.7036C158.539 33.3303 158.706 34.0799 158.706 34.9526V34.9565Z" fill="white"/>
<path d="M175.022 34.9565C175.022 36.7256 174.38 38.0782 173.091 39.0222C171.801 39.9663 169.961 40.4383 167.561 40.4383C165.161 40.4383 163.213 40.0734 161.753 39.3435V36.0196C163.879 37.0033 165.859 37.4912 167.691 37.4912C170.06 37.4912 171.242 36.7772 171.242 35.3492C171.242 34.8931 171.111 34.5083 170.849 34.2029C170.587 33.8975 170.155 33.5802 169.556 33.2549C168.957 32.9257 168.12 32.5568 167.053 32.1443C164.97 31.3351 163.558 30.5299 162.824 29.7207C162.09 28.9116 161.721 27.8684 161.721 26.5793C161.721 25.0323 162.344 23.8265 163.594 22.9697C164.843 22.113 166.541 21.6846 168.691 21.6846C170.841 21.6846 172.833 22.1169 174.729 22.9777L173.483 25.8732C171.532 25.064 169.889 24.6634 168.556 24.6634C166.525 24.6634 165.514 25.2425 165.514 26.3968C165.514 26.964 165.779 27.444 166.307 27.8366C166.835 28.2293 167.989 28.7688 169.766 29.455C171.262 30.0341 172.345 30.5616 173.023 31.0416C173.701 31.5215 174.201 32.0769 174.531 32.7036C174.856 33.3303 175.022 34.0799 175.022 34.9526V34.9565Z" fill="white"/>
</svg>
