<svg width="294" height="58" viewBox="0 0 294 58" fill="none" xmlns="http://www.w3.org/2000/svg">
<path d="M33.7174 16.473C41.9614 16.4849 45.2637 23.5691 45.2637 26.187L20.5358 26.1314C21.8488 20.9115 26.5875 16.4571 33.7333 16.469H33.7214L33.7174 16.473ZM53.3406 45.4167H34.5808L34.541 45.4444C23.7148 44.9446 20.3289 36.6744 20.3289 36.6744L57.6177 36.7538C59.6628 26.9327 55.6562 16.4055 46.708 10.5906C41.7545 7.36583 36.0967 6.12431 30.6299 6.62409L27.7732 12.9269H20.8183L17.8939 19.3646H10.9391C4.49748 30.808 7.94706 45.4206 19.1393 52.6913C30.4548 60.0571 48.387 57.2647 53.3406 45.4206" fill="#E14731"/>
<path d="M12.8043 0L9.87988 6.43766H16.8387L16.9581 6.15207L19.7472 0H12.8043Z" fill="#221F20"/>
<path d="M26.7059 0L23.9168 6.15207H23.8213L23.686 6.43766H30.6409L33.5653 0H26.7059Z" fill="#221F20"/>
<path d="M6.91432 12.9269L4.00586 19.3764H10.9368L13.8572 12.9269H6.91432Z" fill="#221F20"/>
<path d="M16.7833 6.48926L13.8589 12.9269H16.1188H20.8177L22.7514 8.64704L23.7262 6.48926H16.7833Z" fill="#221F20"/>
<path d="M2.92438 6.44952L0 12.8991H6.91506L9.81159 6.48919H9.85138L9.87923 6.44952H2.92438Z" fill="#221F20"/>
<path d="M50.2109 3.99393V5.12836C50.2109 5.60037 50.4536 6.02083 50.8475 6.27468C59.2268 11.7128 64.7612 21.1174 64.7612 31.831C64.7612 42.5445 58.9403 52.4212 50.2109 57.78H264.793C280.437 57.78 293.121 45.1387 293.121 29.5383V2.60168H51.6075C50.8356 2.60168 50.2149 3.22443 50.2149 3.98997" fill="#0EA7AD"/>
<path d="M77.5352 30.5336L71.4477 21.6803H75.8482L79.9861 28.0109L84.1558 21.6803H88.5205L82.4131 30.5336L88.8308 39.7795H84.4661L79.9861 33.0047L75.5219 39.7795H71.1572L77.5431 30.5336H77.5352Z" fill="white"/>
<path d="M98.7766 36.995C99.7156 36.995 100.659 36.8482 101.598 36.5547V39.4503C101.172 39.6367 100.623 39.7914 99.9464 39.9183C99.274 40.0452 98.5737 40.1047 97.8536 40.1047C94.1971 40.1047 92.3709 38.1849 92.3709 34.3454V24.5917H89.8921V22.89L92.5499 21.4819L93.8629 17.6542H96.2422V21.6803H101.411V24.5917H96.2422V34.2779C96.2422 35.2061 96.4729 35.8883 96.9385 36.3326C97.404 36.7729 98.0127 36.995 98.7687 36.995H98.7766Z" fill="white"/>
<path d="M113.152 40.1047C110.328 40.1047 108.123 39.2837 106.528 37.6415C104.936 35.9994 104.141 33.7385 104.141 30.8588C104.141 27.9791 104.881 25.5793 106.357 23.8896C107.833 22.1998 109.862 21.355 112.444 21.355C114.839 21.355 116.733 22.0809 118.122 23.5326C119.511 24.9843 120.207 26.9795 120.207 29.522V31.6005H108.111C108.167 33.3577 108.641 34.7063 109.54 35.6503C110.435 36.5944 111.7 37.0664 113.332 37.0664C114.406 37.0664 115.404 36.9672 116.328 36.7649C117.251 36.5626 118.245 36.2294 119.308 35.7574V38.883C118.365 39.3313 117.414 39.6446 116.451 39.831C115.488 40.0175 114.39 40.1087 113.152 40.1087V40.1047ZM112.448 24.2664C111.223 24.2664 110.24 24.6551 109.5 25.4286C108.76 26.2021 108.322 27.3325 108.179 28.816H116.419C116.395 27.3206 116.037 26.1902 115.337 25.4207C114.637 24.6512 113.674 24.2664 112.448 24.2664Z" fill="white"/>
<path d="M140.566 39.7755H136.691V28.6494C136.691 27.2532 136.409 26.21 135.848 25.5238C135.283 24.8376 134.387 24.4925 133.166 24.4925C131.535 24.4925 130.341 24.9724 129.589 25.9323C128.833 26.8922 128.455 28.5026 128.455 30.7596V39.7755H124.6V21.6802H127.619L128.161 24.0522H128.356C128.905 23.1915 129.68 22.5251 130.687 22.0571C131.694 21.589 132.808 21.355 134.037 21.355C138.394 21.355 140.57 23.5643 140.57 27.983V39.7795L140.566 39.7755Z" fill="white"/>
<path d="M158.124 34.6231C158.124 36.3921 157.479 37.7447 156.186 38.6887C154.893 39.6328 153.047 40.1048 150.64 40.1048C148.233 40.1048 146.279 39.7399 144.815 39.01V35.6861C146.948 36.6698 148.933 37.1577 150.771 37.1577C153.147 37.1577 154.332 36.4437 154.332 35.0157C154.332 34.5596 154.201 34.1748 153.938 33.8694C153.676 33.564 153.242 33.2467 152.641 32.9214C152.04 32.5922 151.201 32.2233 150.131 31.8108C148.042 31.0016 146.625 30.1964 145.889 29.3872C145.149 28.5781 144.783 27.5349 144.783 26.2458C144.783 24.6988 145.408 23.493 146.661 22.6362C147.914 21.7795 149.617 21.3511 151.774 21.3511C153.93 21.3511 155.928 21.7834 157.83 22.6442L156.584 25.5397C154.627 24.7306 152.979 24.3299 151.643 24.3299C149.605 24.3299 148.591 24.909 148.591 26.0633C148.591 26.6305 148.857 27.1105 149.387 27.5031C149.916 27.8958 151.074 28.4353 152.856 29.1215C154.356 29.7006 155.442 30.2281 156.123 30.7081C156.803 31.188 157.304 31.7434 157.635 32.3701C157.961 32.9968 158.128 33.7465 158.128 34.6191L158.124 34.6231Z" fill="white"/>
<path d="M162.067 16.8847C162.067 16.1985 162.254 15.667 162.632 15.2981C163.01 14.9292 163.547 14.7428 164.247 14.7428C164.948 14.7428 165.453 14.9292 165.831 15.2981C166.209 15.671 166.396 16.1985 166.396 16.8847C166.396 17.5709 166.209 18.0548 165.831 18.4317C165.453 18.8085 164.924 18.9949 164.247 18.9949C163.571 18.9949 163.01 18.8085 162.632 18.4317C162.254 18.0548 162.067 17.5392 162.067 16.8847ZM166.153 39.7755H162.294V21.6802H166.153V39.7755Z" fill="white"/>
<path d="M175.801 39.7756L168.906 21.6803H172.977L176.669 32.2035C177.301 33.9725 177.687 35.4005 177.819 36.4913H177.95C178.049 35.7059 178.431 34.278 179.1 32.2035L182.792 21.6803H186.894L179.967 39.7756H175.797H175.801Z" fill="white"/>
<path d="M197.586 40.1047C194.765 40.1047 192.557 39.2837 190.965 37.6415C189.374 35.9994 188.578 33.7385 188.578 30.8588C188.578 27.9791 189.318 25.5793 190.794 23.8896C192.27 22.1998 194.3 21.355 196.882 21.355C199.277 21.355 201.171 22.0809 202.559 23.5326C203.948 24.9843 204.644 26.9795 204.644 29.522V31.6005H192.549C192.605 33.3577 193.078 34.7063 193.977 35.6503C194.876 36.5944 196.138 37.0664 197.769 37.0664C198.843 37.0664 199.838 36.9672 200.765 36.7649C201.688 36.5626 202.683 36.2294 203.745 35.7574V38.883C202.802 39.3313 201.851 39.6446 200.888 39.831C199.926 40.0175 198.823 40.1087 197.59 40.1087L197.586 40.1047ZM196.878 24.2664C195.652 24.2664 194.67 24.6551 193.934 25.4286C193.193 26.2021 192.756 27.3325 192.613 28.816H200.853C200.829 27.3206 200.471 26.1902 199.77 25.4207C199.07 24.6512 198.107 24.2664 196.882 24.2664H196.878Z" fill="white"/>
</svg>
