<svg width="253" height="136" viewBox="0 0 253 136" fill="none" xmlns="http://www.w3.org/2000/svg">
<mask id="mask0_2344_1720" style="mask-type:luminance" maskUnits="userSpaceOnUse" x="0" y="0" width="253" height="136">
<path d="M252.145 0.720676H0.719238V135.739H252.145V0.720676Z" fill="white"/>
</mask>
<g mask="url(#mask0_2344_1720)">
<path d="M166.586 31.9259L166.838 15.9269H82.3218C88.0042 20.323 92.4278 25.8722 95.4487 32.1061H140.656L81.6025 93.1472H166.694V76.9681H122.782L166.55 31.8899L166.586 31.9259Z" fill="#231F20"/>
<path d="M34.0222 43.3125C36.1441 34.8086 43.8404 27.5658 55.4209 27.5658C68.7996 27.5658 74.1582 39.1326 74.1223 43.3846L34.0222 43.3125ZM34.4538 21.8004L29.7065 32.2862H18.4138L18.5576 31.9259C7.87625 50.6274 13.4507 74.6619 31.6845 86.5891C50.0263 98.5883 79.1213 94.048 87.1413 74.734H56.7156H56.6437C39.0932 73.9412 33.5906 60.4286 33.5906 60.4286L94.0464 60.5727C97.3551 44.5377 90.8456 27.4217 76.3521 17.9448C68.332 12.6839 59.1612 10.666 50.278 11.4587L45.6386 21.7644H34.3459" fill="#E14731"/>
<path d="M42.5095 129.721C42.5095 131.631 41.8262 133.073 40.4236 134.082C39.057 135.09 37.079 135.595 34.4895 135.595C31.9001 135.595 29.8142 135.199 28.2677 134.406V130.838C30.5335 131.883 32.6554 132.424 34.6334 132.424C36.6114 132.424 38.4456 131.667 38.4456 130.118C38.4456 128.568 38.3017 129.217 38.014 128.893C37.7263 128.568 37.2588 128.208 36.6114 127.884C35.9641 127.523 35.065 127.127 33.9141 126.695C31.6843 125.83 30.1738 124.965 29.3826 124.1C28.5914 123.235 28.1958 122.118 28.1958 120.713C28.1958 119.308 28.8791 117.758 30.2098 116.821C31.5405 115.884 33.3746 115.452 35.6763 115.452C37.9781 115.452 40.0999 115.921 42.1499 116.857L40.8192 119.956C38.7333 119.091 36.9711 118.659 35.5325 118.659C33.3746 118.659 32.2598 119.272 32.2598 120.533C32.2598 121.794 32.5475 121.65 33.1229 122.082C33.6983 122.515 34.9211 123.091 36.8272 123.812C38.4456 124.424 39.5964 125.001 40.3157 125.505C41.035 126.01 41.5745 126.623 41.9341 127.307C42.2938 127.992 42.4736 128.785 42.4736 129.721" fill="#231F20"/>
<path d="M42.5095 129.721C42.5095 131.631 41.8262 133.073 40.4236 134.082C39.057 135.09 37.079 135.595 34.4895 135.595C31.9001 135.595 29.8142 135.199 28.2677 134.406V130.838C30.5335 131.883 32.6554 132.424 34.6334 132.424C36.6114 132.424 38.4456 131.667 38.4456 130.118C38.4456 128.568 38.3017 129.217 38.014 128.893C37.7263 128.568 37.2588 128.208 36.6114 127.884C35.9641 127.523 35.065 127.127 33.9141 126.695C31.6843 125.83 30.1738 124.965 29.3826 124.1C28.5914 123.235 28.1958 122.118 28.1958 120.713C28.1958 119.308 28.8791 117.758 30.2098 116.821C31.5405 115.884 33.3746 115.452 35.6763 115.452C37.9781 115.452 40.0999 115.921 42.1499 116.857L40.8192 119.956C38.7333 119.091 36.9711 118.659 35.5325 118.659C33.3746 118.659 32.2598 119.272 32.2598 120.533C32.2598 121.794 32.5475 121.65 33.1229 122.082C33.6983 122.515 34.9211 123.091 36.8272 123.812C38.4456 124.424 39.5964 125.001 40.3157 125.505C41.035 126.01 41.5745 126.623 41.9341 127.307C42.2938 127.992 42.4736 128.785 42.4736 129.721H42.5095Z" stroke="#231F20" stroke-width="0.6" stroke-miterlimit="10"/>
<path d="M66.5697 118.587C65.275 118.587 64.196 119.019 63.4048 119.848C62.6136 120.677 62.1461 121.902 62.0022 123.488H70.8134C70.8134 121.866 70.4178 120.677 69.6626 119.848C68.9073 119.019 67.9004 118.623 66.5697 118.623M67.3249 135.631C64.3039 135.631 61.9303 134.766 60.24 133.001C58.5497 131.235 57.6865 128.821 57.6865 125.722C57.6865 122.623 58.4777 120.064 60.0602 118.227C61.6426 116.425 63.8004 115.488 66.5697 115.488C69.3389 115.488 71.1371 116.281 72.6476 117.83C74.1222 119.38 74.8774 121.542 74.8774 124.28V126.514H61.9303C62.0022 128.388 62.5057 129.866 63.4408 130.875C64.4118 131.883 65.7425 132.388 67.5047 132.388C69.267 132.388 69.7345 132.28 70.7056 132.064C71.6766 131.847 72.7555 131.487 73.9064 130.983V134.334C72.8994 134.802 71.8924 135.163 70.8494 135.343C69.8065 135.559 68.6556 135.631 67.3249 135.631Z" fill="#231F20"/>
<path d="M66.5697 118.587C65.275 118.587 64.196 119.019 63.4048 119.848C62.6136 120.677 62.1461 121.902 62.0022 123.488H70.8134C70.8134 121.866 70.4178 120.677 69.6626 119.848C68.9073 119.019 67.9004 118.623 66.5697 118.623V118.587ZM67.3249 135.631C64.3039 135.631 61.9303 134.766 60.24 133.001C58.5497 131.235 57.6865 128.821 57.6865 125.722C57.6865 122.623 58.4777 120.064 60.0602 118.227C61.6426 116.425 63.8004 115.488 66.5697 115.488C69.3389 115.488 71.1371 116.281 72.6476 117.83C74.1222 119.38 74.8774 121.542 74.8774 124.28V126.514H61.9303C62.0022 128.388 62.5057 129.866 63.4408 130.875C64.4118 131.883 65.7425 132.388 67.5047 132.388C69.267 132.388 69.7345 132.28 70.7056 132.064C71.6766 131.847 72.7555 131.487 73.9064 130.983V134.334C72.8994 134.802 71.8924 135.163 70.8494 135.343C69.8065 135.559 68.6556 135.631 67.3249 135.631Z" stroke="#231F20" stroke-width="0.6" stroke-miterlimit="10"/>
<path d="M101.275 115.488C102.102 115.488 102.786 115.56 103.325 115.668L102.929 119.524C102.354 119.38 101.743 119.308 101.095 119.308C99.4409 119.308 98.1102 119.848 97.1032 120.929C96.0962 122.01 95.5568 123.416 95.5568 125.145V135.307H91.4209V115.848H94.6577L95.1971 119.272H95.4129C96.0603 118.119 96.8875 117.182 97.9304 116.497C98.9734 115.812 100.088 115.488 101.275 115.488Z" fill="#231F20"/>
<path d="M101.275 115.488C102.102 115.488 102.786 115.56 103.325 115.668L102.929 119.524C102.354 119.38 101.743 119.308 101.095 119.308C99.4409 119.308 98.1102 119.848 97.1032 120.929C96.0962 122.01 95.5568 123.416 95.5568 125.145V135.307H91.4209V115.848H94.6577L95.1971 119.272H95.4129C96.0603 118.119 96.8875 117.182 97.9304 116.497C98.9734 115.812 100.088 115.488 101.275 115.488Z" stroke="#231F20" stroke-width="0.6" stroke-miterlimit="10"/>
<path d="M123.25 135.271L115.877 115.812H120.229L124.185 127.127C124.868 129.037 125.264 130.55 125.407 131.739H125.551C125.659 130.911 126.055 129.361 126.774 127.127L130.73 115.812H135.118L127.709 135.271H123.25Z" fill="#231F20"/>
<path d="M123.25 135.271L115.877 115.812H120.229L124.185 127.127C124.868 129.037 125.264 130.55 125.407 131.739H125.551C125.659 130.911 126.055 129.361 126.774 127.127L130.73 115.812H135.118L127.709 135.271H123.25Z" stroke="#231F20" stroke-width="0.6" stroke-miterlimit="10"/>
<path d="M154.07 135.271H149.934V115.812H154.07V135.271ZM149.683 110.66C149.683 109.939 149.898 109.362 150.294 108.966C150.69 108.57 151.265 108.353 152.02 108.353C152.776 108.353 153.315 108.57 153.711 108.966C154.106 109.362 154.322 109.939 154.322 110.66C154.322 111.38 154.106 111.921 153.711 112.317C153.315 112.714 152.74 112.93 152.02 112.93C151.301 112.93 150.69 112.714 150.294 112.317C149.898 111.921 149.683 111.344 149.683 110.66Z" fill="#231F20"/>
<path d="M154.07 135.271H149.934V115.812H154.07V135.271ZM149.683 110.66C149.683 109.939 149.898 109.362 150.294 108.966C150.69 108.57 151.265 108.353 152.02 108.353C152.776 108.353 153.315 108.57 153.711 108.966C154.106 109.362 154.322 109.939 154.322 110.66C154.322 111.38 154.106 111.921 153.711 112.317C153.315 112.714 152.74 112.93 152.02 112.93C151.301 112.93 150.69 112.714 150.294 112.317C149.898 111.921 149.683 111.344 149.683 110.66Z" stroke="#231F20" stroke-width="0.6" stroke-miterlimit="10"/>
<path d="M179.678 135.631C176.729 135.631 174.499 134.766 172.988 133.073C171.478 131.343 170.687 128.893 170.687 125.686C170.687 122.479 171.478 119.92 173.096 118.155C174.679 116.389 177.016 115.524 180.001 115.524C182.986 115.524 183.885 115.921 185.54 116.677L184.281 119.992C182.555 119.308 181.116 118.983 179.965 118.983C176.621 118.983 174.93 121.217 174.93 125.686C174.93 130.154 175.362 129.505 176.189 130.586C177.016 131.667 178.239 132.244 179.857 132.244C181.476 132.244 183.418 131.775 185.072 130.875V134.478C184.353 134.91 183.562 135.235 182.699 135.415C181.871 135.595 180.864 135.703 179.642 135.703" fill="#231F20"/>
<path d="M179.678 135.631C176.729 135.631 174.499 134.766 172.988 133.073C171.478 131.343 170.687 128.893 170.687 125.686C170.687 122.479 171.478 119.92 173.096 118.155C174.679 116.389 177.016 115.524 180.001 115.524C182.986 115.524 183.885 115.921 185.54 116.677L184.281 119.992C182.555 119.308 181.116 118.983 179.965 118.983C176.621 118.983 174.93 121.217 174.93 125.686C174.93 130.154 175.362 129.505 176.189 130.586C177.016 131.667 178.239 132.244 179.857 132.244C181.476 132.244 183.418 131.775 185.072 130.875V134.478C184.353 134.91 183.562 135.235 182.699 135.415C181.871 135.595 180.864 135.703 179.642 135.703L179.678 135.631Z" stroke="#231F20" stroke-width="0.6" stroke-miterlimit="10"/>
<path d="M209.24 118.587C207.945 118.587 206.866 119.019 206.075 119.848C205.284 120.677 204.816 121.902 204.672 123.488H213.483C213.483 121.866 213.088 120.677 212.333 119.848C211.577 119.019 210.57 118.623 209.24 118.623M209.995 135.631C206.974 135.631 204.6 134.766 202.91 133.001C201.22 131.235 200.356 128.821 200.356 125.722C200.356 122.623 201.148 120.064 202.73 118.227C204.313 116.425 206.47 115.488 209.24 115.488C212.009 115.488 213.807 116.281 215.318 117.83C216.792 119.38 217.547 121.542 217.547 124.28V126.514H204.6C204.672 128.388 205.176 129.866 206.111 130.875C207.082 131.883 208.412 132.388 210.175 132.388C211.937 132.388 212.404 132.28 213.375 132.064C214.347 131.847 215.425 131.487 216.576 130.983V134.334C215.569 134.802 214.562 135.163 213.519 135.343C212.476 135.523 211.326 135.631 209.995 135.631Z" fill="#231F20"/>
<path d="M209.24 118.587C207.945 118.587 206.866 119.019 206.075 119.848C205.284 120.677 204.816 121.902 204.672 123.488H213.483C213.483 121.866 213.088 120.677 212.333 119.848C211.577 119.019 210.57 118.623 209.24 118.623V118.587ZM209.995 135.631C206.974 135.631 204.6 134.766 202.91 133.001C201.22 131.235 200.356 128.821 200.356 125.722C200.356 122.623 201.148 120.064 202.73 118.227C204.313 116.425 206.47 115.488 209.24 115.488C212.009 115.488 213.807 116.281 215.318 117.83C216.792 119.38 217.547 121.542 217.547 124.28V126.514H204.6C204.672 128.388 205.176 129.866 206.111 130.875C207.082 131.883 208.412 132.388 210.175 132.388C211.937 132.388 212.404 132.28 213.375 132.064C214.347 131.847 215.425 131.487 216.576 130.983V134.334C215.569 134.802 214.562 135.163 213.519 135.343C212.476 135.523 211.326 135.631 209.995 135.631Z" stroke="#231F20" stroke-width="0.6" stroke-miterlimit="10"/>
</g>
</svg>
