<svg width="257" height="141" viewBox="0 0 257 141" fill="none" xmlns="http://www.w3.org/2000/svg">
<g clip-path="url(#clip0_2344_1964)">
<mask id="mask0_2344_1964" style="mask-type:luminance" maskUnits="userSpaceOnUse" x="0" y="0" width="253" height="136">
<path d="M252.145 0.720676H0.719727V135.739H252.145V0.720676Z" fill="white"/>
</mask>
<g mask="url(#mask0_2344_1964)">
<path d="M252.145 15.7107H230.207L211.973 58.4467H211.577L188.093 15.7107H172.161V31.8899L197.803 71.7432C199.853 75.1303 197.048 76.932 187.445 76.932C177.843 76.932 172.053 76.9681 172.053 76.9681V93.1112C172.161 93.1832 187.158 93.0391 192.912 93.0391C209.815 93.0391 217.116 90.5168 222.475 79.7427L252.109 15.7467L252.145 15.7107Z" fill="#231F20"/>
</g>
<path d="M21.4709 0.720676L16.7236 11.2065H28.0164L32.7637 0.720676H21.4709Z" fill="#231F20"/>
<path d="M43.8762 0.720676L39.1289 11.2065H50.3857L55.133 0.720676H43.8762Z" fill="#231F20"/>
<path d="M23.2324 21.8004H11.9397L7.19238 32.2862H18.4851L23.2324 21.8004Z" fill="#231F20"/>
<path d="M39.2013 11.2786H27.9086L23.1973 21.8004H34.4541L39.2013 11.2786Z" fill="#231F20"/>
<path d="M5.467 11.2425L0.719727 21.7283H12.0125L16.7238 11.2425H5.467Z" fill="#231F20"/>
<mask id="mask1_2344_1964" style="mask-type:luminance" maskUnits="userSpaceOnUse" x="0" y="0" width="253" height="136">
<path d="M252.145 0.720676H0.719727V135.739H252.145V0.720676Z" fill="white"/>
</mask>
<g mask="url(#mask1_2344_1964)">
<path d="M166.587 31.9259L166.839 15.9269H82.3228C88.0051 20.323 92.4287 25.8722 95.4497 32.1061H140.657L81.6035 93.1472H166.695V76.9681H122.782L166.551 31.8899L166.587 31.9259Z" fill="#231F20"/>
<path d="M34.0227 43.3125C36.1446 34.8086 43.8409 27.5658 55.4214 27.5658C68.8001 27.5658 74.1587 39.1326 74.1228 43.3846L34.0227 43.3125ZM34.4543 21.8004L29.707 32.2862H18.4142L18.5581 31.9259C7.87674 50.6274 13.4512 74.6619 31.685 86.5891C50.0268 98.5883 79.1218 94.048 87.1418 74.734H56.7161H56.6442C39.0936 73.9412 33.5911 60.4286 33.5911 60.4286L94.0469 60.5727C97.3556 44.5377 90.8461 27.4217 76.3525 17.9448C68.3325 12.6839 59.1617 10.666 50.2785 11.4587L45.6391 21.7644H34.3464" fill="#E14731"/>
<path d="M42.51 129.721C42.51 131.631 41.8267 133.073 40.4241 134.082C39.0575 135.09 37.0794 135.595 34.49 135.595C31.9006 135.595 29.8147 135.199 28.2682 134.406V130.838C30.534 131.883 32.6558 132.424 34.6339 132.424C36.6119 132.424 38.4461 131.667 38.4461 130.118C38.4461 128.568 38.3022 129.217 38.0145 128.893C37.7268 128.568 37.2593 128.208 36.6119 127.884C35.9646 127.523 35.0654 127.127 33.9146 126.695C31.6848 125.83 30.1743 124.965 29.3831 124.1C28.5919 123.235 28.1963 122.118 28.1963 120.713C28.1963 119.308 28.8796 117.758 30.2103 116.821C31.541 115.884 33.3751 115.452 35.6768 115.452C37.9785 115.452 40.1004 115.921 42.1504 116.857L40.8197 119.956C38.7338 119.091 36.9715 118.659 35.533 118.659C33.3751 118.659 32.2602 119.272 32.2602 120.533C32.2602 121.794 32.548 121.65 33.1234 122.082C33.6988 122.515 34.9216 123.091 36.8277 123.812C38.4461 124.424 39.5969 125.001 40.3162 125.505C41.0355 126.01 41.575 126.623 41.9346 127.307C42.2942 127.992 42.4741 128.785 42.4741 129.721" fill="#231F20"/>
<path d="M42.51 129.721C42.51 131.631 41.8267 133.073 40.4241 134.082C39.0575 135.09 37.0794 135.595 34.49 135.595C31.9006 135.595 29.8147 135.199 28.2682 134.406V130.838C30.534 131.883 32.6558 132.424 34.6339 132.424C36.6119 132.424 38.4461 131.667 38.4461 130.118C38.4461 128.568 38.3022 129.217 38.0145 128.893C37.7268 128.568 37.2593 128.208 36.6119 127.884C35.9646 127.523 35.0654 127.127 33.9146 126.695C31.6848 125.83 30.1743 124.965 29.3831 124.1C28.5919 123.235 28.1963 122.118 28.1963 120.713C28.1963 119.308 28.8796 117.758 30.2103 116.821C31.541 115.884 33.3751 115.452 35.6768 115.452C37.9785 115.452 40.1004 115.921 42.1504 116.857L40.8197 119.956C38.7338 119.091 36.9715 118.659 35.533 118.659C33.3751 118.659 32.2602 119.272 32.2602 120.533C32.2602 121.794 32.548 121.65 33.1234 122.082C33.6988 122.515 34.9216 123.091 36.8277 123.812C38.4461 124.424 39.5969 125.001 40.3162 125.505C41.0355 126.01 41.575 126.623 41.9346 127.307C42.2942 127.992 42.4741 128.785 42.4741 129.721H42.51Z" stroke="#231F20" stroke-width="0.6" stroke-miterlimit="10"/>
<path d="M66.5707 118.587C65.2759 118.587 64.197 119.019 63.4058 119.848C62.6146 120.677 62.1471 121.902 62.0032 123.488H70.8144C70.8144 121.866 70.4188 120.677 69.6636 119.848C68.9083 119.019 67.9013 118.623 66.5707 118.623M67.3259 135.631C64.3049 135.631 61.9313 134.766 60.241 133.001C58.5506 131.235 57.6875 128.821 57.6875 125.722C57.6875 122.623 58.4787 120.064 60.0611 118.227C61.6436 116.425 63.8014 115.488 66.5707 115.488C69.3399 115.488 71.1381 116.281 72.6486 117.83C74.1231 119.38 74.8784 121.542 74.8784 124.28V126.514H61.9313C62.0032 128.388 62.5067 129.866 63.4418 130.875C64.4128 131.883 65.7435 132.388 67.5057 132.388C69.268 132.388 69.7355 132.28 70.7065 132.064C71.6776 131.847 72.7565 131.487 73.9073 130.983V134.334C72.9003 134.802 71.8934 135.163 70.8504 135.343C69.8074 135.559 68.6566 135.631 67.3259 135.631Z" fill="#231F20"/>
<path d="M66.5707 118.587C65.2759 118.587 64.197 119.019 63.4058 119.848C62.6146 120.677 62.1471 121.902 62.0032 123.488H70.8144C70.8144 121.866 70.4188 120.677 69.6636 119.848C68.9083 119.019 67.9013 118.623 66.5707 118.623V118.587ZM67.3259 135.631C64.3049 135.631 61.9313 134.766 60.241 133.001C58.5506 131.235 57.6875 128.821 57.6875 125.722C57.6875 122.623 58.4787 120.064 60.0611 118.227C61.6436 116.425 63.8014 115.488 66.5707 115.488C69.3399 115.488 71.1381 116.281 72.6486 117.83C74.1231 119.38 74.8784 121.542 74.8784 124.28V126.514H61.9313C62.0032 128.388 62.5067 129.866 63.4418 130.875C64.4128 131.883 65.7435 132.388 67.5057 132.388C69.268 132.388 69.7355 132.28 70.7065 132.064C71.6776 131.847 72.7565 131.487 73.9073 130.983V134.334C72.9003 134.802 71.8934 135.163 70.8504 135.343C69.8074 135.559 68.6566 135.631 67.3259 135.631Z" stroke="#231F20" stroke-width="0.6" stroke-miterlimit="10"/>
<path d="M101.276 115.488C102.103 115.488 102.787 115.56 103.326 115.668L102.93 119.524C102.355 119.38 101.744 119.308 101.096 119.308C99.4419 119.308 98.1112 119.848 97.1042 120.929C96.0972 122.01 95.5578 123.416 95.5578 125.145V135.307H91.4219V115.848H94.6587L95.1981 119.272H95.4139C96.0613 118.119 96.8884 117.182 97.9314 116.497C98.9743 115.812 100.089 115.488 101.276 115.488Z" fill="#231F20"/>
<path d="M101.276 115.488C102.103 115.488 102.787 115.56 103.326 115.668L102.93 119.524C102.355 119.38 101.744 119.308 101.096 119.308C99.4419 119.308 98.1112 119.848 97.1042 120.929C96.0972 122.01 95.5578 123.416 95.5578 125.145V135.307H91.4219V115.848H94.6587L95.1981 119.272H95.4139C96.0613 118.119 96.8884 117.182 97.9314 116.497C98.9743 115.812 100.089 115.488 101.276 115.488Z" stroke="#231F20" stroke-width="0.6" stroke-miterlimit="10"/>
<path d="M123.25 135.271L115.877 115.812H120.229L124.185 127.127C124.868 129.037 125.264 130.55 125.407 131.739H125.551C125.659 130.911 126.055 129.361 126.774 127.127L130.73 115.812H135.118L127.709 135.271H123.25Z" fill="#231F20"/>
<path d="M123.25 135.271L115.877 115.812H120.229L124.185 127.127C124.868 129.037 125.264 130.55 125.407 131.739H125.551C125.659 130.911 126.055 129.361 126.774 127.127L130.73 115.812H135.118L127.709 135.271H123.25Z" stroke="#231F20" stroke-width="0.6" stroke-miterlimit="10"/>
<path d="M154.071 135.271H149.935V115.812H154.071V135.271ZM149.684 110.66C149.684 109.939 149.899 109.362 150.295 108.966C150.691 108.57 151.266 108.353 152.021 108.353C152.777 108.353 153.316 108.57 153.712 108.966C154.107 109.362 154.323 109.939 154.323 110.66C154.323 111.38 154.107 111.921 153.712 112.317C153.316 112.714 152.741 112.93 152.021 112.93C151.302 112.93 150.691 112.714 150.295 112.317C149.899 111.921 149.684 111.344 149.684 110.66Z" fill="#231F20"/>
<path d="M154.071 135.271H149.935V115.812H154.071V135.271ZM149.684 110.66C149.684 109.939 149.899 109.362 150.295 108.966C150.691 108.57 151.266 108.353 152.021 108.353C152.777 108.353 153.316 108.57 153.712 108.966C154.107 109.362 154.323 109.939 154.323 110.66C154.323 111.38 154.107 111.921 153.712 112.317C153.316 112.714 152.741 112.93 152.021 112.93C151.302 112.93 150.691 112.714 150.295 112.317C149.899 111.921 149.684 111.344 149.684 110.66Z" stroke="#231F20" stroke-width="0.6" stroke-miterlimit="10"/>
<path d="M179.678 135.631C176.729 135.631 174.499 134.766 172.988 133.073C171.478 131.343 170.687 128.893 170.687 125.686C170.687 122.479 171.478 119.92 173.096 118.155C174.679 116.389 177.016 115.524 180.001 115.524C182.986 115.524 183.885 115.921 185.54 116.677L184.281 119.992C182.555 119.308 181.116 118.983 179.965 118.983C176.621 118.983 174.93 121.217 174.93 125.686C174.93 130.154 175.362 129.505 176.189 130.586C177.016 131.667 178.239 132.244 179.857 132.244C181.476 132.244 183.418 131.775 185.072 130.875V134.478C184.353 134.91 183.562 135.235 182.699 135.415C181.871 135.595 180.864 135.703 179.642 135.703" fill="#231F20"/>
<path d="M179.678 135.631C176.729 135.631 174.499 134.766 172.988 133.073C171.478 131.343 170.687 128.893 170.687 125.686C170.687 122.479 171.478 119.92 173.096 118.155C174.679 116.389 177.016 115.524 180.001 115.524C182.986 115.524 183.885 115.921 185.54 116.677L184.281 119.992C182.555 119.308 181.116 118.983 179.965 118.983C176.621 118.983 174.93 121.217 174.93 125.686C174.93 130.154 175.362 129.505 176.189 130.586C177.016 131.667 178.239 132.244 179.857 132.244C181.476 132.244 183.418 131.775 185.072 130.875V134.478C184.353 134.91 183.562 135.235 182.699 135.415C181.871 135.595 180.864 135.703 179.642 135.703L179.678 135.631Z" stroke="#231F20" stroke-width="0.6" stroke-miterlimit="10"/>
<path d="M209.241 118.587C207.946 118.587 206.867 119.019 206.076 119.848C205.285 120.677 204.817 121.902 204.673 123.488H213.484C213.484 121.866 213.089 120.677 212.334 119.848C211.578 119.019 210.571 118.623 209.241 118.623M209.996 135.631C206.975 135.631 204.601 134.766 202.911 133.001C201.221 131.235 200.357 128.821 200.357 125.722C200.357 122.623 201.149 120.064 202.731 118.227C204.313 116.425 206.471 115.488 209.241 115.488C212.01 115.488 213.808 116.281 215.319 117.83C216.793 119.38 217.548 121.542 217.548 124.28V126.514H204.601C204.673 128.388 205.177 129.866 206.112 130.875C207.083 131.883 208.413 132.388 210.176 132.388C211.938 132.388 212.405 132.28 213.376 132.064C214.347 131.847 215.426 131.487 216.577 130.983V134.334C215.57 134.802 214.563 135.163 213.52 135.343C212.477 135.523 211.327 135.631 209.996 135.631Z" fill="#231F20"/>
<path d="M209.241 118.587C207.946 118.587 206.867 119.019 206.076 119.848C205.285 120.677 204.817 121.902 204.673 123.488H213.484C213.484 121.866 213.089 120.677 212.334 119.848C211.578 119.019 210.571 118.623 209.241 118.623V118.587ZM209.996 135.631C206.975 135.631 204.601 134.766 202.911 133.001C201.221 131.235 200.357 128.821 200.357 125.722C200.357 122.623 201.149 120.064 202.731 118.227C204.313 116.425 206.471 115.488 209.241 115.488C212.01 115.488 213.808 116.281 215.319 117.83C216.793 119.38 217.548 121.542 217.548 124.28V126.514H204.601C204.673 128.388 205.177 129.866 206.112 130.875C207.083 131.883 208.413 132.388 210.176 132.388C211.938 132.388 212.405 132.28 213.376 132.064C214.347 131.847 215.426 131.487 216.577 130.983V134.334C215.57 134.802 214.563 135.163 213.52 135.343C212.477 135.523 211.327 135.631 209.996 135.631Z" stroke="#231F20" stroke-width="0.6" stroke-miterlimit="10"/>
</g>
</g>
<defs>
<clipPath id="clip0_2344_1964">
<rect width="257" height="141" fill="white"/>
</clipPath>
</defs>
</svg>
