<svg width="80" height="39" viewBox="0 0 80 39" fill="none" xmlns="http://www.w3.org/2000/svg">
<g clip-path="url(#clip0_2344_1930)">
<path d="M16.6282 0C15.8313 0 15.0812 0.330375 14.5656 0.943929C14.1749 1.43163 13.9874 2.1553 13.9874 3.16216V3.524H12.9404V5.49052H13.9874V11.6575H16.2063V5.49052H17.9565V3.53973H16.2063V3.09923C16.2063 2.09238 16.4563 1.90359 16.9564 1.90359C17.2064 1.90359 17.4408 1.95079 17.6752 2.02945L18.1284 2.18677L18.2846 0.330375L18.0346 0.22025C17.9877 0.204518 17.5189 0.0157322 16.6282 0.0157322" fill="#1D1D1B"/>
<path d="M21.801 3.5083H19.5664V11.6576H21.801V3.5083Z" fill="#1D1D1B"/>
<path d="M20.6915 0.173081C19.9258 0.173081 19.3477 0.723706 19.3477 1.46312C19.3477 2.20253 19.9258 2.75315 20.6915 2.75315C21.4103 2.78462 22.0041 2.21826 22.0197 1.49458C22.051 0.770903 21.4885 0.173081 20.7696 0.157349C20.7384 0.157349 20.7071 0.157349 20.6759 0.157349" fill="#1D1D1B"/>
<path d="M27.723 3.3667C27.0354 3.3667 26.3635 3.58695 25.8322 4.02745V3.50829H23.6133V11.6575H25.8478V7.56718C25.8478 6.56033 26.1135 5.36468 27.348 5.36468C28.5824 5.36468 28.5043 5.80518 28.5043 7.15815V11.6575H30.7389V6.90643C30.7389 4.53088 29.7544 3.3667 27.7386 3.3667" fill="#1D1D1B"/>
<path d="M35.5052 3.3667C34.4738 3.3667 33.4581 3.64988 32.5674 4.16904L32.2705 4.34209L33.0362 6.04116L33.3956 5.82091C34.005 5.45908 34.6926 5.25456 35.4114 5.23882C35.9427 5.23882 36.8178 5.39615 36.849 6.46593L35.2551 6.52886C33.2237 6.62325 32.0205 7.59865 32.0205 9.15613C32.0205 10.7136 33.2394 11.8306 34.927 11.8306C35.6302 11.8306 36.3177 11.6261 36.8959 11.2013V11.6733H39.0836V6.96936C39.0836 5.74225 38.8179 4.97138 38.1773 4.31063C37.5366 3.64988 36.6771 3.3667 35.4895 3.3667M36.8647 9.20333C36.6615 9.47077 36.1615 10.0214 35.3645 10.0214C34.5676 10.0214 34.2238 9.67529 34.2238 9.12467C34.2238 8.57404 34.2238 8.29086 35.5364 8.22793L36.849 8.14927V9.20333H36.8647Z" fill="#1D1D1B"/>
<path d="M44.8177 3.3667C44.1302 3.3667 43.4582 3.58695 42.9269 4.02745V3.50829H40.6924V11.6575H42.9269V7.56718C42.9269 6.56033 43.1926 5.36468 44.4271 5.36468C45.6615 5.36468 45.5834 5.80518 45.5834 7.15815V11.6575H47.818V6.90643C47.818 4.53088 46.8335 3.3667 44.8177 3.3667Z" fill="#1D1D1B"/>
<path d="M55.1782 8.99881C54.6626 9.51797 53.975 9.81688 53.2406 9.80115C52.0374 9.80115 51.2248 8.90442 51.2248 7.55145C51.2248 6.19849 52.0686 5.38041 53.225 5.38041C53.9438 5.34895 54.6469 5.63213 55.147 6.16702L55.522 6.54459L56.3815 4.75113L56.2252 4.56234C56.0533 4.35782 55.1314 3.3667 53.0999 3.3667C51.0685 3.3667 48.9746 4.84552 48.9746 7.58292C48.9746 10.3203 50.7248 11.8149 53.0531 11.8149C55.3814 11.8149 55.9283 10.9181 56.2252 10.6192L56.444 10.399L55.5533 8.54258L55.1782 8.98308" fill="#1D1D1B"/>
<path d="M61.3822 3.36668C59.007 3.36668 57.2881 5.14442 57.2881 7.56717C57.2881 9.98992 58.9132 11.8148 61.3353 11.8148C63.7574 11.8148 63.9761 11.3743 64.7887 10.572L65.07 10.336L64.0386 8.9044L63.7417 9.09319L63.648 9.15612C63.0386 9.62808 62.2885 9.8798 61.5228 9.89553C60.4758 9.89553 59.7727 9.31344 59.5851 8.30658H65.1481L65.195 7.97621C65.195 7.96047 65.2419 7.5829 65.2419 7.26826C65.2419 5.00283 63.6167 3.35095 61.3978 3.35095M59.6164 6.57604C59.7883 5.93103 60.3196 5.22308 61.3353 5.22308C62.351 5.22308 62.8667 5.97822 63.0229 6.57604H59.6164Z" fill="#1D1D1B"/>
<path d="M4.096 38.7011H0.470703V17.0065H4.20538L19.3941 33.2892V17.0065H23.0507V38.7011H19.3941L4.096 22.3554V38.7011Z" fill="#1D1D1B"/>
<path d="M78.5236 4.32629C76.8204 4.42069 75.414 5.23876 74.9296 6.68612L69.6166 21.144L68.1009 17.0221H64.2568L69.6323 31.5744L79.6175 4.32629H78.5236Z" fill="#A8A8A8"/>
<path d="M36.6611 15.7322C30.2856 15.7322 25.1133 20.9395 25.1133 27.3582C25.1133 33.7769 30.2856 38.9843 36.6611 38.9843C43.0366 38.9843 48.2089 33.7769 48.2089 27.3582C48.2089 20.9395 43.0522 15.7164 36.6767 15.7164M36.6611 35.3344C32.2857 35.3344 28.7386 31.7632 28.7386 27.3582C28.7386 22.9532 32.2857 19.382 36.6611 19.382C41.0365 19.382 44.5836 22.9532 44.5836 27.3582C44.5836 31.7632 41.0365 35.3344 36.6611 35.3344Z" fill="#1D1D1B"/>
<path d="M78.8986 17.0065H78.883L76.5547 23.3623L78.8986 17.0065Z" fill="#003A63"/>
<path d="M70.5704 28.9156L69.6172 31.5429V31.5587L70.5704 28.9156Z" fill="#003A63"/>
<path d="M77.6802 17.0065C75.9769 17.1008 74.5706 17.9189 74.0861 19.3663L70.5702 28.9157L69.617 31.5587V31.5272L64.2416 17.0065H62.2258L56.8191 31.6531L51.5843 17.0065H47.5684L55.4596 38.6854H58.2567L63.179 24.7939L68.1638 38.6854H70.8828L76.5395 23.3308L78.8678 16.9907H77.6646" fill="#1D1D1B"/>
</g>
<defs>
<clipPath id="clip0_2344_1930">
<rect width="79.1471" height="39" fill="white" transform="translate(0.470703)"/>
</clipPath>
</defs>
</svg>
