<svg width="227" height="137" viewBox="0 0 227 137" fill="none" xmlns="http://www.w3.org/2000/svg">
<g clip-path="url(#clip0_59_682)">
<path d="M207.17 35.39C206.53 31.96 205.81 29.02 205.01 26.67C202.52 18.86 201.83 18.35 194.2 17.49C186.82 16.55 120.49 16.63 97.83 17.49C89.94 17.75 85.59 18 83.1 18.09C76.25 18.09 71.69 20.69 69.4 23.55C63.2 30.98 57.51 38.87 51.47 46.43C47.87 50.94 44.51 55.66 40.46 59.79C36.62 63.7 31.87 65.65 27.06 68.08C24.8 69.22 22.54 70.38 20.4 71.74C16.1 74.46 13.76 79.4 13 84.29C12.31 88.68 12.26 93.37 12.74 97.79C13.34 103.33 17.25 105.98 22.06 107.24" fill="white"/>
<path d="M207.17 35.39C206.53 31.96 205.81 29.02 205.01 26.67C202.52 18.86 201.83 18.35 194.2 17.49C186.82 16.55 120.49 16.63 97.83 17.49C89.94 17.75 85.59 18 83.1 18.09C76.25 18.09 71.69 20.69 69.4 23.55C63.2 30.98 57.51 38.87 51.47 46.43C47.87 50.94 44.51 55.66 40.46 59.79C36.62 63.7 31.87 65.65 27.06 68.08C24.8 69.22 22.54 70.38 20.4 71.74C16.1 74.46 13.76 79.4 13 84.29C12.31 88.68 12.26 93.37 12.74 97.79C13.34 103.33 17.25 105.98 22.06 107.24" stroke="black" stroke-width="2" stroke-miterlimit="10"/>
<path d="M205.03 122.69C210.88 122.69 216.77 121.43 222.16 119.19C223.97 118.52 225.02 117.63 225.02 115.4C225.02 113.31 223.02 112.78 221.82 111.51C220.62 110.24 220.39 108.3 220.39 106.59V98.84C220.39 75.5 218.33 54.3 214.9 44.18C212.41 36.37 211.72 35.86 204.09 35C196.71 34.06 130.38 34.14 107.72 35C99.83 35.26 95.48 35.51 92.99 35.6C86.14 35.6 81.58 38.2 79.29 41.06C73.09 48.49 67.4 56.38 61.36 63.94C57.76 68.45 54.4 73.17 50.35 77.3C46.51 81.21 41.76 83.16 36.95 85.59C34.69 86.73 32.43 87.89 30.29 89.25C25.99 91.97 23.65 96.91 22.89 101.8C22.62 103.55 22.44 105.36 22.37 107.17C22.25 109.89 22.35 112.64 22.64 115.3C23.84 126.38 38.28 125.88 46.68 125.88M77.43 125.86H173.37H77.43Z" fill="white"/>
<path d="M205.03 122.69C210.88 122.69 216.77 121.43 222.16 119.19C223.97 118.52 225.02 117.63 225.02 115.4C225.02 113.31 223.02 112.78 221.82 111.51C220.62 110.24 220.39 108.3 220.39 106.59V98.84C220.39 75.5 218.33 54.3 214.9 44.18C212.41 36.37 211.72 35.86 204.09 35C196.71 34.06 130.38 34.14 107.72 35C99.83 35.26 95.48 35.51 92.99 35.6C86.14 35.6 81.58 38.2 79.29 41.06C73.09 48.49 67.4 56.38 61.36 63.94C57.76 68.45 54.4 73.17 50.35 77.3C46.51 81.21 41.76 83.16 36.95 85.59C34.69 86.73 32.43 87.89 30.29 89.25C25.99 91.97 23.65 96.91 22.89 101.8C22.62 103.55 22.44 105.36 22.37 107.17C22.25 109.89 22.35 112.64 22.64 115.3C23.84 126.38 38.28 125.88 46.68 125.88M77.43 125.86H173.37" stroke="black" stroke-width="2" stroke-miterlimit="10"/>
<path d="M61.98 135.6C71.2308 135.6 78.73 128.101 78.73 118.85C78.73 109.599 71.2308 102.1 61.98 102.1C52.7292 102.1 45.23 109.599 45.23 118.85C45.23 128.101 52.7292 135.6 61.98 135.6Z" fill="white" stroke="black" stroke-width="2" stroke-linecap="square" stroke-linejoin="round"/>
<path d="M188.69 135.6C197.941 135.6 205.44 128.101 205.44 118.85C205.44 109.599 197.941 102.1 188.69 102.1C179.439 102.1 171.94 109.599 171.94 118.85C171.94 128.101 179.439 135.6 188.69 135.6Z" fill="white" stroke="black" stroke-width="2" stroke-linecap="square" stroke-linejoin="round"/>
<path d="M194.98 17.5C194.45 14.94 193.86 12.7 193.23 10.84C190.75 3.04997 190.06 2.52997 182.44 1.67997C175.07 0.739972 108.86 0.819972 86.25 1.67997C78.37 1.93997 74.03 2.18997 71.55 2.27997C64.71 2.27997 60.16 4.87997 57.88 7.72997C51.7 15.15 46.01 23.02 39.98 30.57C36.39 35.07 33.03 39.79 28.99 43.9C25.16 47.8 20.42 49.75 15.61 52.17C13.36 53.31 11.1 54.47 8.96001 55.82C4.67001 58.54 2.33001 63.46 1.57001 68.35C0.890006 72.73 0.830006 77.41 1.31001 81.82C1.97001 87.94 6.68001 90.52 12.18 91.61" stroke="black" stroke-width="2" stroke-miterlimit="10"/>
</g>
<defs>
<clipPath id="clip0_59_682">
<rect width="226.03" height="136.61" fill="white"/>
</clipPath>
</defs>
</svg>
