<svg width="219" height="104" viewBox="0 0 219 104" fill="none" xmlns="http://www.w3.org/2000/svg">
<g clip-path="url(#clip0_87_169)">
<path d="M195.29 85.6501H214.03C216.06 85.6501 217.7 84.0101 217.7 81.9801V62.5701C217.7 49.7701 207.98 39.0601 195.24 37.8201L168.02 35.2001L144.82 20.0001C125.39 7.28008 102.6 0.510077 79.3902 1.03008C76.2102 1.10008 73.2602 1.30008 70.6602 1.63008L8.31024 9.46008C8.31024 9.46008 10.1202 14.4501 10.6602 16.1401C11.2002 17.8301 12.0902 20.3801 10.7602 22.1901L2.75023 34.3101C1.61023 35.8701 0.990234 37.7501 0.990234 39.6801V43.3201H92.5202" stroke="black" stroke-width="2" stroke-linecap="round" stroke-linejoin="round"/>
<path d="M26.57 86.0899L5.61 75.4C2.76 73.79 1 70.7599 1 67.4899V57.7" stroke="black" stroke-width="2" stroke-linecap="square" stroke-linejoin="round"/>
<path d="M148.73 85.6499H72.8501" stroke="black" stroke-width="2" stroke-linecap="round" stroke-linejoin="round"/>
<path d="M188.794 95.2975C198.241 85.8508 198.241 70.5345 188.794 61.0877C179.347 51.6409 164.031 51.6409 154.584 61.0877C145.137 70.5345 145.137 85.8508 154.584 95.2975C164.031 104.744 179.347 104.744 188.794 95.2975Z" stroke="black" stroke-width="2" stroke-linecap="round" stroke-linejoin="round"/>
<path d="M55.3582 101.742C68.3607 98.6736 76.4135 85.6452 73.3446 72.6427C70.2757 59.6401 57.2473 51.5873 44.2448 54.6562C31.2423 57.7251 23.1895 70.7535 26.2583 83.756C29.3272 96.7585 42.3557 104.811 55.3582 101.742Z" stroke="black" stroke-width="2" stroke-linecap="round" stroke-linejoin="round"/>
<path d="M93.1299 47.13C93.1299 49.88 95.3599 52.12 98.1199 52.12H103.76L108.87 57.23C109.62 57.98 110.63 58.4 111.69 58.4H119.41V28.27H111.69C110.63 28.27 109.62 28.69 108.87 29.44L103.76 34.55H98.1199C95.3699 34.55 93.1299 36.78 93.1299 39.54V47.15V47.13Z" stroke="black" stroke-width="2" stroke-linecap="round" stroke-linejoin="round"/>
<path d="M119.4 34.9399H131.12" stroke="black" stroke-width="2" stroke-linecap="round" stroke-linejoin="round"/>
<path d="M119.4 51.7H131.12" stroke="black" stroke-width="2" stroke-linecap="round" stroke-linejoin="round"/>
</g>
<defs>
<clipPath id="clip0_87_169">
<rect width="218.7" height="103.39" fill="white"/>
</clipPath>
</defs>
</svg>
