<svg width="16" height="23" viewBox="0 0 16 23" fill="none" xmlns="http://www.w3.org/2000/svg">
<path d="M8.0001 10.9251C7.24223 10.9251 6.51558 10.6221 5.97977 10.0829C5.44397 9.54377 5.14288 8.81257 5.14288 8.04996C5.14288 7.28735 5.44397 6.55615 5.97977 6.01699C6.51558 5.47784 7.24223 5.17486 8.0001 5.17486C8.75797 5.17486 9.48462 5.47784 10.0204 6.01699C10.5562 6.55615 10.8573 7.28735 10.8573 8.04996C10.8573 8.42749 10.7834 8.80144 10.6398 9.15014C10.4962 9.49904 10.2858 9.81593 10.0204 10.0829C9.75509 10.3499 9.44017 10.5616 9.09344 10.7062C8.7469 10.8507 8.37528 10.9251 8.0001 10.9251ZM8.0001 0C5.87822 0 3.84348 0.848097 2.34315 2.35781C0.842823 3.86753 0 5.91501 0 8.04996C0 14.0874 8.0001 23 8.0001 23C8.0001 23 16 14.0874 16 8.04996C16 5.91501 15.1572 3.86733 13.6569 2.35781C12.1565 0.848097 10.1218 0 8.0001 0Z" fill="#EB3423"/>
</svg>
