<svg width="145" height="130" viewBox="0 0 145 130" fill="none" xmlns="http://www.w3.org/2000/svg">
<g clip-path="url(#clip0_87_240)">
<path d="M106.62 79.6801L84.0901 92.5201C81.6801 93.8901 78.7501 93.9801 76.2601 92.7601L28.8701 69.4001C26.9201 68.4401 24.6001 68.6701 22.8901 70.0001L17.9401 73.8101C15.9101 75.3701 12.9701 74.8701 11.5801 72.7201L8.77012 68.3801C7.59012 66.5601 7.93012 64.1501 9.55012 62.7101L16.5201 56.5701C17.9401 55.3201 19.7601 54.6101 21.6601 54.5801L62.1201 53.8301C64.4901 53.7901 65.9501 51.2201 64.7801 49.1601C63.9201 47.6601 64.4501 45.7501 65.9501 44.9001L96.2701 27.6201L113.39 3.18005C115.01 0.870054 118.2 0.310054 120.51 1.94005L141.03 16.4101C142.75 17.6201 143.55 19.7701 143.04 21.8101L133.21 61.5301C132.66 63.7501 131.22 65.6501 129.24 66.7801L106.61 79.6801H106.62Z" stroke="black" stroke-width="2" stroke-linecap="square" stroke-linejoin="round"/>
<path d="M108.62 32.3301L118.54 49.7301C119.91 52.1301 123.52 51.6001 124.14 48.9101L129.84 24.2801C130.1 23.1501 129.7 21.9701 128.8 21.2401L121.52 15.3201C120.11 14.1701 118.01 14.5101 117.04 16.0501L108.7 29.2001C108.1 30.1501 108.07 31.3501 108.63 32.3301H108.62Z" stroke="black" stroke-width="2" stroke-linecap="square" stroke-linejoin="round"/>
<path d="M84.7 26.6899L87.73 32.0099" stroke="black" stroke-width="2" stroke-linecap="square" stroke-linejoin="round"/>
<path d="M73.8501 39.9201L70.8201 34.6101" stroke="black" stroke-width="2" stroke-linecap="square" stroke-linejoin="round"/>
<path d="M59.6943 22.4498L79.892 10.9339C81.6816 9.91358 83.9595 10.5372 84.9798 12.3267L88.3727 18.2775L61.6857 33.4933L58.2928 27.5426C57.2725 25.753 57.8961 23.4751 59.6856 22.4548L59.6943 22.4498Z" stroke="black" stroke-width="2" stroke-linecap="square" stroke-linejoin="round"/>
<path d="M2.17012 110.98C-1.40988 118.66 3.63012 127.87 12.0901 128.44C12.3801 128.46 12.6801 128.47 12.9801 128.47C13.2801 128.47 13.5701 128.46 13.8701 128.44C22.3301 127.87 27.3701 118.66 23.7901 110.98L13.2001 90.3701H12.7901L7.12012 101.4L2.19012 110.98H2.17012Z" stroke="black" stroke-width="2" stroke-linecap="square" stroke-linejoin="round"/>
</g>
<defs>
<clipPath id="clip0_87_240">
<rect width="144.2" height="129.47" fill="white"/>
</clipPath>
</defs>
</svg>
