<svg width="130" height="129" viewBox="0 0 130 129" fill="none" xmlns="http://www.w3.org/2000/svg">
<g clip-path="url(#clip0_87_247)">
<path d="M17.7199 121.85C15.0199 121.85 12.4899 120.8 10.5899 118.9C8.68989 117 7.63989 114.46 7.63989 111.77C7.63989 109.08 8.68989 106.54 10.5899 104.64C12.4899 102.74 15.0299 101.69 17.7199 101.69C20.4099 101.69 22.9499 102.74 24.8499 104.64C28.7799 108.57 28.7799 114.97 24.8499 118.91C22.9499 120.81 20.4099 121.86 17.7199 121.86V121.85ZM17.7199 102.36C15.1999 102.36 12.8399 103.34 11.0699 105.11C7.39989 108.78 7.39989 114.75 11.0699 118.42C12.8499 120.19 15.2099 121.17 17.7199 121.17C20.2299 121.17 22.5999 120.19 24.3699 118.42C26.1399 116.65 27.1199 114.28 27.1199 111.77C27.1199 109.26 26.1399 106.89 24.3699 105.12C22.5999 103.35 20.2299 102.37 17.7199 102.37V102.36Z" fill="black"/>
<path d="M17.7199 122.35C14.8899 122.35 12.2299 121.25 10.2299 119.25C8.22988 117.25 7.12988 114.6 7.12988 111.76C7.12988 108.92 8.22988 106.27 10.2299 104.27C12.2299 102.27 14.8899 101.17 17.7199 101.17C20.5499 101.17 23.2099 102.27 25.2099 104.27C29.3399 108.4 29.3399 115.11 25.2099 119.24C23.2099 121.24 20.5499 122.34 17.7199 122.34V122.35ZM17.7199 102.86C15.3399 102.86 13.0999 103.79 11.4199 105.47C7.94988 108.94 7.94988 114.6 11.4199 118.07C13.0999 119.75 15.3399 120.68 17.7199 120.68C20.0999 120.68 22.3399 119.75 24.0199 118.07C25.6999 116.39 26.6299 114.15 26.6299 111.77C26.6299 109.39 25.6999 107.15 24.0199 105.47C22.3399 103.79 20.0999 102.86 17.7199 102.86Z" fill="black"/>
<path d="M17.2899 128.5C12.0199 128.5 7.23995 126.32 4.18995 122.51C-0.870053 116.2 -0.720054 106.78 4.53995 100.61C7.18995 97.5001 10.6899 95.4801 14.6799 94.7701C16.2599 94.4901 17.5399 93.3701 18.0199 91.8401C18.4999 90.3201 18.0899 88.6701 16.9599 87.5401L15.6699 86.2501C14.9299 85.5101 14.5199 84.5201 14.5199 83.4701C14.5199 82.4201 14.9299 81.4301 15.6699 80.6901L31.6299 64.7301C32.3699 63.9901 33.3599 63.5801 34.4099 63.5801C35.4599 63.5801 36.4499 63.9901 37.1899 64.7301L43.1199 70.6601L50.4299 63.3501L44.2899 59.2501C42.4899 58.0501 41.9999 55.6001 43.2099 53.8001C43.9399 52.7101 45.1699 52.0601 46.4899 52.0601C47.2699 52.0601 48.0199 52.2901 48.6599 52.7201L56.0999 57.6901L60.5899 53.2001L54.4499 49.1001C52.6499 47.9001 52.1599 45.4501 53.3699 43.6501C54.0999 42.5601 55.3299 41.9101 56.6499 41.9101C57.4299 41.9101 58.1799 42.1401 58.8199 42.5701L66.2599 47.5401L70.7499 43.0501L64.6099 38.9501C63.7399 38.3701 63.1499 37.4801 62.9399 36.4501C62.7299 35.4201 62.9399 34.3701 63.5199 33.5001C64.2499 32.4101 65.4699 31.7601 66.7999 31.7601C67.5799 31.7601 68.3299 31.9901 68.9699 32.4201L79.0199 39.1401L83.5099 34.6501L74.7599 28.8001C72.9599 27.6001 72.4699 25.1501 73.6799 23.3501C74.41 22.2601 75.6399 21.6101 76.9599 21.6101C77.7399 21.6101 78.4899 21.8401 79.1299 22.2701L89.1799 28.9901L94.3499 23.8201C99.7199 18.4501 100.67 16.8001 100.65 14.8701C100.6 10.8601 102.26 7.00006 105.2 4.28006C107.8 1.88006 111.22 0.560059 114.83 0.560059C118.44 0.560059 121.77 1.85006 124.35 4.19006C127.26 6.84006 128.92 10.4501 129.01 14.3701C129.1 18.2901 127.63 21.9801 124.86 24.7501C122.19 27.4201 118.63 28.8901 114.84 28.8901H114.66C112.69 28.8901 111.06 29.8401 105.71 35.1901L102.8 38.1001L111.55 43.9501C113.35 45.1501 113.84 47.6001 112.63 49.4001C111.9 50.4901 110.67 51.1401 109.35 51.1401C108.57 51.1401 107.82 50.9101 107.18 50.4801L97.1699 43.7901L92.6299 48.2501L101.39 54.1001C102.26 54.6801 102.85 55.5701 103.06 56.6001C103.27 57.6301 103.06 58.6801 102.48 59.5501C101.75 60.6401 100.52 61.2901 99.1999 61.2901C98.4199 61.2901 97.6699 61.0601 97.0299 60.6301L89.5899 55.6601L85.0999 60.1501L91.2399 64.2501C93.0399 65.4501 93.5299 67.9001 92.3199 69.7001C91.5899 70.7901 90.3699 71.4401 89.0399 71.4401C88.2599 71.4401 87.5099 71.2101 86.8699 70.7801L79.4699 65.8301L74.9299 70.2901L81.0799 74.4001C82.88 75.6001 83.3699 78.0501 82.16 79.8501C81.4299 80.9401 80.1999 81.5901 78.8799 81.5901C78.0999 81.5901 77.3499 81.3601 76.7099 80.9301L69.3099 75.9801L58.8299 86.3901L64.7599 92.3201C66.2899 93.8501 66.2899 96.3501 64.7599 97.8801L48.7999 113.84C48.0599 114.58 47.0699 114.99 46.0199 114.99C44.9699 114.99 43.9799 114.58 43.2399 113.84L41.9499 112.55C41.1399 111.74 40.0699 111.29 38.9299 111.29C36.8499 111.29 35.0799 112.76 34.7299 114.78C34.1599 118.02 33.5999 120.33 30.9599 122.97C27.4299 126.5 22.4499 128.52 17.2899 128.52V128.5ZM34.4099 64.2501C33.5399 64.2501 32.7199 64.5901 32.1099 65.2001L16.1499 81.1601C15.5399 81.7701 15.1999 82.5901 15.1999 83.4601C15.1999 84.3301 15.5399 85.1501 16.1499 85.7601L17.4399 87.0501C18.7499 88.3601 19.2199 90.2701 18.6599 92.0401C18.0999 93.8101 16.6199 95.1101 14.7899 95.4301C10.9599 96.1101 7.59995 98.0501 5.04995 101.04C0.00994682 106.97 -0.130054 116.02 4.71995 122.08C7.67995 125.78 12.1499 127.82 17.2899 127.82C22.4299 127.82 27.0799 125.87 30.4799 122.47C32.9799 119.97 33.4999 117.85 34.0599 114.64C34.4699 112.29 36.5199 110.59 38.9299 110.59C40.2499 110.59 41.4999 111.11 42.4299 112.05L43.7199 113.34C44.3299 113.95 45.1499 114.29 46.0199 114.29C46.8899 114.29 47.7099 113.95 48.3199 113.34L64.2799 97.3801C64.8899 96.7701 65.2299 95.9501 65.2299 95.0801C65.2299 94.2101 64.8899 93.3901 64.2799 92.7801L36.7099 65.2101C36.0999 64.6001 35.2799 64.2601 34.4099 64.2601V64.2501ZM43.5999 71.1301L58.3599 85.8901L68.6999 75.5501L51.0099 63.7301L43.5999 71.1401V71.1301ZM46.4899 52.7201C45.3899 52.7201 44.3799 53.2601 43.7699 54.1601C42.7899 55.6301 43.1999 57.6901 44.6699 58.6701L77.0899 80.3301C77.6199 80.6901 78.2399 80.8701 78.8799 80.8701C79.9799 80.8701 80.9999 80.3301 81.5999 79.4301C82.0799 78.7201 82.2499 77.8501 82.0699 76.9901C81.8899 76.1301 81.4099 75.3901 80.6999 74.9201L48.2799 53.2601C47.7499 52.9001 47.1299 52.7201 46.4899 52.7201ZM56.6499 42.5601C55.5499 42.5601 54.5399 43.1001 53.9299 44.0001C52.9499 45.4701 53.3599 47.5301 54.8299 48.5101L87.2499 70.1801C87.7799 70.5401 88.3999 70.7201 89.0399 70.7201C90.1399 70.7201 91.1499 70.1801 91.7599 69.2801C92.24 68.5701 92.41 67.7001 92.2299 66.8401C92.0499 65.9801 91.5699 65.2401 90.8599 64.7701L58.4399 43.1101C57.9099 42.7501 57.2899 42.5701 56.6499 42.5701V42.5601ZM56.6699 58.0501L74.3799 69.8801L78.8699 65.3901L61.2099 53.5901L56.6699 58.0501ZM66.8099 32.4001C65.7099 32.4001 64.6899 32.9401 64.0899 33.8401C63.6099 34.5501 63.4399 35.4201 63.6199 36.2801C63.7999 37.1401 64.2799 37.8801 64.9899 38.3501L97.41 60.0101C97.9399 60.3701 98.5599 60.5501 99.1999 60.5501C100.3 60.5501 101.31 60.0101 101.92 59.1101C102.4 58.3901 102.57 57.5201 102.4 56.6701C102.23 55.8201 101.74 55.0801 101.02 54.6001L68.5999 32.9301C68.0699 32.5701 67.4499 32.3901 66.8099 32.3901V32.4001ZM66.8399 47.8901L84.5299 59.7101L89.0199 55.2201L71.3199 43.4001L66.8299 47.8901H66.8399ZM76.9699 22.2401C75.8699 22.2401 74.8499 22.7801 74.2499 23.6801C73.2699 25.1401 73.6799 27.2101 75.1499 28.1901L107.57 49.8601C108.1 50.2101 108.72 50.4001 109.36 50.4001C110.46 50.4001 111.47 49.8601 112.08 48.9601C113.06 47.4901 112.65 45.4301 111.18 44.4501L78.7599 22.7801C78.2299 22.4201 77.6099 22.2401 76.9699 22.2401ZM79.5899 39.4701L92.0799 47.8101L96.5699 43.3201L84.1299 35.0101L79.5899 39.4701ZM114.84 1.18006C111.4 1.18006 108.14 2.44006 105.67 4.72006C102.83 7.35006 101.29 10.9301 101.34 14.8001C101.37 16.9801 100.43 18.6501 94.8399 24.2401L89.7599 29.3201L102.23 37.6501L105.24 34.6401C110.8 29.0801 112.45 28.1401 114.6 28.1401H114.83C118.45 28.1401 121.83 26.7401 124.38 24.2001C127.02 21.5601 128.42 18.0501 128.33 14.3201C128.24 10.5901 126.66 7.15006 123.89 4.63006C121.43 2.40006 118.22 1.17006 114.82 1.17006L114.84 1.18006Z" fill="black"/>
<path d="M17.2901 129C11.8601 129 6.95007 126.75 3.80007 122.82C-1.39993 116.32 -1.24993 106.63 4.16007 100.28C6.88007 97.08 10.4901 95 14.5901 94.28C15.9801 94.03 17.1101 93.04 17.5401 91.69C17.9601 90.34 17.6001 88.89 16.6101 87.89L15.3201 86.6C14.4801 85.76 14.0201 84.65 14.0201 83.47C14.0201 82.29 14.4801 81.17 15.3201 80.34L31.2801 64.38C32.1201 63.54 33.2301 63.08 34.4101 63.08C35.5901 63.08 36.7101 63.54 37.5401 64.38L43.1201 69.96L49.6501 63.43L44.0201 59.67C43.0401 59.01 42.3701 58.01 42.1401 56.85C41.9101 55.69 42.1401 54.51 42.8001 53.52C43.6201 52.29 45.0001 51.56 46.5001 51.56C47.3801 51.56 48.2201 51.82 48.9501 52.3L56.0501 57.04L59.8201 53.27L54.1901 49.51C53.2101 48.85 52.5401 47.85 52.3101 46.69C52.0801 45.53 52.3101 44.35 52.9701 43.36C53.7901 42.13 55.1701 41.4 56.6701 41.4C57.5501 41.4 58.3901 41.66 59.1201 42.14L66.2201 46.88L69.9901 43.11L64.3601 39.35C63.3801 38.7 62.7101 37.69 62.4801 36.53C62.2501 35.36 62.4801 34.18 63.1401 33.2C63.9601 31.97 65.3401 31.24 66.8401 31.24C67.7201 31.24 68.5601 31.5 69.2901 31.98L79.0001 38.47L82.7701 34.7L74.5301 29.19C73.5501 28.53 72.8801 27.53 72.6501 26.37C72.4201 25.21 72.6501 24.03 73.3101 23.04C74.1301 21.81 75.5101 21.08 77.0101 21.08C77.8901 21.08 78.7301 21.34 79.4601 21.82L89.1701 28.31L94.0501 23.43C99.3001 18.18 100.22 16.62 100.2 14.84C100.15 10.69 101.87 6.69003 104.91 3.88003C107.6 1.39003 111.14 0.0300293 114.88 0.0300293C118.62 0.0300293 122.07 1.37003 124.74 3.79003C127.75 6.53003 129.47 10.27 129.57 14.33C129.67 18.39 128.14 22.21 125.27 25.07C122.51 27.83 118.82 29.36 114.9 29.36H114.72C112.92 29.36 111.35 30.29 106.13 35.51L103.65 37.99L111.89 43.5C113.92 44.86 114.47 47.61 113.11 49.65C112.29 50.88 110.91 51.61 109.41 51.61C108.53 51.61 107.69 51.35 106.96 50.87L97.2901 44.41L93.4801 48.15L101.73 53.66C102.71 54.31 103.38 55.32 103.61 56.48C103.84 57.64 103.61 58.83 102.95 59.8C102.13 61.03 100.75 61.76 99.2501 61.76C98.3701 61.76 97.5301 61.5 96.8001 61.02L89.7001 56.28L85.9301 60.05L91.5601 63.81C92.5401 64.47 93.2101 65.47 93.4401 66.63C93.6701 67.79 93.4401 68.97 92.7801 69.96C91.9601 71.19 90.5801 71.92 89.0801 71.92C88.2001 71.92 87.3601 71.66 86.6301 71.18L79.5701 66.46L75.7601 70.2L81.4001 73.97C82.3801 74.63 83.0501 75.63 83.2801 76.79C83.5101 77.95 83.2801 79.13 82.6201 80.12C81.8001 81.35 80.4201 82.08 78.9201 82.08C78.0401 82.08 77.2001 81.82 76.4701 81.34L69.4101 76.62L59.5801 86.39L65.1601 91.97C66.8901 93.7 66.8901 96.51 65.1601 98.24L49.2001 114.2C48.3601 115.04 47.2501 115.5 46.0701 115.5C44.8901 115.5 43.7701 115.04 42.9401 114.2L41.6501 112.91C40.9301 112.19 39.9801 111.8 38.9801 111.8C37.1401 111.8 35.5801 113.09 35.2701 114.88C34.6901 118.21 34.1001 120.6 31.3601 123.34C27.7401 126.96 22.6301 129.03 17.3401 129.03L17.2901 129ZM34.4101 64.75C33.6701 64.75 32.9801 65.04 32.4601 65.56L16.5001 81.52C15.9801 82.04 15.6901 82.73 15.6901 83.47C15.6901 84.21 15.9801 84.9 16.5001 85.42L17.7901 86.71C19.2301 88.15 19.7501 90.26 19.1401 92.2C18.5301 94.15 16.9001 95.58 14.8801 95.94C11.1701 96.6 7.90007 98.48 5.43007 101.38C0.530071 107.13 0.390071 115.9 5.10007 121.78C7.97007 125.36 12.2901 127.33 17.2801 127.33C22.2701 127.33 26.8101 125.43 30.1201 122.13C32.5201 119.73 33.0201 117.68 33.5601 114.57C34.0101 111.98 36.2701 110.1 38.9201 110.1C40.3801 110.1 41.7501 110.67 42.7801 111.7L44.0701 112.99C45.1101 114.03 46.9201 114.03 47.9601 112.99L63.9201 97.03C64.4401 96.51 64.7301 95.82 64.7301 95.08C64.7301 94.34 64.4401 93.65 63.9201 93.13L36.3501 65.56C35.8301 65.04 35.1401 64.75 34.4001 64.75H34.4101ZM44.3101 71.13L58.3601 85.18L67.9201 75.62L51.0701 64.36L44.3101 71.12V71.13ZM46.4901 53.22C45.5601 53.22 44.7001 53.68 44.1901 54.44C43.7901 55.04 43.6501 55.77 43.8001 56.5C43.9501 57.23 44.3501 57.86 44.9501 58.26L77.3701 79.92C77.8201 80.22 78.3401 80.38 78.8901 80.38C79.8201 80.38 80.6801 79.92 81.1901 79.16C81.5901 78.56 81.7301 77.82 81.5901 77.1C81.4501 76.37 81.0301 75.75 80.4301 75.35L48.0101 53.68C47.5601 53.38 47.0401 53.22 46.4901 53.22ZM56.6501 43.06C55.7201 43.06 54.8601 43.52 54.3501 44.28C53.9501 44.88 53.8101 45.61 53.9601 46.34C54.1101 47.07 54.5101 47.7 55.1101 48.1L87.5301 69.77C88.7501 70.59 90.5401 70.22 91.3501 69.01C91.7501 68.41 91.8901 67.67 91.7501 66.95C91.6101 66.22 91.1901 65.6 90.5901 65.2L58.1701 43.53C57.7201 43.23 57.2001 43.07 56.6501 43.07V43.06ZM57.4501 57.97L74.3001 69.23L78.0701 65.46L61.2601 54.23L57.4501 57.97ZM66.8101 32.9C65.8801 32.9 65.0201 33.36 64.5101 34.12C64.1101 34.72 63.9701 35.46 64.1101 36.18C64.2601 36.91 64.6701 37.53 65.2701 37.93L97.6901 59.59C98.9101 60.41 100.7 60.04 101.51 58.83C101.92 58.22 102.06 57.49 101.92 56.76C101.78 56.04 101.36 55.41 100.76 55.01L68.3401 33.34C67.8901 33.04 67.3701 32.88 66.8201 32.88L66.8101 32.9ZM67.6201 47.82L84.4701 59.08L88.2401 55.31L71.3901 44.05L67.6201 47.82ZM76.9701 22.74C76.0401 22.74 75.1801 23.2 74.6701 23.96C74.2701 24.56 74.1301 25.29 74.2801 26.02C74.4301 26.75 74.8301 27.37 75.4301 27.77L107.85 49.44C109.07 50.26 110.86 49.89 111.67 48.68C112.5 47.44 112.15 45.69 110.91 44.86L78.4901 23.19C78.0401 22.89 77.5201 22.73 76.9701 22.73V22.74ZM80.3801 39.4L92.0101 47.17L95.7801 43.4L84.1901 35.65L80.3801 39.39V39.4ZM90.5501 29.24L102.18 37.01L104.9 34.29C110.58 28.61 112.31 27.65 114.62 27.65H114.86C118.34 27.65 121.6 26.3 124.05 23.86C126.59 21.32 127.94 17.94 127.86 14.34C127.78 10.75 126.26 7.43003 123.59 5.01003C121.23 2.86003 118.13 1.68003 114.86 1.68003C111.59 1.68003 108.41 2.89003 106.03 5.09003C103.29 7.62003 101.81 11.07 101.86 14.8C101.89 17.14 100.93 18.89 95.2201 24.6L90.5701 29.25L90.5501 29.24Z" fill="black"/>
<path d="M114.84 21.6599C112.97 21.6599 111.21 20.9299 109.88 19.6099C108.56 18.2899 107.83 16.5299 107.83 14.6499C107.83 12.7699 108.56 11.0199 109.88 9.68989C111.2 8.36989 112.96 7.63989 114.84 7.63989C116.72 7.63989 118.47 8.36989 119.8 9.68989C121.13 11.0099 121.85 12.7699 121.85 14.6499C121.85 16.5299 121.12 18.2799 119.8 19.6099C118.48 20.9299 116.72 21.6599 114.84 21.6599ZM114.84 8.32989C113.15 8.32989 111.56 8.98989 110.36 10.1799C109.17 11.3699 108.51 12.9599 108.51 14.6599C108.51 16.3599 109.17 17.9399 110.36 19.1399C111.55 20.3299 113.14 20.9899 114.84 20.9899C116.54 20.9899 118.12 20.3299 119.32 19.1399C120.51 17.9499 121.17 16.3599 121.17 14.6599C121.17 12.9599 120.51 11.3799 119.32 10.1799C118.13 8.98989 116.54 8.32989 114.84 8.32989Z" fill="black"/>
<path d="M114.84 22.1599C112.83 22.1599 110.95 21.3799 109.53 19.9599C108.11 18.5399 107.33 16.6599 107.33 14.6499C107.33 12.6399 108.11 10.7599 109.53 9.33989C110.95 7.91989 112.83 7.13989 114.84 7.13989C116.85 7.13989 118.73 7.91989 120.15 9.33989C121.57 10.7599 122.35 12.6399 122.35 14.6499C122.35 16.6599 121.57 18.5399 120.15 19.9599C118.73 21.3799 116.85 22.1599 114.84 22.1599ZM114.84 8.82989C113.28 8.82989 111.82 9.43989 110.72 10.5399C109.62 11.6399 109.01 13.0999 109.01 14.6599C109.01 16.2199 109.62 17.6799 110.72 18.7799C111.82 19.8799 113.28 20.4899 114.84 20.4899C116.4 20.4899 117.86 19.8799 118.96 18.7799C120.06 17.6799 120.67 16.2199 120.67 14.6599C120.67 13.0999 120.06 11.6399 118.96 10.5399C117.86 9.43989 116.4 8.82989 114.84 8.82989Z" fill="black"/>
</g>
<defs>
<clipPath id="clip0_87_247">
<rect width="129.53" height="129" fill="white"/>
</clipPath>
</defs>
</svg>
