<svg width="102" height="127" viewBox="0 0 102 127" fill="none" xmlns="http://www.w3.org/2000/svg">
<g clip-path="url(#clip0_87_184)">
<path d="M88.9201 84.8799H12.2201C6.35483 84.8799 1.6001 89.6346 1.6001 95.4999V115.01C1.6001 120.875 6.35483 125.63 12.2201 125.63H88.9201C94.7854 125.63 99.5401 120.875 99.5401 115.01V95.4999C99.5401 89.6346 94.7854 84.8799 88.9201 84.8799Z" stroke="black" stroke-width="2" stroke-linecap="square" stroke-linejoin="round"/>
<path d="M1.97998 105.25H99.11" stroke="black" stroke-width="2" stroke-linecap="square" stroke-linejoin="round"/>
<path d="M23.1199 84.8799L16.3899 91.5999" stroke="black" stroke-width="2" stroke-linecap="square" stroke-linejoin="round"/>
<path d="M43.6599 84.8799L36.9299 91.5999" stroke="black" stroke-width="2" stroke-linecap="square" stroke-linejoin="round"/>
<path d="M64.2 84.8799L57.48 91.5999" stroke="black" stroke-width="2" stroke-linecap="square" stroke-linejoin="round"/>
<path d="M84.75 84.8799L78.02 91.5999" stroke="black" stroke-width="2" stroke-linecap="square" stroke-linejoin="round"/>
<path d="M23.1199 84.8799L16.3899 91.5999" stroke="black" stroke-width="2" stroke-linecap="square" stroke-linejoin="round"/>
<path d="M43.66 84.8799L34.96 93.5699" stroke="black" stroke-width="2" stroke-linecap="square" stroke-linejoin="round"/>
<path d="M64.1999 84.8799L58.6299 90.4499" stroke="black" stroke-width="2" stroke-linecap="square" stroke-linejoin="round"/>
<path d="M84.75 84.8799L75.3 94.3199" stroke="black" stroke-width="2" stroke-linecap="square" stroke-linejoin="round"/>
<path d="M23.1199 125.04L16.3899 118.32" stroke="black" stroke-width="2" stroke-linecap="square" stroke-linejoin="round"/>
<path d="M43.6601 125.04L34.5901 115.97" stroke="black" stroke-width="2" stroke-linecap="square" stroke-linejoin="round"/>
<path d="M64.2 125.04L57.48 118.32" stroke="black" stroke-width="2" stroke-linecap="square" stroke-linejoin="round"/>
<path d="M84.75 125.04L75.46 115.76" stroke="black" stroke-width="2" stroke-linecap="square" stroke-linejoin="round"/>
<path d="M9.75009 78.0801C4.44009 70.2301 1.34009 60.7601 1.34009 50.5601C1.35009 23.3801 23.3801 1.3501 50.5601 1.3501C77.7401 1.3501 99.7801 23.3801 99.7801 50.5701C99.7801 60.7401 96.7001 70.1901 91.4101 78.0301" stroke="black" stroke-width="2" stroke-linecap="square" stroke-linejoin="round"/>
<path d="M36.67 78.08C26.63 73 19.75 62.59 19.75 50.56C19.75 33.54 33.55 19.74 50.57 19.74C67.59 19.74 81.39 33.54 81.39 50.56C81.39 62.58 74.51 73 64.46 78.08" stroke="black" stroke-width="2" stroke-linecap="square" stroke-linejoin="round"/>
<path d="M59.1205 71.23C70.5346 66.5021 75.9549 53.4164 71.227 42.0022C66.4991 30.5881 53.4134 25.1678 41.9992 29.8957C30.585 34.6236 25.1648 47.7093 29.8927 59.1235C34.6206 70.5377 47.7063 75.9579 59.1205 71.23Z" stroke="black" stroke-width="2" stroke-linecap="square" stroke-linejoin="round"/>
<path d="M50.56 1.3501L47.04 8.2001" stroke="black" stroke-width="2" stroke-linecap="square" stroke-linejoin="round"/>
<path d="M85.36 15.76L78.03 18.12" stroke="black" stroke-width="2" stroke-linecap="square" stroke-linejoin="round"/>
<path d="M99.7799 50.56L92.9199 47.04" stroke="black" stroke-width="2" stroke-linecap="square" stroke-linejoin="round"/>
<path d="M1.3501 50.5601L8.2001 54.0801" stroke="black" stroke-width="2" stroke-linecap="square" stroke-linejoin="round"/>
<path d="M15.76 15.76L18.12 23.1" stroke="black" stroke-width="2" stroke-linecap="square" stroke-linejoin="round"/>
</g>
<defs>
<clipPath id="clip0_87_184">
<rect width="101.12" height="126.63" fill="white"/>
</clipPath>
</defs>
</svg>
