<svg width="294" height="58" viewBox="0 0 294 58" fill="none" xmlns="http://www.w3.org/2000/svg">
<path d="M33.7174 16.473C41.9614 16.4849 45.2637 23.5691 45.2637 26.187L20.5358 26.1314C21.8488 20.9115 26.5875 16.4571 33.7333 16.469H33.7214L33.7174 16.473ZM53.3406 45.4167H34.5808L34.541 45.4444C23.7148 44.9446 20.3289 36.6744 20.3289 36.6744L57.6177 36.7538C59.6628 26.9327 55.6562 16.4055 46.708 10.5906C41.7545 7.36583 36.0967 6.12431 30.6299 6.62409L27.7732 12.9269H20.8183L17.8939 19.3646H10.9391C4.49748 30.808 7.94706 45.4206 19.1393 52.6913C30.4548 60.0571 48.387 57.2647 53.3406 45.4206" fill="#E14731"/>
<path d="M12.8043 0L9.87988 6.43766H16.8387L16.9581 6.15207L19.7472 0H12.8043Z" fill="#221F20"/>
<path d="M26.7059 0L23.9168 6.15207H23.8213L23.686 6.43766H30.6409L33.5653 0H26.7059Z" fill="#221F20"/>
<path d="M6.91432 12.9269L4.00586 19.3764H10.9368L13.8572 12.9269H6.91432Z" fill="#221F20"/>
<path d="M16.7833 6.48926L13.8589 12.9269H16.1188H20.8177L22.7514 8.64704L23.7262 6.48926H16.7833Z" fill="#221F20"/>
<path d="M2.92438 6.44958L0 12.8991H6.91506L9.81159 6.48925H9.85138L9.87923 6.44958H2.92438Z" fill="#221F20"/>
<path d="M50.2109 3.99393V5.12836C50.2109 5.60037 50.4536 6.02083 50.8475 6.27468C59.2268 11.7128 64.7612 21.1174 64.7612 31.831C64.7612 42.5445 58.9403 52.4212 50.2109 57.78H264.793C280.437 57.78 293.121 45.1387 293.121 29.5383V2.60168H51.6075C50.8356 2.60168 50.2149 3.22443 50.2149 3.98997" fill="#118ACB"/>
<path d="M84.2332 35.806H81.8699V39.6796H79.1245V35.806H71.1113V33.6075L79.1245 21.882H81.8699V33.4384H84.2332V35.806ZM79.1245 33.4384V28.9849C79.1245 27.3984 79.1643 26.0978 79.2439 25.0871H79.1484C78.9256 25.6227 78.5715 26.2669 78.094 27.028L73.7413 33.4384H79.1285H79.1245Z" fill="white"/>
<path d="M89.6327 32.8222L85.1845 26.2548H88.3993L91.4232 30.9538L94.4709 26.2548H97.6619L93.2017 32.8222L97.8926 39.6795H94.7017L91.4272 34.6543L88.1646 39.6795H84.9736L89.6407 32.8222H89.6327Z" fill="white"/>
<path d="M111.786 35.806H109.423V39.6796H106.678V35.806H98.6646V33.6075L106.678 21.882H109.423V33.4384H111.786V35.806ZM106.678 33.4384V28.9849C106.678 27.3984 106.718 26.0978 106.797 25.0871H106.702C106.479 25.6227 106.125 26.2669 105.647 27.028L101.295 33.4384H106.682H106.678Z" fill="white"/>
<path d="M123.146 35.8544C123.146 37.167 122.672 38.1697 121.73 38.8703C120.787 39.5709 119.434 39.9212 117.675 39.9212C115.917 39.9212 114.488 39.6515 113.418 39.1079V36.6436C114.978 37.3724 116.43 37.7348 117.771 37.7348C119.505 37.7348 120.373 37.2033 120.373 36.1443C120.373 35.806 120.277 35.5202 120.086 35.2947C119.895 35.0692 119.577 34.8316 119.139 34.59C118.698 34.3484 118.089 34.0706 117.305 33.7645C115.777 33.1646 114.743 32.5686 114.206 31.9687C113.669 31.3687 113.394 30.5916 113.394 29.6373C113.394 28.4897 113.852 27.5958 114.767 26.9596C115.682 26.3234 116.927 26.0052 118.503 26.0052C120.078 26.0052 121.539 26.3234 122.927 26.9636L122.016 29.1138C120.584 28.5138 119.382 28.2159 118.407 28.2159C116.919 28.2159 116.175 28.6467 116.175 29.5044C116.175 29.9272 116.37 30.2815 116.756 30.5714C117.142 30.8614 117.989 31.264 119.295 31.7714C120.389 32.2022 121.184 32.5928 121.682 32.9471C122.179 33.3015 122.545 33.7122 122.784 34.1793C123.023 34.6464 123.146 35.202 123.146 35.8503V35.8544Z" fill="white"/>
<path d="M129.118 37.0703C128.736 38.5763 128.032 40.5131 127.005 42.8848H124.932C125.485 40.6983 125.895 38.6689 126.17 36.7925H128.939L129.118 37.0703Z" fill="white"/>
<path d="M151.728 21.9342V33.4181C151.728 34.7308 151.449 35.8744 150.896 36.8609C150.339 37.8434 149.536 38.6004 148.485 39.1319C147.435 39.6634 146.177 39.9251 144.713 39.9251C142.537 39.9251 140.846 39.3413 139.64 38.1776C138.431 37.0139 137.83 35.4113 137.83 33.3698V21.9342H140.711V33.1644C140.711 34.6301 141.045 35.7093 141.717 36.4059C142.39 37.1025 143.42 37.4488 144.813 37.4488C147.514 37.4488 148.867 36.0113 148.867 33.1403V21.9342H151.736H151.728Z" fill="white"/>
<path d="M160.856 37.618C161.544 37.618 162.233 37.5092 162.917 37.2918V39.442C162.607 39.5789 162.205 39.6957 161.711 39.7883C161.218 39.8809 160.709 39.9292 160.184 39.9292C157.514 39.9292 156.177 38.5038 156.177 35.657V28.4212H154.367V27.1568L156.308 26.1139L157.267 23.2751H159.006V26.2629H162.786V28.4252H159.006V35.6127C159.006 36.3013 159.177 36.8086 159.515 37.1348C159.853 37.4609 160.299 37.626 160.852 37.626L160.856 37.618Z" fill="white"/>
<path d="M171.364 39.9211C169.299 39.9211 167.687 39.3131 166.525 38.093C165.364 36.873 164.779 35.1979 164.779 33.0598C164.779 30.9216 165.32 29.1419 166.398 27.8896C167.476 26.6373 168.96 26.0092 170.846 26.0092C172.597 26.0092 173.982 26.5487 174.996 27.6238C176.011 28.6989 176.52 30.1807 176.52 32.0652V33.6074H167.679C167.719 34.912 168.065 35.9106 168.722 36.6112C169.378 37.3119 170.301 37.6622 171.491 37.6622C172.275 37.6622 173.003 37.5857 173.679 37.4367C174.356 37.2877 175.08 37.0381 175.856 36.6918V39.0111C175.167 39.3413 174.471 39.5789 173.767 39.7158C173.063 39.8527 172.259 39.9211 171.356 39.9211H171.364ZM170.85 28.1714C169.955 28.1714 169.239 28.4573 168.698 29.0331C168.157 29.609 167.834 30.4465 167.731 31.5458H173.751C173.735 30.4384 173.472 29.5969 172.959 29.0291C172.446 28.4573 171.742 28.1755 170.846 28.1755L170.85 28.1714Z" fill="white"/>
<path d="M188.637 35.8544C188.637 37.167 188.163 38.1697 187.22 38.8703C186.277 39.5709 184.924 39.9212 183.166 39.9212C181.407 39.9212 179.979 39.6515 178.909 39.1079V36.6436C180.468 37.3724 181.921 37.7348 183.261 37.7348C184.996 37.7348 185.863 37.2033 185.863 36.1443C185.863 35.806 185.768 35.5202 185.577 35.2947C185.386 35.0692 185.068 34.8316 184.63 34.59C184.188 34.3484 183.58 34.0706 182.796 33.7645C181.268 33.1646 180.234 32.5686 179.696 31.9687C179.159 31.3687 178.885 30.5916 178.885 29.6373C178.885 28.4897 179.342 27.5958 180.257 26.9596C181.173 26.3234 182.418 26.0052 183.993 26.0052C185.569 26.0052 187.029 26.3234 188.418 26.9636L187.507 29.1138C186.074 28.5138 184.873 28.2159 183.898 28.2159C182.41 28.2159 181.666 28.6467 181.666 29.5044C181.666 29.9272 181.861 30.2815 182.247 30.5714C182.633 30.8614 183.48 31.264 184.785 31.7714C185.879 32.2022 186.675 32.5928 187.172 32.9471C187.67 33.3015 188.036 33.7122 188.275 34.1793C188.513 34.6464 188.633 35.202 188.633 35.8503L188.637 35.8544Z" fill="white"/>
<path d="M197.201 34.9805C197.201 33.9215 197.456 32.9953 197.969 32.2061C198.482 31.4169 199.405 30.6357 200.738 29.8586C199.978 28.9607 199.461 28.2037 199.187 27.5836C198.912 26.9635 198.773 26.3232 198.773 25.6588C198.773 24.4307 199.206 23.4563 200.074 22.7476C200.941 22.0349 202.107 21.6805 203.571 21.6805C205.035 21.6805 206.098 22.0268 206.905 22.7194C207.713 23.412 208.115 24.3421 208.115 25.5179C208.115 26.44 207.844 27.2775 207.303 28.0305C206.762 28.7835 205.863 29.5365 204.598 30.2895L208.748 34.3443C209.396 33.4785 209.933 32.2061 210.367 30.5311H213.271C212.71 32.8303 211.815 34.7026 210.586 36.1522L214.194 39.6836H210.562L208.775 37.9239C207.96 38.5883 207.088 39.0876 206.165 39.4218C205.242 39.756 204.22 39.9252 203.102 39.9252C201.263 39.9252 199.819 39.4863 198.773 38.6004C197.726 37.7145 197.201 36.5106 197.201 34.9845V34.9805ZM203.245 37.4689C204.709 37.4689 205.958 37.034 207.001 36.1683L202.405 31.5901C201.558 32.1417 200.973 32.6571 200.655 33.1363C200.336 33.6195 200.173 34.1671 200.173 34.7791C200.173 35.5724 200.452 36.2166 201.005 36.7159C201.562 37.2152 202.306 37.4609 203.241 37.4609L203.245 37.4689ZM201.458 25.7555C201.458 26.2669 201.594 26.746 201.86 27.201C202.127 27.656 202.501 28.1352 202.982 28.6466C203.885 28.1272 204.518 27.644 204.884 27.197C205.25 26.746 205.429 26.2427 205.429 25.687C205.429 25.1595 205.254 24.7408 204.908 24.4267C204.562 24.1126 204.096 23.9516 203.523 23.9516C202.891 23.9516 202.389 24.1166 202.019 24.4428C201.649 24.769 201.462 25.2079 201.462 25.7595L201.458 25.7555Z" fill="white"/>
<path d="M232.43 21.9342H235.406L229.267 39.6795H226.243L220.124 21.9342H223.076L226.732 32.9671C226.923 33.4946 227.13 34.1711 227.345 35.0006C227.56 35.8301 227.699 36.4461 227.763 36.8528C227.866 36.2368 228.025 35.524 228.244 34.7147C228.459 33.9053 228.634 33.3054 228.773 32.9188L232.434 21.9342H232.43Z" fill="white"/>
<path d="M245.719 39.6795L245.154 37.8112H245.058C244.418 38.6286 243.773 39.1843 243.128 39.4822C242.484 39.7802 241.648 39.9252 240.634 39.9252C239.329 39.9252 238.314 39.5708 237.582 38.8581C236.85 38.1454 236.484 37.1387 236.484 35.8341C236.484 34.449 236.993 33.4061 238.008 32.7014C239.022 31.9967 240.57 31.6142 242.651 31.5498L244.943 31.4773V30.7606C244.943 29.9029 244.744 29.2627 244.35 28.8358C243.952 28.409 243.339 28.1996 242.508 28.1996C241.827 28.1996 241.175 28.3003 240.554 28.5016C239.929 28.703 239.333 28.9446 238.756 29.2184L237.845 27.1809C238.565 26.8024 239.353 26.5125 240.208 26.3112C241.063 26.1138 241.871 26.0132 242.631 26.0132C244.318 26.0132 245.591 26.3836 246.451 27.1286C247.31 27.8735 247.74 29.0412 247.74 30.6357V39.6795H245.727H245.719ZM241.521 37.7387C242.544 37.7387 243.367 37.4488 243.988 36.869C244.609 36.2891 244.919 35.4798 244.919 34.4369V33.2732L243.216 33.3457C241.887 33.394 240.924 33.6195 240.319 34.0181C239.715 34.4208 239.412 35.0328 239.412 35.8583C239.412 36.4582 239.587 36.9213 239.941 37.2475C240.292 37.5736 240.821 37.7387 241.525 37.7387H241.521Z" fill="white"/>
<path d="M263.336 39.6796H260.507V31.4251C260.507 30.3902 260.3 29.6171 259.89 29.1057C259.477 28.5944 258.824 28.3407 257.929 28.3407C256.739 28.3407 255.868 28.695 255.315 29.4077C254.762 30.1205 254.487 31.3123 254.487 32.9874V39.6756H251.67V26.2509H253.879L254.276 28.0105H254.42C254.818 27.3703 255.387 26.879 256.123 26.5287C256.859 26.1824 257.674 26.0052 258.57 26.0052C261.753 26.0052 263.344 27.6441 263.344 30.9218V39.6756L263.336 39.6796Z" fill="white"/>
<path d="M276.172 35.8544C276.172 37.167 275.699 38.1697 274.756 38.8703C273.813 39.5709 272.46 39.9212 270.702 39.9212C268.943 39.9212 267.515 39.6515 266.444 39.1079V36.6436C268.004 37.3724 269.456 37.7348 270.797 37.7348C272.532 37.7348 273.399 37.2033 273.399 36.1443C273.399 35.806 273.304 35.5202 273.113 35.2947C272.922 35.0692 272.603 34.8316 272.166 34.59C271.724 34.3484 271.115 34.0706 270.332 33.7645C268.804 33.1646 267.769 32.5686 267.232 31.9687C266.695 31.3687 266.42 30.5916 266.42 29.6373C266.42 28.4897 266.878 27.5958 267.793 26.9596C268.708 26.3234 269.954 26.0052 271.529 26.0052C273.105 26.0052 274.565 26.3234 275.953 26.9636L275.042 29.1138C273.61 28.5138 272.408 28.2159 271.434 28.2159C269.946 28.2159 269.202 28.6467 269.202 29.5044C269.202 29.9272 269.396 30.2815 269.782 30.5714C270.168 30.8614 271.016 31.264 272.321 31.7714C273.415 32.2022 274.211 32.5928 274.708 32.9471C275.205 33.3015 275.572 33.7122 275.81 34.1793C276.049 34.6464 276.168 35.202 276.168 35.8503L276.172 35.8544Z" fill="white"/>
</svg>
