<svg width="138" height="136" viewBox="0 0 138 136" fill="none" xmlns="http://www.w3.org/2000/svg">
<path d="M66.35 1H2V125.2H93.86V28.52L66.35 1Z" fill="white"/>
<path d="M93.86 126.2H0V0H65.76L93.86 28.1V126.2ZM2 124.2H91.86V28.93L64.93 2H2V124.2Z" fill="black"/>
<path d="M65.36 29.81L65.22 1.73998L67.22 1.72998L67.35 27.8L93.42 27.67L93.43 29.67L65.36 29.81Z" fill="black"/>
<path d="M81.48 91.26L95.15 92.31C99.6 92.31 103.22 101.59 103.22 113.04C103.22 124.49 99.61 133.77 95.15 133.77L81.48 134.82" fill="white"/>
<path d="M81.5599 135.82L81.4099 133.83L95.0799 132.78C98.4999 132.78 102.22 124.68 102.22 113.05C102.22 101.42 98.4999 93.32 95.1499 93.32L81.3999 92.26L81.5499 90.27L95.2199 91.32C100.23 91.32 104.21 100.86 104.21 113.05C104.21 125.24 100.23 134.78 95.1399 134.78L81.5499 135.83L81.5599 135.82Z" fill="black"/>
<path d="M81.48 134.82C86.1634 134.82 89.96 125.069 89.96 113.04C89.96 101.011 86.1634 91.26 81.48 91.26C76.7966 91.26 73 101.011 73 113.04C73 125.069 76.7966 134.82 81.48 134.82Z" fill="white"/>
<path d="M81.48 135.82C76.17 135.82 72 125.81 72 113.04C72 100.27 76.16 90.26 81.48 90.26C86.8 90.26 90.95 100.27 90.95 113.04C90.95 125.81 86.79 135.82 81.48 135.82ZM81.48 92.26C77.94 92.26 74 100.79 74 113.04C74 125.29 77.94 133.82 81.48 133.82C85.02 133.82 88.95 125.29 88.95 113.04C88.95 100.79 85.01 92.26 81.48 92.26Z" fill="black"/>
<path d="M102.96 124.51L101.63 123.01L101.71 122.94C106.1 119.03 109.81 117.05 112.74 117.05C115.67 117.05 119.96 118.06 123.51 118.88C125.45 119.32 127.12 119.71 128.18 119.86C130.47 120.18 132.06 119.27 133 118.45C134.41 117.23 135.25 115.42 135.25 113.62C135.25 111.82 134.41 109.95 133 108.73C132.06 107.91 130.48 107.01 128.18 107.32C127.12 107.47 125.44 107.85 123.51 108.3C119.95 109.11 115.52 110.13 112.74 110.13C109.81 110.13 106.1 108.15 101.71 104.24L101.63 104.17L102.96 102.67L103.04 102.74C108.3 107.43 111.38 108.13 112.74 108.13C115.3 108.13 119.61 107.14 123.07 106.35C125.05 105.9 126.77 105.5 127.92 105.34C130.28 105.01 132.56 105.68 134.33 107.22C136.17 108.82 137.26 111.19 137.26 113.56C137.26 115.93 136.16 118.37 134.33 119.96C132.56 121.5 130.29 122.17 127.92 121.84C126.77 121.68 125.06 121.29 123.07 120.83C119.61 120.04 115.3 119.05 112.74 119.05C111.37 119.05 108.3 119.75 103.04 124.44L102.96 124.51Z" fill="black"/>
<path d="M44.5801 69.2001L38.6401 63.2601L40.0601 61.8501L44.5901 66.3801L55.4401 55.6101L56.8501 57.0301L44.5801 69.2001Z" fill="black"/>
<path d="M47.7498 81.4699C37.0398 81.4699 28.3398 72.7599 28.3398 62.0599C28.3398 51.3599 37.0498 42.6499 47.7498 42.6499C58.4498 42.6499 67.1598 51.3599 67.1598 62.0599C67.1598 72.7599 58.4498 81.4699 47.7498 81.4699ZM47.7498 44.6399C38.1498 44.6399 30.3398 52.4499 30.3398 62.0499C30.3398 71.6499 38.1498 79.4599 47.7498 79.4599C57.3498 79.4599 65.1598 71.6499 65.1598 62.0499C65.1598 52.4499 57.3498 44.6399 47.7498 44.6399Z" fill="black"/>
</svg>
